<?xml version="1.0" encoding="utf-8"?>
<!-- Generator: Adobe Illustrator 17.0.0, SVG Export Plug-In . SVG Version: 6.00 Build 0)  -->
<!DOCTYPE svg PUBLIC "-//W3C//DTD SVG 1.1//EN" "http://www.w3.org/Graphics/SVG/1.1/DTD/svg11.dtd">
<svg version="1.1" id="Livello_1" xmlns="http://www.w3.org/2000/svg" xmlns:xlink="http://www.w3.org/1999/xlink" x="0px" y="0px"
	 width="841.89px" height="545.331px" viewBox="0 0 841.89 545.331" enable-background="new 0 0 841.89 545.331"
	 xml:space="preserve">
<g id="libro_1">
	<path fill="#0384B3" d="M165.348,194.524c0,2.86-1.591,5.178-3.553,5.178H45.345c-1.962,0-3.553-2.318-3.553-5.178v-95.97
		c0-2.86,1.591-5.178,3.553-5.178h116.449c1.962,0,3.553,2.318,3.553,5.178V194.524z"/>
	<path fill="none" stroke="#000000" stroke-width="2" stroke-miterlimit="10" d="M163.061,197.665c0,2.86-1.591,5.178-3.553,5.178
		H43.058c-1.962,0-3.553-2.318-3.553-5.178v-95.97c0-2.86,1.591-5.178,3.553-5.178h116.449c1.962,0,3.553,2.318,3.553,5.178V197.665
		z"/>
	<g id="XMLID_1_">
		<g id="XMLID_4_">
			<path id="XMLID_13_" fill="none" stroke="#FFFFFF" stroke-width="3" stroke-miterlimit="10" d="M109.218,181.076
				c8.039,0.691,16.14,0.126,24.178,0.314c1.57,0,3.203,0.314,4.836-0.377c0-16.705,0-33.41,0-50.492c-2.575,0-4.961,0-7.411,0"/>
			<path id="XMLID_12_" fill="none" stroke="#FFFFFF" stroke-width="3" stroke-miterlimit="10" d="M71.538,130.521
				c-2.324,0-4.584,0-7.097,0c0,17.082,0,33.787,0,50.869c4.647,0,9.169,0.063,13.628,0c4.898-0.063,9.86,0.377,14.758-0.314"/>
			<path id="XMLID_11_" fill="none" stroke="#FFFFFF" stroke-width="3" stroke-miterlimit="10" d="M101.368,181.076
				c0-15.575-0.251-31.212,0.126-46.787c0.126-5.275-2.072-8.039-6.092-10.362c-3.894-2.198-17.961-4.961-22.985-3.642
				c0,16.203,0,32.531,0,48.545c4.333,1.947,8.604,0.942,12.686,1.821c4.836,1.005,9.546,2.135,13.502,5.401
				c2.638,2.198,3.454,2.198,5.966,0c3.705-3.266,8.227-4.27,12.874-5.401c4.145-1.005,8.541,0.126,12.937-1.821
				c0-16.014,0-32.343,0-49.048c-10.739,0.251-20.85,1.13-28.951,8.667"/>
			<path id="XMLID_10_" fill="none" stroke="#FFFFFF" stroke-width="3" stroke-miterlimit="10" d="M94.146,149.048
				c-4.773-2.324-9.923-2.826-15.072-3.454"/>
			<path id="XMLID_9_" fill="none" stroke="#FFFFFF" stroke-width="3" stroke-miterlimit="10" d="M123.662,135.546
				c-5.212,0.377-10.299,1.13-15.072,3.454"/>
			<path id="XMLID_8_" fill="none" stroke="#FFFFFF" stroke-width="3" stroke-miterlimit="10" d="M123.662,145.594
				c-5.15,0.565-10.299,1.193-15.072,3.454"/>
			<path id="XMLID_7_" fill="none" stroke="#FFFFFF" stroke-width="3" stroke-miterlimit="10" d="M93.518,138.686
				c-4.584-2.01-9.483-2.763-14.444-3.14"/>
			<path id="XMLID_6_" fill="none" stroke="#FFFFFF" stroke-width="3" stroke-miterlimit="10" d="M122.406,155.642
				c-3.705,1.005-7.662,1.193-11.304,2.449c-0.879,0.314-1.633,0.691-2.512,1.005"/>
			<path id="XMLID_5_" fill="none" stroke="#FFFFFF" stroke-width="3" stroke-miterlimit="10" d="M79.702,155.956
				c5.024,0.126,9.797,1.382,14.444,3.14"/>
		</g>
	</g>
</g>
<g id="freccia_1">
	<g>

			<line fill="none" stroke="#000000" stroke-width="2" stroke-linecap="round" stroke-miterlimit="10" x1="193.026" y1="149.68" x2="258.49" y2="149.68"/>
		<g>
			<polygon points="256.155,157.658 269.971,149.681 256.155,141.703 			"/>
		</g>
	</g>
</g>
<g id="formulate_test_procedures_cerchio_1">

		<ellipse fill="#FAB537" stroke="#FAB538" stroke-width="14" stroke-linecap="round" stroke-linejoin="round" stroke-miterlimit="10" cx="383.423" cy="150.626" rx="81.853" ry="64.49"/>

		<ellipse fill="none" stroke="#050A0C" stroke-width="2" stroke-linecap="round" stroke-linejoin="round" stroke-miterlimit="10" cx="386.561" cy="152.197" rx="83.071" ry="65.45"/>
</g>
<g id="Formulate_test_procedures">
	<text transform="matrix(1 0 0 1 341.2393 143.1211)"><tspan x="0" y="0" fill="#FFFFFF" font-family="'BebasNeue'" font-size="24.1086">Formulate</tspan><tspan x="-23.349" y="28.93" fill="#FFFFFF" font-family="'BebasNeue'" font-size="24.1086">test procedures</tspan></text>
</g>
<g id="freccia_2">
	<g>

			<line fill="none" stroke="#000000" stroke-width="2" stroke-linecap="round" stroke-miterlimit="10" x1="504.438" y1="149.68" x2="569.901" y2="149.68"/>
		<g>
			<polygon points="567.567,157.658 581.382,149.681 567.567,141.703 			"/>
		</g>
	</g>
</g>
<g id="freccia_4">
	<g>

			<line fill="none" stroke="#000000" stroke-width="2" stroke-linecap="round" stroke-miterlimit="10" x1="581.382" y1="459.207" x2="515.919" y2="459.207"/>
		<g>
			<polygon points="518.253,451.229 504.438,459.206 518.253,467.184 			"/>
		</g>
	</g>
</g>
<g id="freccia_5">
	<g>

			<line fill="none" stroke="#000000" stroke-width="2" stroke-linecap="round" stroke-miterlimit="10" x1="269.971" y1="459.207" x2="204.507" y2="459.207"/>
		<g>
			<polygon points="206.842,451.229 193.026,459.206 206.842,467.184 			"/>
		</g>
	</g>
</g>
<g id="freccia_3">
	<g>

			<line fill="none" stroke="#000000" stroke-width="2" stroke-linecap="round" stroke-miterlimit="10" x1="702.938" y1="240.247" x2="702.938" y2="305.711"/>
		<g>
			<polygon points="694.96,303.376 702.937,317.192 710.915,303.376 			"/>
		</g>
	</g>
</g>
<g id="define_test_cases_cherchio_2">

		<ellipse fill="#FAB537" stroke="#FAB538" stroke-width="14" stroke-linecap="round" stroke-linejoin="round" stroke-miterlimit="10" cx="694.266" cy="152.626" rx="81.853" ry="64.49"/>

		<ellipse fill="none" stroke="#050A0C" stroke-width="2" stroke-linecap="round" stroke-linejoin="round" stroke-miterlimit="10" cx="697.972" cy="152.197" rx="83.071" ry="65.45"/>
</g>
<g id="Define_test_cases">
	<text transform="matrix(1 0 0 1 670.0811 143.1211)"><tspan x="0" y="0" fill="#FFFFFF" font-family="'BebasNeue'" font-size="24.1086">Define</tspan><tspan x="-17.032" y="28.93" fill="#FFFFFF" font-family="'BebasNeue'" font-size="24.1086">test cases</tspan></text>
</g>
<g id="add_test_data_cerchio_3">

		<ellipse fill="#FAB537" stroke="#FAB538" stroke-width="14" stroke-linecap="round" stroke-linejoin="round" stroke-miterlimit="10" cx="701.639" cy="461.132" rx="81.853" ry="64.49"/>

		<ellipse fill="none" stroke="#050A0C" stroke-width="2" stroke-linecap="round" stroke-linejoin="round" stroke-miterlimit="10" cx="705.455" cy="459.207" rx="83.071" ry="65.45"/>
</g>
<g id="Add_test_data">
	<text transform="matrix(1 0 0 1 688.1956 450.1305)"><tspan x="0" y="0" fill="#FFFFFF" font-family="'BebasNeue'" font-size="24.1086">Add</tspan><tspan x="-23.674" y="28.93" fill="#FFFFFF" font-family="'BebasNeue'" font-size="24.1086">test data</tspan></text>
</g>
<g id="determine_expected_results_cerchio_4">

		<ellipse fill="#FAB537" stroke="#FAB538" stroke-width="14" stroke-linecap="round" stroke-linejoin="round" stroke-miterlimit="10" cx="390.383" cy="460.132" rx="81.853" ry="64.49"/>

		<ellipse fill="none" stroke="#050A0C" stroke-width="2" stroke-linecap="round" stroke-linejoin="round" stroke-miterlimit="10" cx="391.595" cy="459.207" rx="83.071" ry="65.45"/>
</g>
<g id="Determine_expected_results">
	<text transform="matrix(1 0 0 1 347.7567 439.1305)"><tspan x="0" y="0" fill="#FFFFFF" font-family="'BebasNeue'" font-size="24.1086">Determine</tspan><tspan x="4.424" y="28.93" fill="#FFFFFF" font-family="'BebasNeue'" font-size="24.1086">expected</tspan><tspan x="9.849" y="57.861" fill="#FFFFFF" font-family="'BebasNeue'" font-size="24.1086">results</tspan></text>
</g>
<g id="documento">
	<path fill="#293383" stroke="#28347F" stroke-miterlimit="10" d="M165.348,496.545c0,2.86-1.591,5.178-3.553,5.178H45.345
		c-1.962,0-3.553-2.318-3.553-5.178v-95.97c0-2.86,1.591-5.178,3.553-5.178h116.449c1.962,0,3.553,2.318,3.553,5.178V496.545z"/>
	<path fill="none" stroke="#000000" stroke-width="2" stroke-miterlimit="10" d="M163.061,499.686c0,2.86-1.591,5.178-3.553,5.178
		H43.058c-1.962,0-3.553-2.318-3.553-5.178v-95.97c0-2.86,1.591-5.178,3.553-5.178h116.449c1.962,0,3.553,2.318,3.553,5.178V499.686
		z"/>
	<g>
		<path fill="#FFFFFF" d="M124.39,434.005c0.006-2.322-0.584-4.282-2.024-5.926c-2.111-2.408-4.204-4.836-6.318-7.24
			c-1.414-1.608-3.121-2.4-5.142-2.396c-8.84,0.017-17.68,0.006-26.52,0.01c-0.4,0-0.808-0.001-1.2,0.077
			c-3.57,0.707-5.914,3.864-5.918,7.983c-0.007,8.388-0.002,16.775-0.002,25.163c0,8.502,0,17.003,0.001,25.504
			c0,0.091,0.003,0.182,0.005,0.273c0.086,4.026,3.069,7.475,6.613,7.486c11.271,0.033,22.542,0.014,33.813,0.011
			c0.895,0,1.756-0.22,2.562-0.658c2.842-1.546,4.116-4.172,4.115-7.689C124.37,462.404,124.356,448.204,124.39,434.005z
			 M112.473,421.613c0.689,0.296,1.28,0.745,1.798,1.332c2.07,2.352,4.141,4.702,6.214,7.051c0.547,0.62,0.977,1.319,1.227,2.158
			c0.119,0.4,0.028,0.522-0.341,0.52c-2.769-0.011-5.538,0.002-8.308-0.013c-0.742-0.004-1.085-0.428-1.091-1.288
			c-0.01-1.548-0.003-3.096-0.003-4.644c0-1.571,0.015-3.142-0.009-4.712C111.953,421.512,112.087,421.447,112.473,421.613z
			 M121.964,476.71c-0.001,2.713-1.294,4.697-3.412,5.267c-0.29,0.078-0.596,0.107-0.894,0.107
			c-11.112,0.004-22.224,0.004-33.336-0.002c-2.164-0.001-3.813-1.405-4.327-3.655c-0.132-0.577-0.16-1.167-0.16-1.762
			c0.002-8.32,0.001-16.641,0.001-24.961c0-8.389-0.003-16.778,0.002-25.167c0.001-2.54,1.246-4.463,3.282-5.112
			c0.487-0.155,0.985-0.199,1.489-0.196c8.097,0.033,16.194,0.069,24.292,0.079c0.499,0.001,0.586,0.184,0.583,0.695
			c-0.019,3.032-0.01,6.064-0.009,9.095c0.001,2.762,1.472,4.441,3.891,4.442c2.652,0.001,5.305,0.013,7.957-0.011
			c0.473-0.004,0.656,0.092,0.655,0.695C121.962,449.72,121.968,463.215,121.964,476.71z"/>
		<path fill="#FFFFFF" d="M104.469,469.353c2.45,0,4.899,0.002,7.349-0.002c0.305,0,0.606,0.01,0.88,0.172
			c0.512,0.304,0.787,0.792,0.725,1.446c-0.061,0.644-0.388,1.096-0.956,1.255c-0.25,0.07-0.517,0.082-0.776,0.082
			c-4.819,0.005-9.638,0.003-14.457,0.003c-0.12,0-0.241,0.005-0.361-0.004c-0.891-0.064-1.413-0.632-1.393-1.511
			c0.02-0.854,0.597-1.437,1.46-1.439C99.449,469.348,101.959,469.353,104.469,469.353z"/>
		<path fill="#FFFFFF" d="M104.464,446.887c-2.408,0-4.816,0.002-7.224-0.002c-0.239,0-0.484-0.003-0.717-0.059
			c-0.648-0.156-1.057-0.746-1.043-1.459c0.014-0.702,0.461-1.287,1.1-1.417c0.156-0.032,0.32-0.025,0.48-0.025
			c4.916-0.001,9.832,0.001,14.748-0.004c0.598-0.001,1.114,0.151,1.433,0.785c0.418,0.832,0.086,1.788-0.72,2.086
			c-0.253,0.094-0.512,0.097-0.773,0.097C109.32,446.886,106.892,446.887,104.464,446.887z"/>
		<path fill="#FFFFFF" d="M104.435,459.627c-2.492,0-4.983-0.003-7.475,0.002c-0.615,0.001-1.102-0.235-1.366-0.899
			c-0.319-0.804,0.051-1.73,0.8-1.962c0.266-0.082,0.556-0.098,0.834-0.098c4.803-0.006,9.605-0.004,14.408-0.004
			c0.08,0,0.161-0.002,0.241,0.001c0.917,0.03,1.552,0.648,1.558,1.514c0.006,0.863-0.626,1.444-1.585,1.445
			C109.378,459.629,106.907,459.627,104.435,459.627z"/>
		<path fill="#FFFFFF" d="M90.383,473.037c-0.281,0-0.563,0.017-0.843-0.005c-0.269-0.021-0.522-0.152-0.688-0.383
			c-0.693-0.964-0.475-2.1-0.283-3.134c0.16-0.862,0.915-0.957,1.619-0.954c1.882,0.009,2.185,0.337,2.184,2.432
			C92.372,472.701,92.033,473.051,90.383,473.037z"/>
		<path fill="#FFFFFF" d="M90.407,447.617c-0.261,0-0.524,0.02-0.783-0.004c-0.636-0.059-1.105-0.545-1.149-1.254
			c-0.039-0.635-0.038-1.277-0.001-1.912c0.04-0.685,0.482-1.191,1.089-1.24c0.559-0.045,1.126-0.047,1.685-0.001
			c0.625,0.051,1.064,0.619,1.111,1.385c0.028,0.454,0.017,0.911,0.011,1.367c-0.013,1.137-0.472,1.652-1.482,1.672
			c-0.161,0.003-0.321,0-0.482,0C90.407,447.625,90.407,447.621,90.407,447.617z"/>
		<path fill="#FFFFFF" d="M90.438,455.916c0.423,0.039,0.852-0.083,1.244,0.174c0.502,0.33,0.729,0.835,0.687,1.476
			c-0.06,0.91,0.33,2.045-0.632,2.577c-0.821,0.453-1.795,0.437-2.619,0.018c-0.982-0.5-0.607-1.643-0.665-2.554
			c-0.042-0.662,0.147-1.204,0.696-1.532C89.564,455.826,90.013,455.963,90.438,455.916z"/>
	</g>
</g>
<g id="formulate_test_procedures_lavagna_1">
	<circle fill="#514998" cx="440.883" cy="47.773" r="23.692"/>
	<g>
		<path fill="#FFFFFF" d="M428.358,35.693v22.438h17.128c0-0.486,0-0.972,0-1.458h-15.84V37.151h22.535v11.13
			c0.418,0,0.852,0,1.288,0V35.693H428.358z"/>

			<line fill="#FFFFFF" stroke="#FFFFFF" stroke-linecap="round" stroke-miterlimit="10" x1="445.198" y1="48.593" x2="455.893" y2="59.287"/>
	</g>
</g>
<g id="formulate_test_procedures_tools_1">
	<g id="Tools_1">
		<circle fill="#72B62B" cx="377.595" cy="47.946" r="23.176"/>
	</g>
	<g>
		<path fill="none" stroke="#FFFFFF" stroke-linecap="round" stroke-linejoin="round" stroke-miterlimit="10" d="M368.401,43.775
			c0.086,0.007,0.172,0.026,0.251,0.066c0.119,0.066,0.264,0.046,0.363-0.053l3.24-3.24c0.145-0.145,0.145-0.383,0-0.528
			c-0.178-0.178-0.178-0.469,0-0.647l0.884-0.884c0.178-0.178,0.469-0.178,0.647,0l0.264,0.264l2.112-2.112
			c0.508-0.508,0.508-1.326,0-1.828l-2.811-2.811c-0.508-0.508-1.326-0.508-1.828,0l-2.112,2.112l0.218,0.218
			c0.231,0.231,0.231,0.614,0,0.845l-0.68,0.68c-0.231,0.231-0.614,0.231-0.845,0c-0.119-0.119-0.31-0.119-0.429,0l-3.286,3.286
			c-0.119,0.119-0.119,0.317,0,0.436c0.119,0.119,0.139,0.31,0.04,0.455c-4.243,6.269-1.234,9.337-1.234,9.337
			c0.376-2.745,2.692-5.292,4.962-5.596C368.229,43.768,368.322,43.768,368.401,43.775z"/>
		<path fill="none" stroke="#FFFFFF" stroke-linecap="round" stroke-linejoin="round" stroke-miterlimit="10" d="M390.408,57.401
			L373.39,41.67l-3.088,3.088l15.725,17.018c0.864,0.924,2.323,0.95,3.22,0.053l1.214-1.214
			C391.358,59.724,391.331,58.265,390.408,57.401z"/>
		<path fill="none" stroke="#FFFFFF" stroke-linecap="round" stroke-linejoin="round" stroke-miterlimit="10" d="M367.741,58.378
			c-0.944,0.944-0.944,2.468,0,3.412l0,0c0.944,0.944,2.468,0.944,3.411,0l6.77-6.77l-3.28-3.543L367.741,58.378z"/>
		<path fill="none" stroke="#FFFFFF" stroke-linecap="round" stroke-linejoin="round" stroke-miterlimit="10" d="M393.661,40.159
			l-3.689,3.689c-0.284,0.284-0.713,0.376-1.089,0.238l-2.065-0.772c-0.277-0.106-0.501-0.323-0.6-0.6l-0.772-2.065
			c-0.139-0.376-0.046-0.805,0.238-1.089l3.689-3.689c-1.94-0.475-4.071,0.046-5.576,1.57c-1.656,1.676-2.092,4.118-1.313,6.196
			l-2.382,2.382l3.543,3.28l2.244-2.244c2.092,0.792,4.546,0.343,6.229-1.34C393.621,44.204,394.136,42.085,393.661,40.159z"/>
	</g>
</g>
<g id="formulate_test_procedures_cappello_1">
	<circle fill="#D02517" cx="314.278" cy="47.634" r="23.225"/>
	<g>
		<path fill="none" stroke="#FFFFFF" stroke-miterlimit="10" d="M324.144,47.751c-0.081-0.879-0.165-1.902-0.242-3.02
			c-0.246-3.59-2.092-6.859-3.282-7.486c-0.235-0.124-0.602-0.149-1.042-0.112c-1.788,0.152-4.818,1.354-5.449,1.352
			c-0.48-0.001-2.474-0.488-4.22-0.598c-1.109-0.07-2.119,0.012-2.578,0.469c-0.717,0.713-1.295,4.84-1.639,7.973
			c-4.405,0.727-7.381,2.288-7.529,4.297c-0.237,3.215,6.861,6.358,15.853,7.021c8.992,0.663,16.474-1.406,16.711-4.621
			C330.872,51.056,328.258,49.113,324.144,47.751z"/>
		<g>
			<path fill="#FFFFFF" d="M305.182,50.754l0.186-1.808c0.027,0.016,3.256,1.785,9.63,2.123c6.621,0.351,9.411-1.05,9.411-1.05
				l0.336,1.65c-0.614,0.49-2.53,1.84-9.833,1.453C310.317,52.878,306.483,51.564,305.182,50.754z"/>
		</g>
		<line fill="none" stroke="#FFFFFF" stroke-miterlimit="10" x1="305.183" y1="50.752" x2="305.692" y2="46.33"/>
		<line fill="none" stroke="#FFFFFF" stroke-miterlimit="10" x1="324.144" y1="47.751" x2="324.42" y2="51.472"/>
	</g>
</g>
<g id="define_test_case_lavagna_2">
	<circle fill="#514998" cx="764.911" cy="47.773" r="23.692"/>
	<g>
		<path fill="#FFFFFF" d="M752.386,35.693v22.438h17.128c0-0.486,0-0.972,0-1.458h-15.84V37.151h22.535v11.13
			c0.418,0,0.852,0,1.288,0V35.693H752.386z"/>

			<line fill="#FFFFFF" stroke="#FFFFFF" stroke-linecap="round" stroke-miterlimit="10" x1="769.226" y1="48.593" x2="779.92" y2="59.287"/>
	</g>
</g>
<g id="define_test_case_tools_2">
	<g id="Tools_1_1_">
		<circle fill="#72B62B" cx="701.622" cy="47.946" r="23.176"/>
	</g>
	<g>
		<path fill="none" stroke="#FFFFFF" stroke-linecap="round" stroke-linejoin="round" stroke-miterlimit="10" d="M692.429,43.775
			c0.086,0.007,0.172,0.026,0.251,0.066c0.119,0.066,0.264,0.046,0.363-0.053l3.24-3.24c0.145-0.145,0.145-0.383,0-0.528
			c-0.178-0.178-0.178-0.469,0-0.647l0.884-0.884c0.178-0.178,0.469-0.178,0.647,0l0.264,0.264l2.112-2.112
			c0.508-0.508,0.508-1.326,0-1.828l-2.811-2.811c-0.508-0.508-1.326-0.508-1.828,0l-2.112,2.112l0.218,0.218
			c0.231,0.231,0.231,0.614,0,0.845l-0.68,0.68c-0.231,0.231-0.614,0.231-0.845,0c-0.119-0.119-0.31-0.119-0.429,0l-3.286,3.286
			c-0.119,0.119-0.119,0.317,0,0.436c0.119,0.119,0.139,0.31,0.04,0.455c-4.243,6.269-1.234,9.337-1.234,9.337
			c0.376-2.745,2.692-5.292,4.962-5.596C692.257,43.768,692.349,43.768,692.429,43.775z"/>
		<path fill="none" stroke="#FFFFFF" stroke-linecap="round" stroke-linejoin="round" stroke-miterlimit="10" d="M714.435,57.401
			L697.417,41.67l-3.088,3.088l15.725,17.018c0.864,0.924,2.323,0.95,3.22,0.053l1.214-1.214
			C715.385,59.724,715.359,58.265,714.435,57.401z"/>
		<path fill="none" stroke="#FFFFFF" stroke-linecap="round" stroke-linejoin="round" stroke-miterlimit="10" d="M691.769,58.378
			c-0.944,0.944-0.944,2.468,0,3.412l0,0c0.944,0.944,2.468,0.944,3.411,0l6.77-6.77l-3.279-3.543L691.769,58.378z"/>
		<path fill="none" stroke="#FFFFFF" stroke-linecap="round" stroke-linejoin="round" stroke-miterlimit="10" d="M717.688,40.159
			L714,43.847c-0.284,0.284-0.713,0.376-1.089,0.238l-2.065-0.772c-0.277-0.106-0.501-0.323-0.6-0.6l-0.772-2.065
			c-0.139-0.376-0.046-0.805,0.238-1.089l3.689-3.689c-1.94-0.475-4.071,0.046-5.576,1.57c-1.656,1.676-2.092,4.118-1.313,6.196
			l-2.382,2.382l3.543,3.28l2.244-2.244c2.092,0.792,4.547,0.343,6.229-1.34C717.649,44.204,718.163,42.085,717.688,40.159z"/>
	</g>
</g>
<g id="define_test_cases_cappello_2">
	<circle fill="#D02517" cx="638.305" cy="47.634" r="23.225"/>
	<g>
		<path fill="none" stroke="#FFFFFF" stroke-miterlimit="10" d="M648.171,47.751c-0.081-0.879-0.165-1.902-0.242-3.02
			c-0.247-3.59-2.092-6.859-3.282-7.486c-0.235-0.124-0.602-0.149-1.042-0.112c-1.788,0.152-4.818,1.354-5.449,1.352
			c-0.48-0.001-2.474-0.488-4.22-0.598c-1.109-0.07-2.119,0.012-2.578,0.469c-0.717,0.713-1.295,4.84-1.639,7.973
			c-4.405,0.727-7.381,2.288-7.529,4.297c-0.237,3.215,6.861,6.358,15.853,7.021c8.992,0.663,16.474-1.406,16.711-4.621
			C654.9,51.056,652.286,49.113,648.171,47.751z"/>
		<g>
			<path fill="#FFFFFF" d="M629.21,50.754l0.186-1.808c0.027,0.016,3.256,1.785,9.63,2.123c6.621,0.351,9.411-1.05,9.411-1.05
				l0.336,1.65c-0.614,0.49-2.53,1.84-9.833,1.453C634.345,52.878,630.51,51.564,629.21,50.754z"/>
		</g>
		<line fill="none" stroke="#FFFFFF" stroke-miterlimit="10" x1="629.211" y1="50.752" x2="629.72" y2="46.33"/>
		<line fill="none" stroke="#FFFFFF" stroke-miterlimit="10" x1="648.171" y1="47.751" x2="648.448" y2="51.472"/>
	</g>
</g>
<g id="add_test_data_lavagna_3">
	<circle fill="#514998" cx="764.911" cy="354.776" r="23.692"/>
	<g>
		<path fill="#FFFFFF" d="M752.386,342.696v22.438h17.128c0-0.486,0-0.972,0-1.458h-15.84v-19.522h22.535v11.13
			c0.418,0,0.852,0,1.288,0v-12.588H752.386z"/>

			<line fill="#FFFFFF" stroke="#FFFFFF" stroke-linecap="round" stroke-miterlimit="10" x1="769.226" y1="355.596" x2="779.92" y2="366.29"/>
	</g>
</g>
<g id="add_test_data_tools_3">
	<g id="Tools_1_2_">
		<circle fill="#72B62B" cx="701.622" cy="354.949" r="23.176"/>
	</g>
	<g>
		<path fill="none" stroke="#FFFFFF" stroke-linecap="round" stroke-linejoin="round" stroke-miterlimit="10" d="M692.429,350.778
			c0.086,0.007,0.172,0.026,0.251,0.066c0.119,0.066,0.264,0.046,0.363-0.053l3.24-3.24c0.145-0.145,0.145-0.383,0-0.528
			c-0.178-0.178-0.178-0.469,0-0.647l0.884-0.884c0.178-0.178,0.469-0.178,0.647,0l0.264,0.264l2.112-2.112
			c0.508-0.508,0.508-1.326,0-1.828l-2.811-2.811c-0.508-0.508-1.326-0.508-1.828,0l-2.112,2.112l0.218,0.218
			c0.231,0.231,0.231,0.614,0,0.845l-0.68,0.68c-0.231,0.231-0.614,0.231-0.845,0c-0.119-0.119-0.31-0.119-0.429,0l-3.286,3.286
			c-0.119,0.119-0.119,0.317,0,0.435s0.139,0.31,0.04,0.455c-4.243,6.269-1.234,9.337-1.234,9.337
			c0.376-2.745,2.692-5.292,4.962-5.596C692.257,350.771,692.349,350.771,692.429,350.778z"/>
		<path fill="none" stroke="#FFFFFF" stroke-linecap="round" stroke-linejoin="round" stroke-miterlimit="10" d="M714.435,364.404
			l-17.018-15.731l-3.088,3.088l15.725,17.018c0.864,0.924,2.323,0.95,3.22,0.053l1.214-1.214
			C715.385,366.727,715.359,365.269,714.435,364.404z"/>
		<path fill="none" stroke="#FFFFFF" stroke-linecap="round" stroke-linejoin="round" stroke-miterlimit="10" d="M691.769,365.381
			c-0.944,0.944-0.944,2.468,0,3.412l0,0c0.944,0.944,2.468,0.944,3.411,0l6.77-6.77l-3.279-3.543L691.769,365.381z"/>
		<path fill="none" stroke="#FFFFFF" stroke-linecap="round" stroke-linejoin="round" stroke-miterlimit="10" d="M717.688,347.162
			L714,350.85c-0.284,0.284-0.713,0.376-1.089,0.238l-2.065-0.772c-0.277-0.106-0.501-0.323-0.6-0.6l-0.772-2.065
			c-0.139-0.376-0.046-0.805,0.238-1.089l3.689-3.689c-1.94-0.475-4.071,0.046-5.576,1.57c-1.656,1.676-2.092,4.118-1.313,6.196
			l-2.382,2.382l3.543,3.28l2.244-2.244c2.092,0.792,4.547,0.343,6.229-1.34C717.649,351.207,718.163,349.089,717.688,347.162z"/>
	</g>
</g>
<g id="add_test_data_cappello_3">
	<circle fill="#D02517" cx="638.305" cy="354.637" r="23.225"/>
	<g>
		<path fill="none" stroke="#FFFFFF" stroke-miterlimit="10" d="M648.171,354.754c-0.081-0.879-0.165-1.902-0.242-3.02
			c-0.247-3.59-2.092-6.859-3.282-7.486c-0.235-0.124-0.602-0.149-1.042-0.112c-1.788,0.152-4.818,1.354-5.449,1.352
			c-0.48-0.001-2.474-0.488-4.22-0.598c-1.109-0.07-2.119,0.012-2.578,0.469c-0.717,0.713-1.295,4.84-1.639,7.973
			c-4.405,0.727-7.381,2.288-7.529,4.297c-0.237,3.215,6.861,6.358,15.853,7.021c8.992,0.663,16.474-1.406,16.711-4.621
			C654.9,358.059,652.286,356.116,648.171,354.754z"/>
		<g>
			<path fill="#FFFFFF" d="M629.21,357.757l0.186-1.809c0.027,0.016,3.256,1.785,9.63,2.123c6.621,0.351,9.411-1.05,9.411-1.05
				l0.336,1.65c-0.614,0.49-2.53,1.84-9.833,1.453C634.345,359.881,630.51,358.567,629.21,357.757z"/>
		</g>
		<line fill="none" stroke="#FFFFFF" stroke-miterlimit="10" x1="629.211" y1="357.756" x2="629.72" y2="353.333"/>
		<line fill="none" stroke="#FFFFFF" stroke-miterlimit="10" x1="648.171" y1="354.754" x2="648.448" y2="358.475"/>
	</g>
</g>
<g id="determine_expected_results_lavagna_4">
	<circle fill="#514998" cx="447.113" cy="354.776" r="23.692"/>
	<g>
		<path fill="#FFFFFF" d="M434.588,342.696v22.438h17.128c0-0.486,0-0.972,0-1.458h-15.84v-19.522h22.535v11.13
			c0.418,0,0.852,0,1.288,0v-12.588H434.588z"/>

			<line fill="#FFFFFF" stroke="#FFFFFF" stroke-linecap="round" stroke-miterlimit="10" x1="451.428" y1="355.596" x2="462.122" y2="366.29"/>
	</g>
</g>
<g id="determine_expected_results_tools_4">
	<g id="Tools_1_3_">
		<circle fill="#72B62B" cx="383.824" cy="354.949" r="23.176"/>
	</g>
	<g>
		<path fill="none" stroke="#FFFFFF" stroke-linecap="round" stroke-linejoin="round" stroke-miterlimit="10" d="M374.63,350.778
			c0.086,0.007,0.172,0.026,0.251,0.066c0.119,0.066,0.264,0.046,0.363-0.053l3.24-3.24c0.145-0.145,0.145-0.383,0-0.528
			c-0.178-0.178-0.178-0.469,0-0.647l0.884-0.884c0.178-0.178,0.469-0.178,0.647,0l0.264,0.264l2.112-2.112
			c0.508-0.508,0.508-1.326,0-1.828l-2.811-2.811c-0.508-0.508-1.326-0.508-1.828,0l-2.112,2.112l0.218,0.218
			c0.231,0.231,0.231,0.614,0,0.845l-0.68,0.68c-0.231,0.231-0.614,0.231-0.845,0c-0.119-0.119-0.31-0.119-0.429,0l-3.286,3.286
			c-0.119,0.119-0.119,0.317,0,0.435s0.139,0.31,0.04,0.455c-4.243,6.269-1.234,9.337-1.234,9.337
			c0.376-2.745,2.692-5.292,4.962-5.596C374.459,350.771,374.551,350.771,374.63,350.778z"/>
		<path fill="none" stroke="#FFFFFF" stroke-linecap="round" stroke-linejoin="round" stroke-miterlimit="10" d="M396.637,364.404
			l-17.018-15.731l-3.088,3.088l15.725,17.018c0.864,0.924,2.323,0.95,3.22,0.053l1.214-1.214
			C397.587,366.727,397.561,365.269,396.637,364.404z"/>
		<path fill="none" stroke="#FFFFFF" stroke-linecap="round" stroke-linejoin="round" stroke-miterlimit="10" d="M373.97,365.381
			c-0.944,0.944-0.944,2.468,0,3.412l0,0c0.944,0.944,2.468,0.944,3.411,0l6.77-6.77l-3.28-3.543L373.97,365.381z"/>
		<path fill="none" stroke="#FFFFFF" stroke-linecap="round" stroke-linejoin="round" stroke-miterlimit="10" d="M399.89,347.162
			l-3.689,3.689c-0.284,0.284-0.713,0.376-1.089,0.238l-2.065-0.772c-0.277-0.106-0.501-0.323-0.6-0.6l-0.772-2.065
			c-0.139-0.376-0.046-0.805,0.238-1.089l3.689-3.689c-1.94-0.475-4.071,0.046-5.576,1.57c-1.656,1.676-2.092,4.118-1.313,6.196
			l-2.382,2.382l3.543,3.28l2.244-2.244c2.092,0.792,4.546,0.343,6.229-1.34C399.85,351.207,400.365,349.089,399.89,347.162z"/>
	</g>
</g>
<g id="determine_expected_results_cappello_4">
	<circle fill="#D02517" cx="320.507" cy="354.637" r="23.225"/>
	<g>
		<path fill="none" stroke="#FFFFFF" stroke-miterlimit="10" d="M330.373,354.754c-0.081-0.879-0.165-1.902-0.242-3.02
			c-0.246-3.59-2.092-6.859-3.282-7.486c-0.235-0.124-0.602-0.149-1.042-0.112c-1.788,0.152-4.818,1.354-5.449,1.352
			c-0.48-0.001-2.474-0.488-4.22-0.598c-1.109-0.07-2.119,0.012-2.578,0.469c-0.717,0.713-1.295,4.84-1.639,7.973
			c-4.405,0.727-7.381,2.288-7.529,4.297c-0.237,3.215,6.861,6.358,15.853,7.021c8.992,0.663,16.474-1.406,16.711-4.621
			C337.101,358.059,334.487,356.116,330.373,354.754z"/>
		<g>
			<path fill="#FFFFFF" d="M311.412,357.757l0.186-1.809c0.027,0.016,3.256,1.785,9.63,2.123c6.621,0.351,9.411-1.05,9.411-1.05
				l0.336,1.65c-0.614,0.49-2.53,1.84-9.833,1.453C316.546,359.881,312.712,358.567,311.412,357.757z"/>
		</g>
		<line fill="none" stroke="#FFFFFF" stroke-miterlimit="10" x1="311.412" y1="357.756" x2="311.921" y2="353.333"/>
		<line fill="none" stroke="#FFFFFF" stroke-miterlimit="10" x1="330.373" y1="354.754" x2="330.65" y2="358.475"/>
	</g>
</g>
</svg>
