<?xml version="1.0" encoding="utf-8"?>
<!-- Generator: Adobe Illustrator 17.0.0, SVG Export Plug-In . SVG Version: 6.00 Build 0)  -->
<!DOCTYPE svg PUBLIC "-//W3C//DTD SVG 1.1//EN" "http://www.w3.org/Graphics/SVG/1.1/DTD/svg11.dtd">
<svg version="1.1" id="Livello_1" xmlns="http://www.w3.org/2000/svg" xmlns:xlink="http://www.w3.org/1999/xlink" x="0px" y="0px"
	 width="920.263px" height="633.285px" viewBox="0 0 920.263 633.285" enable-background="new 0 0 920.263 633.285"
	 xml:space="preserve">
<g id="freccia_1">
	<g>

			<line fill="none" stroke="#000000" stroke-width="2" stroke-linecap="round" stroke-miterlimit="10" x1="253.62" y1="147" x2="319.083" y2="147"/>
		<g>
			<polygon points="316.749,154.978 330.564,147.001 316.749,139.023 			"/>
		</g>
	</g>
</g>
<g id="freccia_4">
	<g>

			<line fill="none" stroke="#000000" stroke-width="2" stroke-linecap="round" stroke-miterlimit="10" x1="270.806" y1="447.84" x2="319.429" y2="491.672"/>
		<g>
			<polygon points="312.353,496.035 327.956,499.36 323.036,484.184 			"/>
		</g>
	</g>
</g>
<g id="freccia_5">
	<g>

			<line fill="none" stroke="#000000" stroke-width="2" stroke-linecap="round" stroke-miterlimit="10" x1="628.821" y1="447.84" x2="580.198" y2="491.672"/>
		<g>
			<polygon points="576.59,484.183 571.67,499.359 587.274,496.034 			"/>
		</g>
	</g>
</g>
<g id="freccia_3">
	<g>

			<line fill="none" stroke="#000000" stroke-width="2" stroke-linecap="round" stroke-miterlimit="10" x1="569.774" y1="375.952" x2="635.237" y2="375.952"/>
		<g>
			<polygon points="632.903,383.93 646.718,375.953 632.903,367.975 			"/>
		</g>
	</g>
</g>
<g id="freccia_3_1_">
	<g>

			<line fill="none" stroke="#000000" stroke-width="2" stroke-linecap="round" stroke-miterlimit="10" x1="330.564" y1="375.952" x2="265.101" y2="375.952"/>
		<g>
			<polygon points="267.435,367.974 253.62,375.951 267.435,383.929 			"/>
		</g>
	</g>
</g>
<g id="match_CQ_with_ontology_design_patterns_ODP_cerchio_1">

		<ellipse fill="#E30D15" stroke="#E30F19" stroke-width="14" stroke-linecap="round" stroke-linejoin="round" stroke-miterlimit="10" cx="442.12" cy="144.483" rx="83.071" ry="65.45"/>

		<ellipse fill="none" stroke="#050A0C" stroke-width="2" stroke-linecap="round" stroke-linejoin="round" stroke-miterlimit="10" cx="447.154" cy="149.518" rx="83.071" ry="65.45"/>
</g>
<g id="match_CQ_with_ontology_design_patterns_ODP">
	<text transform="matrix(1 0 0 1 387.4409 129.4414)"><tspan x="0" y="0" fill="#FFFFFF" font-family="'BebasNeue'" font-size="24.1086">match CQ with</tspan><tspan x="-7.992" y="28.93" fill="#FFFFFF" font-family="'BebasNeue'" font-size="24.1086">ontology design</tspan><tspan x="4.122" y="57.861" fill="#FFFFFF" font-family="'BebasNeue'" font-size="24.1086">patterns ODP</tspan></text>
</g>
<g id="create_the_pattern_cerchio_3">

		<ellipse fill="#E30D15" stroke="#E30F19" stroke-width="14" stroke-linecap="round" stroke-linejoin="round" stroke-miterlimit="10" cx="767.124" cy="371.473" rx="83.071" ry="65.45"/>

		<ellipse fill="none" stroke="#050A0C" stroke-width="2" stroke-linecap="round" stroke-linejoin="round" stroke-miterlimit="10" cx="772.159" cy="376.508" rx="83.071" ry="65.45"/>
</g>
<g id="create_the_pattern">
	<text transform="matrix(1 0 0 1 742.0736 366.4315)"><tspan x="0" y="0" fill="#FFFFFF" font-family="'BebasNeue'" font-size="24.1086">create</tspan><tspan x="-20.636" y="28.93" fill="#FFFFFF" font-family="'BebasNeue'" font-size="24.1086">the pattern</tspan></text>
</g>
<g id="integrate_the_pattern_cerchio_4">

		<ellipse fill="#E30D15" stroke="#E30F19" stroke-width="14" stroke-linecap="round" stroke-linejoin="round" stroke-miterlimit="10" cx="143.689" cy="371.473" rx="83.071" ry="65.45"/>

		<ellipse fill="none" stroke="#050A0C" stroke-width="2" stroke-linecap="round" stroke-linejoin="round" stroke-miterlimit="10" cx="148.724" cy="376.508" rx="83.071" ry="65.45"/>
</g>
<g id="integrate_the_pattern">
	<text transform="matrix(1 0 0 1 105.8624 367.4315)"><tspan x="0" y="0" fill="#FFFFFF" font-family="'BebasNeue'" font-size="24.1086">integrate</tspan><tspan x="-8.86" y="28.93" fill="#FFFFFF" font-family="'BebasNeue'" font-size="24.1086">the pattern</tspan></text>
</g>
<g id="documento">
	<path fill="#293383" stroke="#28347F" stroke-miterlimit="10" d="M224.578,190.897c0,2.86-1.591,5.178-3.553,5.178H104.576
		c-1.962,0-3.553-2.318-3.553-5.178v-95.97c0-2.86,1.591-5.178,3.553-5.178h116.449c1.962,0,3.553,2.318,3.553,5.178V190.897z"/>
	<path fill="none" stroke="#000000" stroke-width="2" stroke-miterlimit="10" d="M222.291,194.039c0,2.86-1.591,5.178-3.553,5.178
		H102.289c-1.962,0-3.553-2.318-3.553-5.178v-95.97c0-2.86,1.591-5.178,3.553-5.178h116.449c1.962,0,3.553,2.318,3.553,5.178
		V194.039z"/>
	<g>
		<path fill="#FFFFFF" d="M183.621,128.357c0.006-2.322-0.584-4.282-2.024-5.926c-2.111-2.408-4.204-4.836-6.318-7.24
			c-1.414-1.608-3.121-2.4-5.142-2.396c-8.84,0.017-17.68,0.006-26.52,0.01c-0.4,0-0.808-0.001-1.2,0.077
			c-3.57,0.707-5.914,3.864-5.918,7.983c-0.007,8.388-0.002,16.775-0.002,25.163c0,8.502,0,17.003,0.001,25.504
			c0,0.091,0.003,0.182,0.005,0.273c0.086,4.026,3.069,7.475,6.613,7.486c11.271,0.033,22.542,0.014,33.813,0.011
			c0.895,0,1.756-0.22,2.562-0.658c2.842-1.546,4.116-4.172,4.115-7.689C183.601,156.756,183.587,142.557,183.621,128.357z
			 M171.704,115.966c0.689,0.296,1.28,0.745,1.798,1.332c2.07,2.352,4.141,4.702,6.214,7.051c0.547,0.62,0.977,1.319,1.227,2.158
			c0.119,0.4,0.028,0.522-0.341,0.52c-2.769-0.011-5.538,0.002-8.308-0.013c-0.742-0.004-1.085-0.428-1.091-1.288
			c-0.01-1.548-0.003-3.096-0.003-4.644c0-1.571,0.015-3.142-0.009-4.712C171.184,115.865,171.317,115.8,171.704,115.966z
			 M181.195,171.063c-0.001,2.713-1.294,4.697-3.412,5.267c-0.29,0.078-0.596,0.107-0.894,0.107
			c-11.112,0.004-22.224,0.005-33.336-0.002c-2.164-0.001-3.813-1.405-4.327-3.655c-0.132-0.577-0.16-1.167-0.16-1.762
			c0.002-8.32,0.001-16.641,0.001-24.961c0-8.389-0.003-16.778,0.002-25.167c0.001-2.54,1.246-4.463,3.282-5.112
			c0.487-0.155,0.985-0.199,1.489-0.196c8.097,0.033,16.194,0.069,24.292,0.079c0.499,0.001,0.586,0.184,0.583,0.695
			c-0.019,3.032-0.01,6.064-0.009,9.095c0.001,2.762,1.472,4.441,3.891,4.442c2.652,0.001,5.305,0.013,7.957-0.011
			c0.473-0.004,0.656,0.092,0.655,0.695C181.193,144.072,181.199,157.568,181.195,171.063z"/>
		<path fill="#FFFFFF" d="M163.7,163.705c2.45,0,4.899,0.002,7.349-0.002c0.305-0.001,0.606,0.01,0.88,0.172
			c0.512,0.304,0.787,0.792,0.725,1.446c-0.061,0.644-0.388,1.096-0.956,1.255c-0.25,0.07-0.517,0.082-0.776,0.082
			c-4.819,0.005-9.638,0.003-14.457,0.003c-0.12,0-0.241,0.005-0.361-0.004c-0.891-0.064-1.413-0.632-1.393-1.511
			c0.02-0.854,0.597-1.437,1.46-1.439C158.68,163.701,161.19,163.706,163.7,163.705z"/>
		<path fill="#FFFFFF" d="M163.695,141.239c-2.408,0-4.816,0.002-7.224-0.002c-0.239,0-0.484-0.003-0.717-0.059
			c-0.648-0.156-1.057-0.746-1.043-1.459c0.014-0.702,0.461-1.287,1.1-1.417c0.156-0.032,0.32-0.025,0.48-0.025
			c4.916-0.001,9.832,0.002,14.748-0.004c0.598-0.001,1.115,0.151,1.433,0.785c0.418,0.832,0.086,1.788-0.72,2.086
			c-0.253,0.094-0.512,0.097-0.773,0.097C168.551,141.239,166.123,141.239,163.695,141.239z"/>
		<path fill="#FFFFFF" d="M163.666,153.98c-2.492,0-4.983-0.003-7.475,0.002c-0.615,0.001-1.102-0.235-1.366-0.899
			c-0.319-0.804,0.051-1.73,0.8-1.962c0.266-0.082,0.556-0.098,0.834-0.098c4.803-0.006,9.605-0.004,14.408-0.004
			c0.08,0,0.161-0.002,0.241,0.001c0.917,0.03,1.552,0.648,1.558,1.514c0.006,0.863-0.626,1.444-1.585,1.445
			C168.609,153.982,166.137,153.98,163.666,153.98z"/>
		<path fill="#FFFFFF" d="M149.614,167.39c-0.281,0-0.563,0.017-0.843-0.005c-0.269-0.021-0.522-0.152-0.688-0.383
			c-0.693-0.964-0.475-2.1-0.283-3.134c0.16-0.862,0.915-0.957,1.619-0.954c1.882,0.009,2.185,0.337,2.184,2.432
			C151.602,167.053,151.264,167.404,149.614,167.39z"/>
		<path fill="#FFFFFF" d="M149.637,141.969c-0.261,0-0.524,0.02-0.783-0.004c-0.636-0.059-1.105-0.545-1.149-1.254
			c-0.039-0.635-0.038-1.277-0.001-1.912c0.04-0.686,0.482-1.191,1.089-1.24c0.559-0.045,1.126-0.047,1.685-0.001
			c0.625,0.051,1.064,0.619,1.111,1.385c0.028,0.454,0.017,0.911,0.011,1.367c-0.013,1.137-0.472,1.652-1.482,1.672
			c-0.161,0.003-0.321,0-0.482,0C149.637,141.978,149.637,141.973,149.637,141.969z"/>
		<path fill="#FFFFFF" d="M149.669,150.268c0.423,0.039,0.852-0.083,1.244,0.174c0.502,0.33,0.729,0.835,0.687,1.476
			c-0.06,0.91,0.33,2.045-0.632,2.577c-0.821,0.453-1.795,0.437-2.619,0.018c-0.982-0.5-0.607-1.643-0.665-2.554
			c-0.042-0.662,0.147-1.204,0.696-1.532C148.795,150.179,149.244,150.316,149.669,150.268z"/>
	</g>
</g>
<g id="ODP_found">
	<text transform="matrix(1 0 0 1 437.6811 371.5947)"><tspan x="0" y="0" fill="#E2131B" font-family="'BebasNeue'" font-size="20.6503">ODP</tspan><tspan x="-8.177" y="24.78" fill="#E2131B" font-family="'BebasNeue'" font-size="20.6503">found</tspan></text>
</g>
<ellipse id="cerchio_2" fill="none" stroke="#E2131B" stroke-width="2" stroke-linecap="round" stroke-linejoin="round" stroke-miterlimit="10" cx="449.875" cy="375.952" rx="63.851" ry="49.481"/>
<g id="freccia_2">
	<g>

			<line fill="none" stroke="#000000" stroke-width="2" stroke-linecap="round" stroke-miterlimit="10" x1="449.875" y1="232.466" x2="449.875" y2="297.93"/>
		<g>
			<polygon points="441.897,295.595 449.874,309.411 457.852,295.595 			"/>
		</g>
	</g>
</g>
<g id="No">
	<path fill="#E30F19" stroke="#E30F19" stroke-miterlimit="10" d="M608.246,357.445c0,0.667-0.371,1.207-0.828,1.207h-27.145
		c-0.457,0-0.828-0.54-0.828-1.207v-22.371c0-0.667,0.371-1.207,0.828-1.207h27.145c0.457,0,0.828,0.54,0.828,1.207V357.445z"/>
	<g>
		<text transform="matrix(1 0 0 1 585.7719 353.722)" font-family="'BebasNeue'" font-size="20.6503">NO</text>
	</g>
</g>
<g id="Yes">
	<path fill="#44AC35" stroke="#41AB34" stroke-miterlimit="10" d="M320.893,357.445c0,0.667-0.371,1.207-0.828,1.207H292.92
		c-0.457,0-0.828-0.54-0.828-1.207v-22.371c0-0.667,0.371-1.207,0.828-1.207h27.145c0.457,0,0.828,0.54,0.828,1.207V357.445z"/>
	<g>
		<text transform="matrix(1 0 0 1 295.167 353.722)" font-family="'BebasNeue'" font-size="20.6503">YES</text>
	</g>
</g>
<g id="grafo">
	<path fill="#FAB537" d="M512.797,587.649c0,2.86-1.591,5.178-3.553,5.178H392.794c-1.962,0-3.553-2.318-3.553-5.178v-95.97
		c0-2.86,1.591-5.178,3.553-5.178h116.449c1.962,0,3.553,2.318,3.553,5.178V587.649z"/>
	<path fill="none" stroke="#000000" stroke-width="2" stroke-miterlimit="10" d="M510.51,590.791c0,2.86-1.591,5.178-3.553,5.178
		H390.507c-1.962,0-3.553-2.318-3.553-5.178v-95.97c0-2.86,1.591-5.178,3.553-5.178h116.449c1.962,0,3.553,2.318,3.553,5.178
		V590.791z"/>
	<g>
		<ellipse fill="#FFFFFF" stroke="#FFFFFF" stroke-miterlimit="10" cx="418.063" cy="525.388" rx="13.436" ry="12.287"/>
		<ellipse fill="#FFFFFF" stroke="#FFFFFF" stroke-miterlimit="10" cx="479.485" cy="541.185" rx="11.517" ry="10.532"/>
		<ellipse fill="#FFFFFF" stroke="#FFFFFF" stroke-miterlimit="10" cx="443.496" cy="558.834" rx="11.997" ry="10.971"/>
		<line fill="none" stroke="#FFFFFF" stroke-miterlimit="10" x1="423.722" y1="525.388" x2="477.141" y2="541.185"/>
		<line fill="none" stroke="#FFFFFF" stroke-miterlimit="10" x1="477.141" y1="541.185" x2="443.496" y2="560.737"/>
		<line fill="none" stroke="#FFFFFF" stroke-miterlimit="10" x1="443.496" y1="560.737" x2="423.722" y2="530.654"/>
	</g>
</g>
<g id="lavagna_1">
	<circle fill="#514998" cx="506.565" cy="44.602" r="23.692"/>
	<g>
		<path fill="#FFFFFF" d="M494.04,32.522V54.96h17.128c0-0.486,0-0.972,0-1.458h-15.84V33.98h22.535v11.13c0.418,0,0.852,0,1.288,0
			V32.522H494.04z"/>

			<line fill="#FFFFFF" stroke="#FFFFFF" stroke-linecap="round" stroke-miterlimit="10" x1="510.88" y1="45.421" x2="521.574" y2="56.116"/>
	</g>
</g>
<g id="tools_1">
	<g id="Tools_1_3_">
		<circle fill="#72B62B" cx="443.276" cy="44.775" r="23.176"/>
	</g>
	<g>
		<path fill="none" stroke="#FFFFFF" stroke-linecap="round" stroke-linejoin="round" stroke-miterlimit="10" d="M434.082,40.604
			c0.086,0.007,0.172,0.026,0.251,0.066c0.119,0.066,0.264,0.046,0.363-0.053l3.24-3.24c0.145-0.145,0.145-0.383,0-0.528
			c-0.178-0.178-0.178-0.469,0-0.647l0.884-0.884c0.178-0.178,0.469-0.178,0.647,0l0.264,0.264l2.112-2.112
			c0.508-0.508,0.508-1.326,0-1.828l-2.811-2.811c-0.508-0.508-1.326-0.508-1.828,0l-2.112,2.112l0.218,0.218
			c0.231,0.231,0.231,0.614,0,0.845l-0.68,0.68c-0.231,0.231-0.614,0.231-0.845,0c-0.119-0.119-0.31-0.119-0.429,0l-3.286,3.286
			c-0.119,0.119-0.119,0.317,0,0.436c0.119,0.119,0.139,0.31,0.04,0.455c-4.243,6.269-1.234,9.337-1.234,9.337
			c0.376-2.745,2.692-5.292,4.962-5.596C433.911,40.597,434.003,40.597,434.082,40.604z"/>
		<path fill="none" stroke="#FFFFFF" stroke-linecap="round" stroke-linejoin="round" stroke-miterlimit="10" d="M456.089,54.23
			l-17.018-15.731l-3.088,3.088l15.725,17.018c0.864,0.924,2.323,0.95,3.22,0.053l1.214-1.214
			C457.039,56.553,457.013,55.094,456.089,54.23z"/>
		<path fill="none" stroke="#FFFFFF" stroke-linecap="round" stroke-linejoin="round" stroke-miterlimit="10" d="M433.423,55.206
			c-0.944,0.944-0.944,2.468,0,3.412l0,0c0.944,0.944,2.468,0.944,3.411,0l6.77-6.77l-3.28-3.543L433.423,55.206z"/>
		<path fill="none" stroke="#FFFFFF" stroke-linecap="round" stroke-linejoin="round" stroke-miterlimit="10" d="M459.342,36.987
			l-3.689,3.689c-0.284,0.284-0.713,0.376-1.089,0.238l-2.065-0.772c-0.277-0.106-0.501-0.323-0.6-0.6l-0.772-2.065
			c-0.139-0.376-0.046-0.805,0.238-1.089l3.689-3.689c-1.94-0.475-4.071,0.046-5.576,1.57c-1.656,1.676-2.092,4.118-1.313,6.196
			l-2.382,2.382l3.543,3.28l2.244-2.244c2.092,0.792,4.546,0.343,6.229-1.34C459.303,41.032,459.817,38.914,459.342,36.987z"/>
	</g>
</g>
<g id="cappello_1">
	<circle fill="#D02517" cx="379.959" cy="44.462" r="23.225"/>
	<g>
		<path fill="none" stroke="#FFFFFF" stroke-miterlimit="10" d="M389.825,44.58c-0.081-0.879-0.165-1.902-0.242-3.02
			c-0.246-3.59-2.092-6.859-3.282-7.486c-0.235-0.124-0.602-0.149-1.042-0.112c-1.788,0.152-4.818,1.354-5.449,1.352
			c-0.48-0.001-2.474-0.488-4.22-0.598c-1.109-0.07-2.119,0.012-2.578,0.469c-0.717,0.713-1.295,4.84-1.639,7.973
			c-4.405,0.727-7.381,2.288-7.529,4.297c-0.237,3.215,6.861,6.358,15.853,7.021c8.992,0.663,16.474-1.406,16.711-4.621
			C396.553,47.885,393.94,45.942,389.825,44.58z"/>
		<g>
			<path fill="#FFFFFF" d="M370.864,47.583l0.186-1.808c0.027,0.016,3.256,1.785,9.63,2.123c6.621,0.351,9.411-1.05,9.411-1.05
				l0.336,1.65c-0.614,0.49-2.53,1.84-9.833,1.453C375.999,49.707,372.164,48.393,370.864,47.583z"/>
		</g>
		<line fill="none" stroke="#FFFFFF" stroke-miterlimit="10" x1="370.864" y1="47.581" x2="371.373" y2="43.159"/>
		<line fill="none" stroke="#FFFFFF" stroke-miterlimit="10" x1="389.825" y1="44.58" x2="390.102" y2="48.301"/>
	</g>
</g>
<g id="lavagna_2">
	<circle fill="#514998" cx="830.193" cy="265.576" r="23.692"/>
	<g>
		<path fill="#FFFFFF" d="M817.668,253.497v22.438h17.128c0-0.486,0-0.972,0-1.458h-15.84v-19.522h22.535v11.13
			c0.418,0,0.852,0,1.288,0v-12.588H817.668z"/>

			<line fill="#FFFFFF" stroke="#FFFFFF" stroke-linecap="round" stroke-miterlimit="10" x1="834.508" y1="266.396" x2="845.202" y2="277.09"/>
	</g>
</g>
<g id="tools_2">
	<g id="Tools_1_1_">
		<circle fill="#72B62B" cx="766.905" cy="265.749" r="23.176"/>
	</g>
	<g>
		<path fill="none" stroke="#FFFFFF" stroke-linecap="round" stroke-linejoin="round" stroke-miterlimit="10" d="M757.711,261.578
			c0.086,0.007,0.172,0.026,0.251,0.066c0.119,0.066,0.264,0.046,0.363-0.053l3.24-3.24c0.145-0.145,0.145-0.383,0-0.528
			c-0.178-0.178-0.178-0.469,0-0.647l0.884-0.884c0.178-0.178,0.469-0.178,0.647,0l0.264,0.264l2.112-2.112
			c0.508-0.508,0.508-1.326,0-1.828l-2.811-2.811c-0.508-0.508-1.326-0.508-1.828,0l-2.112,2.112l0.218,0.218
			c0.231,0.231,0.231,0.614,0,0.845l-0.68,0.68c-0.231,0.231-0.614,0.231-0.845,0c-0.119-0.119-0.31-0.119-0.429,0l-3.286,3.286
			c-0.119,0.119-0.119,0.317,0,0.435s0.139,0.31,0.04,0.455c-4.243,6.269-1.234,9.337-1.234,9.337
			c0.376-2.745,2.692-5.292,4.962-5.596C757.539,261.571,757.632,261.571,757.711,261.578z"/>
		<path fill="none" stroke="#FFFFFF" stroke-linecap="round" stroke-linejoin="round" stroke-miterlimit="10" d="M779.717,275.204
			l-17.018-15.731l-3.088,3.088l15.725,17.018c0.864,0.924,2.323,0.95,3.22,0.053l1.214-1.214
			C780.668,277.527,780.641,276.069,779.717,275.204z"/>
		<path fill="none" stroke="#FFFFFF" stroke-linecap="round" stroke-linejoin="round" stroke-miterlimit="10" d="M757.051,276.181
			c-0.944,0.944-0.944,2.468,0,3.412l0,0c0.944,0.944,2.468,0.944,3.411,0l6.77-6.77l-3.28-3.543L757.051,276.181z"/>
		<path fill="none" stroke="#FFFFFF" stroke-linecap="round" stroke-linejoin="round" stroke-miterlimit="10" d="M782.971,257.962
			l-3.689,3.689c-0.284,0.284-0.713,0.376-1.089,0.238l-2.065-0.772c-0.277-0.106-0.501-0.323-0.6-0.6l-0.772-2.065
			c-0.139-0.376-0.046-0.805,0.238-1.089l3.689-3.689c-1.94-0.475-4.071,0.046-5.576,1.57c-1.656,1.676-2.092,4.118-1.313,6.196
			l-2.382,2.382l3.543,3.28l2.244-2.244c2.092,0.792,4.547,0.343,6.229-1.34C782.931,262.007,783.446,259.889,782.971,257.962z"/>
	</g>
</g>
<g id="cappello_2">
	<circle fill="#D02517" cx="703.587" cy="265.437" r="23.225"/>
	<g>
		<path fill="none" stroke="#FFFFFF" stroke-miterlimit="10" d="M713.454,265.554c-0.081-0.879-0.165-1.902-0.242-3.02
			c-0.247-3.59-2.092-6.859-3.282-7.486c-0.235-0.124-0.602-0.149-1.042-0.112c-1.788,0.152-4.818,1.354-5.449,1.352
			c-0.48-0.001-2.474-0.488-4.22-0.598c-1.109-0.07-2.119,0.012-2.578,0.469c-0.717,0.713-1.295,4.84-1.639,7.973
			c-4.405,0.727-7.381,2.288-7.529,4.297c-0.237,3.215,6.861,6.358,15.853,7.021c8.992,0.663,16.474-1.406,16.711-4.621
			C720.182,268.86,717.568,266.917,713.454,265.554z"/>
		<g>
			<path fill="#FFFFFF" d="M694.492,268.557l0.186-1.809c0.027,0.016,3.256,1.785,9.63,2.123c6.621,0.351,9.411-1.05,9.411-1.05
				l0.336,1.65c-0.614,0.49-2.53,1.84-9.833,1.453C699.627,270.682,695.792,269.367,694.492,268.557z"/>
		</g>
		<line fill="none" stroke="#FFFFFF" stroke-miterlimit="10" x1="694.493" y1="268.556" x2="695.002" y2="264.133"/>
		<line fill="none" stroke="#FFFFFF" stroke-miterlimit="10" x1="713.454" y1="265.554" x2="713.73" y2="269.275"/>
	</g>
</g>
<g id="lavagna_4_2_">
	<circle fill="#514998" cx="206.758" cy="265.576" r="23.692"/>
	<g>
		<path fill="#FFFFFF" d="M194.233,253.497v22.438h17.128c0-0.486,0-0.972,0-1.458h-15.84v-19.522h22.535v11.13
			c0.418,0,0.852,0,1.288,0v-12.588H194.233z"/>

			<line fill="#FFFFFF" stroke="#FFFFFF" stroke-linecap="round" stroke-miterlimit="10" x1="211.073" y1="266.396" x2="221.768" y2="277.09"/>
	</g>
</g>
<g id="tools_3">
	<g id="Tools_1_2_">
		<circle fill="#72B62B" cx="143.47" cy="265.749" r="23.176"/>
	</g>
	<g>
		<path fill="none" stroke="#FFFFFF" stroke-linecap="round" stroke-linejoin="round" stroke-miterlimit="10" d="M134.276,261.578
			c0.086,0.007,0.172,0.026,0.251,0.066c0.119,0.066,0.264,0.046,0.363-0.053l3.24-3.24c0.145-0.145,0.145-0.383,0-0.528
			c-0.178-0.178-0.178-0.469,0-0.647l0.884-0.884c0.178-0.178,0.469-0.178,0.647,0l0.264,0.264l2.112-2.112
			c0.508-0.508,0.508-1.326,0-1.828l-2.811-2.811c-0.508-0.508-1.326-0.508-1.828,0l-2.112,2.112l0.218,0.218
			c0.231,0.231,0.231,0.614,0,0.845l-0.68,0.68c-0.231,0.231-0.614,0.231-0.845,0c-0.119-0.119-0.31-0.119-0.429,0l-3.286,3.286
			c-0.119,0.119-0.119,0.317,0,0.435s0.139,0.31,0.04,0.455c-4.243,6.269-1.234,9.337-1.234,9.337
			c0.376-2.745,2.692-5.292,4.962-5.596C134.104,261.571,134.197,261.571,134.276,261.578z"/>
		<path fill="none" stroke="#FFFFFF" stroke-linecap="round" stroke-linejoin="round" stroke-miterlimit="10" d="M156.283,275.204
			l-17.018-15.731l-3.088,3.088l15.725,17.018c0.864,0.924,2.323,0.95,3.22,0.053l1.214-1.214
			C157.233,277.527,157.206,276.069,156.283,275.204z"/>
		<path fill="none" stroke="#FFFFFF" stroke-linecap="round" stroke-linejoin="round" stroke-miterlimit="10" d="M133.616,276.181
			c-0.944,0.944-0.944,2.468,0,3.412l0,0c0.944,0.944,2.468,0.944,3.412,0l6.77-6.77l-3.28-3.543L133.616,276.181z"/>
		<path fill="none" stroke="#FFFFFF" stroke-linecap="round" stroke-linejoin="round" stroke-miterlimit="10" d="M159.536,257.962
			l-3.689,3.689c-0.284,0.284-0.713,0.376-1.089,0.238l-2.065-0.772c-0.277-0.106-0.501-0.323-0.6-0.6l-0.772-2.065
			c-0.139-0.376-0.046-0.805,0.238-1.089l3.689-3.689c-1.94-0.475-4.071,0.046-5.576,1.57c-1.656,1.676-2.092,4.118-1.313,6.196
			l-2.382,2.382l3.543,3.28l2.244-2.244c2.092,0.792,4.546,0.343,6.229-1.34C159.496,262.007,160.011,259.889,159.536,257.962z"/>
	</g>
</g>
<g id="cappello_3">
	<circle fill="#D02517" cx="80.152" cy="265.437" r="23.225"/>
	<g>
		<path fill="none" stroke="#FFFFFF" stroke-miterlimit="10" d="M90.019,265.554c-0.081-0.879-0.165-1.902-0.242-3.02
			c-0.246-3.59-2.092-6.859-3.282-7.486c-0.235-0.124-0.602-0.149-1.042-0.112c-1.788,0.152-4.818,1.354-5.449,1.352
			c-0.48-0.001-2.474-0.488-4.22-0.598c-1.109-0.07-2.119,0.012-2.578,0.469c-0.717,0.713-1.295,4.84-1.639,7.973
			c-4.405,0.727-7.381,2.288-7.529,4.297c-0.237,3.215,6.861,6.358,15.853,7.021c8.992,0.663,16.474-1.406,16.711-4.621
			C96.747,268.86,94.133,266.917,90.019,265.554z"/>
		<g>
			<path fill="#FFFFFF" d="M71.057,268.557l0.186-1.809c0.027,0.016,3.256,1.785,9.63,2.123c6.621,0.351,9.411-1.05,9.411-1.05
				l0.336,1.65c-0.614,0.49-2.53,1.84-9.833,1.453C76.192,270.682,72.357,269.367,71.057,268.557z"/>
		</g>
		<line fill="none" stroke="#FFFFFF" stroke-miterlimit="10" x1="71.058" y1="268.556" x2="71.567" y2="264.133"/>
		<line fill="none" stroke="#FFFFFF" stroke-miterlimit="10" x1="90.019" y1="265.554" x2="90.295" y2="269.275"/>
	</g>
</g>
</svg>
