<?xml version="1.0" encoding="utf-8"?>
<!-- Generator: Adobe Illustrator 17.0.0, SVG Export Plug-In . SVG Version: 6.00 Build 0)  -->
<!DOCTYPE svg PUBLIC "-//W3C//DTD SVG 1.1//EN" "http://www.w3.org/Graphics/SVG/1.1/DTD/svg11.dtd">
<svg version="1.1" id="Livello_1" xmlns="http://www.w3.org/2000/svg" xmlns:xlink="http://www.w3.org/1999/xlink" x="0px" y="0px"
	 width="70.442px" height="74.448px" viewBox="0 0 70.442 74.448" enable-background="new 0 0 70.442 74.448" xml:space="preserve">
<g id="cappello_1">
	<circle fill="#D02517" cx="33.067" cy="35.974" r="28.292"/>
	<g>
		<path fill="none" stroke="#FFFFFF" stroke-miterlimit="10" d="M45.086,36.117c-0.098-1.071-0.202-2.317-0.295-3.679
			c-0.3-4.373-2.548-8.356-3.998-9.119c-0.287-0.151-0.733-0.182-1.27-0.136c-2.179,0.185-5.87,1.649-6.638,1.647
			c-0.585-0.002-3.013-0.594-5.141-0.728c-1.351-0.085-2.581,0.015-3.14,0.571c-0.874,0.869-1.578,5.896-1.996,9.713
			c-5.367,0.886-8.992,2.788-9.172,5.235c-0.289,3.916,8.358,7.746,19.312,8.553c10.955,0.807,20.069-1.713,20.358-5.629
			C53.282,40.144,50.098,37.777,45.086,36.117z"/>
		<g>
			<path fill="#FFFFFF" d="M21.987,39.776l0.227-2.203c0.033,0.02,3.966,2.174,11.731,2.586c8.066,0.428,11.464-1.279,11.464-1.279
				l0.41,2.01c-0.748,0.597-3.082,2.242-11.978,1.77C28.242,42.363,23.571,40.762,21.987,39.776z"/>
		</g>
		<line fill="none" stroke="#FFFFFF" stroke-miterlimit="10" x1="21.988" y1="39.774" x2="22.608" y2="34.386"/>
		<line fill="none" stroke="#FFFFFF" stroke-miterlimit="10" x1="45.086" y1="36.117" x2="45.423" y2="40.65"/>
	</g>
</g>
</svg>
