<?xml version="1.0" encoding="utf-8"?>
<!-- Generator: Adobe Illustrator 17.0.0, SVG Export Plug-In . SVG Version: 6.00 Build 0)  -->
<!DOCTYPE svg PUBLIC "-//W3C//DTD SVG 1.1//EN" "http://www.w3.org/Graphics/SVG/1.1/DTD/svg11.dtd">
<svg version="1.1" id="Livello_1" xmlns="http://www.w3.org/2000/svg" xmlns:xlink="http://www.w3.org/1999/xlink" x="0px" y="0px"
	 width="1155.537px" height="506.333px" viewBox="0 0 1155.537 506.333" enable-background="new 0 0 1155.537 506.333"
	 xml:space="preserve">
<g id="grafo">
	<path fill="#FAB537" d="M160.197,208.457c0,2.86-1.591,5.178-3.553,5.178H40.195c-1.962,0-3.553-2.318-3.553-5.178v-95.97
		c0-2.86,1.591-5.178,3.553-5.178h116.449c1.962,0,3.553,2.318,3.553,5.178V208.457z"/>
	<path fill="none" stroke="#000000" stroke-width="2" stroke-miterlimit="10" d="M157.91,211.599c0,2.86-1.591,5.178-3.553,5.178
		H37.908c-1.962,0-3.553-2.318-3.553-5.178v-95.97c0-2.86,1.591-5.178,3.553-5.178h116.449c1.962,0,3.553,2.318,3.553,5.178V211.599
		z"/>
	<g>
		<ellipse fill="#FFFFFF" stroke="#FFFFFF" stroke-miterlimit="10" cx="65.464" cy="146.196" rx="13.436" ry="12.287"/>
		<ellipse fill="#FFFFFF" stroke="#FFFFFF" stroke-miterlimit="10" cx="126.886" cy="161.993" rx="11.517" ry="10.532"/>
		<ellipse fill="#FFFFFF" stroke="#FFFFFF" stroke-miterlimit="10" cx="90.896" cy="179.642" rx="11.997" ry="10.971"/>
		<line fill="none" stroke="#FFFFFF" stroke-miterlimit="10" x1="71.123" y1="146.196" x2="124.542" y2="161.993"/>
		<line fill="none" stroke="#FFFFFF" stroke-miterlimit="10" x1="124.542" y1="161.993" x2="90.896" y2="181.545"/>
		<line fill="none" stroke="#FFFFFF" stroke-miterlimit="10" x1="90.896" y1="181.545" x2="71.123" y2="151.461"/>
	</g>
</g>
<g id="freccia_1">
	<g>

			<line fill="none" stroke="#000000" stroke-width="2" stroke-linecap="round" stroke-miterlimit="10" x1="194.541" y1="168.127" x2="260.005" y2="168.127"/>
		<g>
			<polygon points="257.67,176.105 271.486,168.128 257.67,160.149 			"/>
		</g>
	</g>
</g>
<g id="Substitute_ephemeral_prefixes_cerchio_1">

		<ellipse fill="#D7579B" stroke="#D6579A" stroke-width="5" stroke-linecap="round" stroke-linejoin="round" stroke-miterlimit="10" cx="383.041" cy="165.609" rx="83.071" ry="65.45"/>

		<ellipse fill="none" stroke="#050A0C" stroke-width="2" stroke-linecap="round" stroke-linejoin="round" stroke-miterlimit="10" cx="388.076" cy="170.644" rx="83.071" ry="65.45"/>
</g>
<g id="Substitute_ephemeral_prefixes">
	<text transform="matrix(1 0 0 1 342.4535 150.5679)"><tspan x="0" y="0" fill="#FFFFFF" font-family="'BebasNeue'" font-size="24.1086">Substitute</tspan><tspan x="-0.253" y="28.93" fill="#FFFFFF" font-family="'BebasNeue'" font-size="24.1086">ephemeral</tspan><tspan x="8.715" y="57.861" fill="#FFFFFF" font-family="'BebasNeue'" font-size="24.1086">prefixes</tspan></text>
</g>
<g id="freccia_3">
	<g>

			<line fill="none" stroke="#000000" stroke-width="2" stroke-linecap="round" stroke-miterlimit="10" x1="824.496" y1="168.127" x2="889.959" y2="168.127"/>
		<g>
			<polygon points="887.625,176.105 901.44,168.128 887.625,160.149 			"/>
		</g>
	</g>
</g>
<g id="document_cerchio_3">

		<ellipse fill="#D7579B" stroke="#D6579A" stroke-width="5" stroke-linecap="round" stroke-linejoin="round" stroke-miterlimit="10" cx="1012.995" cy="165.609" rx="83.071" ry="65.45"/>

		<ellipse fill="none" stroke="#050A0C" stroke-width="2" stroke-linecap="round" stroke-linejoin="round" stroke-miterlimit="10" cx="1018.03" cy="170.644" rx="83.071" ry="65.45"/>
</g>
<g id="document">
	<text transform="matrix(1 0 0 1 975.9758 172.7694)" fill="#FFFFFF" font-family="'BebasNeue'" font-size="24.1086">Document</text>
</g>
<g id="freccia_2">
	<g>

			<line fill="none" stroke="#000000" stroke-width="2" stroke-linecap="round" stroke-miterlimit="10" x1="506.629" y1="168.127" x2="572.092" y2="168.127"/>
		<g>
			<polygon points="569.758,176.105 583.574,168.128 569.758,160.149 			"/>
		</g>
	</g>
</g>
<g id="run_test_cerchio_2">

		<ellipse fill="#D7579B" stroke="#D6579A" stroke-width="5" stroke-linecap="round" stroke-linejoin="round" stroke-miterlimit="10" cx="695.129" cy="165.609" rx="83.071" ry="65.45"/>

		<ellipse fill="none" stroke="#050A0C" stroke-width="2" stroke-linecap="round" stroke-linejoin="round" stroke-miterlimit="10" cx="700.164" cy="170.644" rx="83.071" ry="65.45"/>
</g>
<g id="run_test">
	<text transform="matrix(1 0 0 1 663.4612 173.7694)" fill="#FFFFFF" font-family="'BebasNeue'" font-size="24.1086">Run test</text>
</g>
<g id="freccia_4">
	<g>

			<line fill="none" stroke="#000000" stroke-width="2" stroke-linecap="round" stroke-miterlimit="10" x1="697.875" y1="258.466" x2="697.875" y2="323.93"/>
		<g>
			<polygon points="689.897,321.595 697.874,335.411 705.852,321.595 			"/>
		</g>
	</g>
</g>
<g id="grafico">
	<path fill="#8EBF22" d="M763.085,460.435c0,2.86-1.591,5.178-3.553,5.178H643.082c-1.962,0-3.553-2.318-3.553-5.178v-95.97
		c0-2.86,1.591-5.178,3.553-5.178h116.449c1.962,0,3.553,2.318,3.553,5.178V460.435z"/>
	<path fill="none" stroke="#000000" stroke-width="2" stroke-miterlimit="10" d="M760.798,463.577c0,2.86-1.591,5.178-3.553,5.178
		H640.795c-1.962,0-3.553-2.318-3.553-5.178v-95.97c0-2.86,1.591-5.178,3.553-5.178h116.449c1.962,0,3.553,2.318,3.553,5.178
		V463.577z"/>
	<g>
		<g>

				<line fill="none" stroke="#FFFFFF" stroke-width="3" stroke-miterlimit="10" x1="665.296" y1="387.654" x2="665.296" y2="448.911"/>
			<g>
				<polygon fill="#FFFFFF" points="661.557,388.748 665.296,382.272 669.036,388.748 				"/>
			</g>
		</g>
	</g>
	<g>
		<g>

				<line fill="none" stroke="#FFFFFF" stroke-width="3" stroke-miterlimit="10" x1="662.94" y1="448.911" x2="730.58" y2="448.911"/>
			<g>
				<polygon fill="#FFFFFF" points="729.486,452.651 735.962,448.912 729.486,445.172 				"/>
			</g>
		</g>
	</g>
	<polyline fill="none" stroke="#FFFFFF" stroke-width="3" stroke-linecap="round" stroke-miterlimit="10" points="665.296,446.409
		678.351,421.716 694.36,426.058 719.053,406.521 725.022,408.42 738.318,391.055 	"/>
</g>
<g id="lavagna_1">
	<circle fill="#514998" cx="448.628" cy="61.752" r="23.692"/>
	<g>
		<path fill="#FFFFFF" d="M436.103,49.673v22.438h17.128c0-0.486,0-0.972,0-1.458h-15.84V51.131h22.535v11.13
			c0.418,0,0.852,0,1.288,0V49.673H436.103z"/>

			<line fill="#FFFFFF" stroke="#FFFFFF" stroke-linecap="round" stroke-miterlimit="10" x1="452.943" y1="62.572" x2="463.637" y2="73.266"/>
	</g>
</g>
<g id="tools_1">
	<g id="Tools_1_3_">
		<circle fill="#72B62B" cx="385.339" cy="61.925" r="23.176"/>
	</g>
	<g>
		<path fill="none" stroke="#FFFFFF" stroke-linecap="round" stroke-linejoin="round" stroke-miterlimit="10" d="M376.145,57.754
			c0.086,0.007,0.172,0.026,0.251,0.066c0.119,0.066,0.264,0.046,0.363-0.053l3.24-3.24c0.145-0.145,0.145-0.383,0-0.528
			c-0.178-0.178-0.178-0.469,0-0.647l0.884-0.884c0.178-0.178,0.469-0.178,0.647,0l0.264,0.264l2.112-2.112
			c0.508-0.508,0.508-1.326,0-1.828l-2.811-2.811c-0.508-0.508-1.326-0.508-1.828,0l-2.112,2.112l0.218,0.218
			c0.231,0.231,0.231,0.614,0,0.845l-0.68,0.68c-0.231,0.231-0.614,0.231-0.845,0c-0.119-0.119-0.31-0.119-0.429,0l-3.286,3.286
			c-0.119,0.119-0.119,0.317,0,0.436c0.119,0.119,0.139,0.31,0.04,0.455c-4.243,6.269-1.234,9.337-1.234,9.337
			c0.376-2.745,2.692-5.292,4.962-5.596C375.974,57.748,376.066,57.748,376.145,57.754z"/>
		<path fill="none" stroke="#FFFFFF" stroke-linecap="round" stroke-linejoin="round" stroke-miterlimit="10" d="M398.152,71.38
			l-17.018-15.731l-3.088,3.088l15.725,17.018c0.864,0.924,2.323,0.95,3.22,0.053l1.214-1.214
			C399.102,73.703,399.076,72.245,398.152,71.38z"/>
		<path fill="none" stroke="#FFFFFF" stroke-linecap="round" stroke-linejoin="round" stroke-miterlimit="10" d="M375.485,72.357
			c-0.944,0.944-0.944,2.468,0,3.412l0,0c0.944,0.944,2.468,0.944,3.411,0l6.77-6.77l-3.28-3.543L375.485,72.357z"/>
		<path fill="none" stroke="#FFFFFF" stroke-linecap="round" stroke-linejoin="round" stroke-miterlimit="10" d="M401.405,54.138
			l-3.689,3.689c-0.284,0.284-0.713,0.376-1.089,0.238l-2.065-0.772c-0.277-0.106-0.501-0.323-0.6-0.6l-0.772-2.065
			c-0.139-0.376-0.046-0.805,0.238-1.089l3.689-3.689c-1.94-0.475-4.071,0.046-5.576,1.57c-1.656,1.676-2.092,4.118-1.313,6.196
			l-2.382,2.382l3.543,3.28l2.244-2.244c2.092,0.792,4.546,0.343,6.229-1.34C401.365,58.183,401.88,56.065,401.405,54.138z"/>
	</g>
</g>
<g id="cappello_1">
	<circle fill="#D02517" cx="322.022" cy="61.613" r="23.225"/>
	<g>
		<path fill="none" stroke="#FFFFFF" stroke-miterlimit="10" d="M331.888,61.731c-0.081-0.879-0.165-1.902-0.242-3.02
			c-0.247-3.59-2.092-6.859-3.282-7.486c-0.235-0.124-0.602-0.149-1.042-0.112c-1.788,0.152-4.818,1.354-5.449,1.352
			c-0.48-0.001-2.474-0.488-4.22-0.598c-1.109-0.07-2.119,0.012-2.578,0.469c-0.717,0.713-1.295,4.84-1.639,7.973
			c-4.405,0.727-7.381,2.288-7.529,4.297c-0.237,3.215,6.861,6.358,15.853,7.021c8.992,0.663,16.474-1.406,16.711-4.621
			C338.616,65.036,336.002,63.093,331.888,61.731z"/>
		<g>
			<path fill="#FFFFFF" d="M312.927,64.734l0.186-1.808c0.027,0.016,3.256,1.785,9.63,2.123c6.621,0.351,9.411-1.05,9.411-1.05
				l0.336,1.65c-0.614,0.49-2.53,1.84-9.833,1.453C318.061,66.858,314.227,65.544,312.927,64.734z"/>
		</g>
		<line fill="none" stroke="#FFFFFF" stroke-miterlimit="10" x1="312.927" y1="64.732" x2="313.436" y2="60.309"/>
		<line fill="none" stroke="#FFFFFF" stroke-miterlimit="10" x1="331.888" y1="61.731" x2="332.165" y2="65.451"/>
	</g>
</g>
<g id="lavagna_2">
	<circle fill="#514998" cx="1076.065" cy="61.752" r="23.692"/>
	<g>
		<path fill="#FFFFFF" d="M1063.54,49.673v22.438h17.128c0-0.486,0-0.972,0-1.458h-15.84V51.131h22.535v11.13
			c0.418,0,0.852,0,1.288,0V49.673H1063.54z"/>

			<line fill="#FFFFFF" stroke="#FFFFFF" stroke-linecap="round" stroke-miterlimit="10" x1="1080.38" y1="62.572" x2="1091.074" y2="73.266"/>
	</g>
</g>
<g id="tools_2">
	<g id="Tools_1_1_">
		<circle fill="#72B62B" cx="1012.776" cy="61.925" r="23.176"/>
	</g>
	<g>
		<path fill="none" stroke="#FFFFFF" stroke-linecap="round" stroke-linejoin="round" stroke-miterlimit="10" d="M1003.582,57.754
			c0.086,0.007,0.172,0.026,0.251,0.066c0.119,0.066,0.264,0.046,0.363-0.053l3.24-3.24c0.145-0.145,0.145-0.383,0-0.528
			c-0.178-0.178-0.178-0.469,0-0.647l0.884-0.884c0.178-0.178,0.468-0.178,0.647,0l0.264,0.264l2.112-2.112
			c0.508-0.508,0.508-1.326,0-1.828l-2.811-2.811c-0.508-0.508-1.326-0.508-1.828,0l-2.112,2.112l0.218,0.218
			c0.231,0.231,0.231,0.614,0,0.845l-0.68,0.68c-0.231,0.231-0.614,0.231-0.845,0c-0.119-0.119-0.31-0.119-0.429,0l-3.286,3.286
			c-0.119,0.119-0.119,0.317,0,0.436c0.119,0.119,0.139,0.31,0.04,0.455c-4.243,6.269-1.234,9.337-1.234,9.337
			c0.376-2.745,2.692-5.292,4.962-5.596C1003.411,57.748,1003.503,57.748,1003.582,57.754z"/>
		<path fill="none" stroke="#FFFFFF" stroke-linecap="round" stroke-linejoin="round" stroke-miterlimit="10" d="M1025.589,71.38
			l-17.018-15.731l-3.088,3.088l15.725,17.018c0.864,0.924,2.323,0.95,3.22,0.053l1.214-1.214
			C1026.539,73.703,1026.513,72.245,1025.589,71.38z"/>
		<path fill="none" stroke="#FFFFFF" stroke-linecap="round" stroke-linejoin="round" stroke-miterlimit="10" d="M1002.922,72.357
			c-0.944,0.944-0.944,2.468,0,3.412l0,0c0.944,0.944,2.468,0.944,3.412,0l6.77-6.77l-3.28-3.543L1002.922,72.357z"/>
		<path fill="none" stroke="#FFFFFF" stroke-linecap="round" stroke-linejoin="round" stroke-miterlimit="10" d="M1028.842,54.138
			l-3.689,3.689c-0.284,0.284-0.713,0.376-1.089,0.238l-2.065-0.772c-0.277-0.106-0.502-0.323-0.601-0.6l-0.772-2.065
			c-0.139-0.376-0.046-0.805,0.238-1.089l3.689-3.689c-1.94-0.475-4.071,0.046-5.576,1.57c-1.656,1.676-2.092,4.118-1.313,6.196
			l-2.382,2.382l3.544,3.28l2.244-2.244c2.092,0.792,4.547,0.343,6.229-1.34C1028.802,58.183,1029.317,56.065,1028.842,54.138z"/>
	</g>
</g>
<g id="cappello_2">
	<circle fill="#D02517" cx="949.459" cy="61.613" r="23.225"/>
	<g>
		<path fill="none" stroke="#FFFFFF" stroke-miterlimit="10" d="M959.325,61.731c-0.081-0.879-0.165-1.902-0.242-3.02
			c-0.246-3.59-2.092-6.859-3.282-7.486c-0.235-0.124-0.602-0.149-1.042-0.112c-1.788,0.152-4.818,1.354-5.449,1.352
			c-0.48-0.001-2.474-0.488-4.22-0.598c-1.109-0.07-2.119,0.012-2.578,0.469c-0.717,0.713-1.295,4.84-1.639,7.973
			c-4.405,0.727-7.381,2.288-7.529,4.297c-0.237,3.215,6.861,6.358,15.853,7.021c8.992,0.663,16.474-1.406,16.711-4.621
			C966.053,65.036,963.439,63.093,959.325,61.731z"/>
		<g>
			<path fill="#FFFFFF" d="M940.364,64.734l0.186-1.808c0.027,0.016,3.256,1.785,9.63,2.123c6.621,0.351,9.411-1.05,9.411-1.05
				l0.336,1.65c-0.614,0.49-2.53,1.84-9.833,1.453C945.498,66.858,941.664,65.544,940.364,64.734z"/>
		</g>
		<line fill="none" stroke="#FFFFFF" stroke-miterlimit="10" x1="940.364" y1="64.732" x2="940.873" y2="60.309"/>
		<line fill="none" stroke="#FFFFFF" stroke-miterlimit="10" x1="959.325" y1="61.731" x2="959.602" y2="65.451"/>
	</g>
</g>
</svg>
