<?xml version="1.0" encoding="utf-8"?>
<!-- Generator: Adobe Illustrator 17.0.0, SVG Export Plug-In . SVG Version: 6.00 Build 0)  -->
<!DOCTYPE svg PUBLIC "-//W3C//DTD SVG 1.1//EN" "http://www.w3.org/Graphics/SVG/1.1/DTD/svg11.dtd">
<svg version="1.1" id="Livello_1" xmlns="http://www.w3.org/2000/svg" xmlns:xlink="http://www.w3.org/1999/xlink" x="0px" y="0px"
	 width="1024px" height="576px" viewBox="0 0 1024 576" enable-background="new 0 0 1024 576" xml:space="preserve">


	 <defs>
 	<style type="text/css">@import url('http://fonts.googleapis.com/css?family=Bebas+Neue');</style>
 	</defs>


<g id="quadrato_rosso">

		<polyline id="quadrato_rosso_3_" fill="#E30D15" stroke="#E30F19" stroke-width="14" stroke-linecap="round" stroke-linejoin="round" stroke-miterlimit="10" points="
		774.405,162.141 665.259,157.105 663.914,114.448 766.115,116.705 774.405,161.978 	"/>

		<polyline id="cornice_4_6_" fill="none" stroke="#050A0C" stroke-width="2" stroke-linecap="round" stroke-linejoin="round" stroke-miterlimit="10" points="
		664.416,116.752 771.487,114.797 776.659,159.869 665.509,159.134 664.416,116.752 	"/>
</g>
<g id="freccia_12">
	<g>
		<g>

				<line fill="none" stroke="#000000" stroke-width="2" stroke-linecap="round" stroke-miterlimit="10" x1="110.614" y1="336.35" x2="110.667" y2="298.204"/>
			<g>
				<polygon points="118.443,300.491 110.683,287.01 102.886,300.47 				"/>
			</g>
		</g>
	</g>
</g>
<g id="grafo_arancione_2_">
	<path fill="#EF7928" stroke="#EE7828" stroke-miterlimit="10" d="M834.902,372.642c0,0.465-0.259,0.841-0.577,0.841h-18.923
		c-0.319,0-0.577-0.377-0.577-0.841v-15.595c0-0.465,0.259-0.841,0.577-0.841h18.923c0.319,0,0.577,0.377,0.577,0.841V372.642z"/>
	<circle fill="#FFFFFF" stroke="#FFFFFF" stroke-miterlimit="10" cx="819.473" cy="361.461" r="2.641"/>
	<circle fill="#FFFFFF" stroke="#FFFFFF" stroke-miterlimit="10" cx="831.546" cy="364.857" r="2.264"/>
	<circle fill="#FFFFFF" stroke="#FFFFFF" stroke-miterlimit="10" cx="824.472" cy="368.65" r="2.358"/>
	<line fill="none" stroke="#FFFFFF" stroke-miterlimit="10" x1="820.586" y1="361.461" x2="831.085" y2="364.857"/>
	<line fill="none" stroke="#FFFFFF" stroke-miterlimit="10" x1="831.085" y1="364.857" x2="824.472" y2="369.059"/>
	<line fill="none" stroke="#FFFFFF" stroke-miterlimit="10" x1="824.472" y1="369.059" x2="820.586" y2="362.593"/>
</g>
<g id="grafo_verde_2">
	<path fill="#079038" stroke="#068F39" stroke-miterlimit="10" d="M118.257,265.607c0,0.465-0.259,0.841-0.577,0.841H98.758
		c-0.319,0-0.577-0.377-0.577-0.841v-15.595c0-0.465,0.259-0.841,0.577-0.841h18.923c0.319,0,0.577,0.377,0.577,0.841V265.607z"/>
	<circle fill="#FFFFFF" stroke="#FFFFFF" stroke-miterlimit="10" cx="102.829" cy="254.426" r="2.641"/>
	<circle fill="#FFFFFF" stroke="#FFFFFF" stroke-miterlimit="10" cx="114.901" cy="257.822" r="2.264"/>
	<circle fill="#FFFFFF" stroke="#FFFFFF" stroke-miterlimit="10" cx="107.828" cy="261.615" r="2.358"/>
	<line fill="none" stroke="#FFFFFF" stroke-miterlimit="10" x1="103.941" y1="254.426" x2="114.44" y2="257.822"/>
	<line fill="none" stroke="#FFFFFF" stroke-miterlimit="10" x1="114.44" y1="257.822" x2="107.828" y2="262.024"/>
	<line fill="none" stroke="#FFFFFF" stroke-miterlimit="10" x1="107.828" y1="262.024" x2="103.941" y2="255.558"/>
</g>
<g id="grafico_blu_4_">
	<g>
		<g>
			<line fill="none" stroke="#FFFFFF" stroke-miterlimit="10" x1="400.885" y1="362.464" x2="401.112" y2="371.101"/>
			<g>
				<polygon fill="#FFFFFF" points="399.649,362.861 400.838,360.671 402.141,362.796 				"/>
			</g>
		</g>
	</g>
	<g id="grafico_blu_5_">
		<path fill="#283273" d="M417.744,373.912c0.012,0.465-0.236,0.848-0.555,0.856l-18.916,0.497
			c-0.319,0.008-0.587-0.361-0.599-0.826l-0.41-15.589c-0.012-0.465,0.236-0.848,0.555-0.856l18.916-0.497
			c0.319-0.008,0.587,0.361,0.599,0.826L417.744,373.912z"/>
		<g>
			<g>
				<line fill="none" stroke="#FFFFFF" stroke-miterlimit="10" x1="400.415" y1="371.119" x2="410.052" y2="370.866"/>
				<g>
					<polygon fill="#FFFFFF" points="409.72,372.122 411.845,370.819 409.654,369.63 					"/>
				</g>
			</g>
		</g>
		<polyline fill="none" stroke="#FFFFFF" stroke-linecap="round" stroke-miterlimit="10" points="401.102,370.709 403.044,366.791
			405.568,367.404 409.352,364.245 410.294,364.518 412.304,361.745 		"/>
	</g>
</g>
<g id="complete__module_2_">
	<text transform="matrix(1 0 0 1 714.5383 392.8854)"><tspan x="0" y="0" fill="#0E8C99" font-family="'Bebas Neue'" font-size="14.3952">Other</tspan><tspan x="-19.008" y="17.274" fill="#0E8C99" font-family="'Bebas Neue'" font-size="14.3952">requirements</tspan></text>
</g>
<ellipse id="cerchio_centrale_2_" fill="none" stroke="#0E8C99" stroke-width="2" stroke-linecap="round" stroke-linejoin="round" stroke-miterlimit="10" cx="728.567" cy="395.923" rx="44.51" ry="34.493"/>
<g id="successful_test_2_">
	<text transform="matrix(0.9569 0 0 1 273.9187 389.099)"><tspan x="0" y="0" fill="#0E8C99" font-family="'Bebas Neue'" font-size="14.3952">successful</tspan><tspan x="16.461" y="17.274" fill="#0E8C99" font-family="'Bebas Neue'" font-size="14.3952">test</tspan></text>
</g>
<ellipse id="cerchio_sinistra_2_" fill="none" stroke="#0E8C99" stroke-width="2" stroke-linecap="round" stroke-linejoin="round" stroke-miterlimit="10" cx="299.684" cy="391.91" rx="42.592" ry="34.493"/>
<g id="no_2_5_">
	<path fill="#E30F19" stroke="#E30F19" stroke-miterlimit="10" d="M635.115,465.408c0,0.465-0.259,0.841-0.577,0.841h-18.923
		c-0.319,0-0.577-0.377-0.577-0.841v-15.595c0-0.465,0.259-0.841,0.577-0.841h18.923c0.319,0,0.577,0.377,0.577,0.841V465.408z"/>
	<g>
		<text transform="matrix(1 0 0 1 619.447 462.8125)" fill="#FFFFFF" font-family="'Bebas Neue'" font-size="14.3952">NO</text>
	</g>
</g>
<g id="no_1">
	<path fill="#E30F19" stroke="#E30F19" stroke-miterlimit="10" d="M633.153,373.76c0,0.465-0.258,0.841-0.577,0.841h-18.922
		c-0.319,0-0.577-0.377-0.577-0.841v-15.595c0-0.465,0.258-0.841,0.577-0.841h18.922c0.319,0,0.577,0.377,0.577,0.841V373.76z"/>
	<g>
		<text transform="matrix(1 0 0 1 617.4861 371.165)" fill="#FFFFFF" font-family="'Bebas Neue'" font-size="14.3952">NO</text>
	</g>
</g>
<g id="yes_2_2_">
	<path fill="#44AC35" stroke="#41AB34" stroke-miterlimit="10" d="M235.409,374.281c0,0.465-0.258,0.841-0.577,0.841h-18.923
		c-0.319,0-0.577-0.377-0.577-0.841v-15.595c0-0.465,0.258-0.841,0.577-0.841h18.923c0.319,0,0.577,0.377,0.577,0.841V374.281z"/>
	<g>
		<text transform="matrix(1 0 0 1 217.4756 371.6859)" fill="#FFFFFF" font-family="'Bebas Neue'" font-size="14.3952">YES</text>
	</g>
</g>
<g id="quadrato_ciano">

		<polyline id="quadrato_8_2_" fill="#2EB4AB" stroke="#2CB4AB" stroke-width="14" stroke-linecap="round" stroke-linejoin="round" stroke-miterlimit="10" points="
		169.761,407.437 61.846,402.457 60.517,360.282 161.564,362.513 169.761,407.276 	"/>

		<polyline id="cornice_8_2_" fill="none" stroke="#050A0C" stroke-width="2" stroke-linecap="round" stroke-linejoin="round" stroke-miterlimit="10" points="
		58.526,361.207 165.597,359.251 170.769,404.323 59.619,403.589 58.526,361.207 	"/>
</g>
<g id="Publish_stable_release_2_">
	<text transform="matrix(1 0 0 1 95.5505 379.5678)"><tspan x="0" y="0" fill="#FFFFFF" font-family="'Bebas Neue'" font-size="14.3952">Publish</tspan><tspan x="-18.138" y="17.274" fill="#FFFFFF" font-family="'Bebas Neue'" font-size="14.3952">stable release</tspan></text>
</g>
<g id="lavagna_8_2_">
	<circle fill="#514998" cx="164.76" cy="356.425" r="9.695"/>
	<g>
		<path fill="#FFFFFF" d="M159.635,351.482v9.182h7.009c0-0.199,0-0.398,0-0.597h-6.482v-7.989h9.222v4.554c0.171,0,0.349,0,0.527,0
			v-5.151H159.635z"/>

			<line fill="#FFFFFF" stroke="#FFFFFF" stroke-linecap="round" stroke-miterlimit="10" x1="166.526" y1="356.761" x2="170.902" y2="361.137"/>
	</g>
</g>
<g id="cappello_8_2_">
	<circle fill="#D02517" cx="60.311" cy="358.553" r="9.715"/>
	<g>
		<path fill="none" stroke="#FFFFFF" stroke-miterlimit="10" d="M64.438,358.602c-0.034-0.368-0.069-0.796-0.101-1.263
			c-0.103-1.502-0.875-2.869-1.373-3.131c-0.098-0.052-0.252-0.062-0.436-0.047c-0.748,0.064-2.016,0.566-2.279,0.565
			c-0.201-0.001-1.035-0.204-1.765-0.25c-0.464-0.029-0.886,0.005-1.078,0.196c-0.3,0.298-0.542,2.025-0.686,3.335
			c-1.843,0.304-3.088,0.957-3.15,1.797c-0.099,1.345,2.87,2.66,6.632,2.937c3.762,0.277,6.891-0.588,6.991-1.933
			C67.253,359.984,66.16,359.172,64.438,358.602z"/>
		<g>
			<path fill="#FFFFFF" d="M56.507,359.858l0.078-0.757c0.011,0.007,1.362,0.747,4.028,0.888c2.77,0.147,3.937-0.439,3.937-0.439
				l0.141,0.69c-0.257,0.205-1.058,0.77-4.113,0.608C58.655,360.747,57.05,360.197,56.507,359.858z"/>
		</g>
		<line fill="none" stroke="#FFFFFF" stroke-miterlimit="10" x1="56.507" y1="359.857" x2="56.72" y2="358.007"/>
		<line fill="none" stroke="#FFFFFF" stroke-miterlimit="10" x1="64.438" y1="358.602" x2="64.554" y2="360.158"/>
	</g>
</g>
<g id="tools_8_2_">
	<g id="Tools_1_31_">
		<circle fill="#72B62B" cx="111.667" cy="355.891" r="9.695"/>
	</g>
	<g>
		<path fill="none" stroke="#FFFFFF" stroke-linecap="round" stroke-linejoin="round" stroke-miterlimit="10" d="M107.822,354.146
			c0.036,0.003,0.072,0.011,0.105,0.028c0.05,0.028,0.11,0.019,0.152-0.022l1.355-1.355c0.061-0.061,0.061-0.16,0-0.221
			c-0.075-0.075-0.075-0.196,0-0.271l0.37-0.37c0.075-0.075,0.196-0.075,0.271,0l0.11,0.11l0.883-0.883
			c0.213-0.213,0.213-0.555,0-0.765l-1.176-1.176c-0.213-0.213-0.555-0.213-0.765,0l-0.883,0.883l0.091,0.091
			c0.097,0.097,0.097,0.257,0,0.353l-0.284,0.284c-0.097,0.097-0.257,0.097-0.353,0c-0.05-0.05-0.13-0.05-0.179,0l-1.375,1.375
			c-0.05,0.05-0.05,0.133,0,0.182c0.05,0.05,0.058,0.13,0.017,0.19c-1.775,2.622-0.516,3.906-0.516,3.906
			c0.157-1.148,1.126-2.214,2.076-2.341C107.75,354.143,107.788,354.143,107.822,354.146z"/>
		<path fill="none" stroke="#FFFFFF" stroke-linecap="round" stroke-linejoin="round" stroke-miterlimit="10" d="M117.027,359.846
			l-7.119-6.581l-1.292,1.292l6.578,7.119c0.362,0.386,0.972,0.397,1.347,0.022l0.508-0.508
			C117.425,360.817,117.414,360.207,117.027,359.846z"/>
		<path fill="none" stroke="#FFFFFF" stroke-linecap="round" stroke-linejoin="round" stroke-miterlimit="10" d="M107.546,360.254
			c-0.395,0.395-0.395,1.032,0,1.427l0,0c0.395,0.395,1.032,0.395,1.427,0l2.832-2.832l-1.372-1.482L107.546,360.254z"/>
		<path fill="none" stroke="#FFFFFF" stroke-linecap="round" stroke-linejoin="round" stroke-miterlimit="10" d="M118.388,352.633
			l-1.543,1.543c-0.119,0.119-0.298,0.157-0.455,0.099l-0.864-0.323c-0.116-0.044-0.21-0.135-0.251-0.251l-0.323-0.864
			c-0.058-0.157-0.019-0.337,0.099-0.455l1.543-1.543c-0.812-0.199-1.703,0.019-2.332,0.657c-0.693,0.701-0.875,1.722-0.549,2.592
			l-0.996,0.996l1.482,1.372l0.939-0.939c0.875,0.331,1.902,0.144,2.606-0.56C118.371,354.325,118.587,353.439,118.388,352.633z"/>
	</g>
</g>
<g id="cappello_1_7_">
	<circle fill="#D02517" cx="64.378" cy="109.765" r="9.715"/>
	<g>
		<path fill="none" stroke="#FFFFFF" stroke-miterlimit="10" d="M68.506,109.814c-0.034-0.368-0.069-0.796-0.101-1.263
			c-0.103-1.502-0.875-2.869-1.373-3.131c-0.098-0.052-0.252-0.062-0.436-0.047c-0.748,0.064-2.016,0.566-2.279,0.565
			c-0.201-0.001-1.035-0.204-1.765-0.25c-0.464-0.029-0.886,0.005-1.078,0.196c-0.3,0.298-0.542,2.024-0.686,3.335
			c-1.843,0.304-3.088,0.957-3.15,1.797c-0.099,1.345,2.87,2.66,6.632,2.937c3.762,0.277,6.891-0.588,6.991-1.933
			C71.32,111.197,70.227,110.384,68.506,109.814z"/>
		<g>
			<path fill="#FFFFFF" d="M60.574,111.071l0.078-0.757c0.011,0.007,1.362,0.747,4.028,0.888c2.77,0.147,3.937-0.439,3.937-0.439
				l0.141,0.69c-0.257,0.205-1.058,0.77-4.113,0.608C62.722,111.959,61.118,111.409,60.574,111.071z"/>
		</g>
		<line fill="none" stroke="#FFFFFF" stroke-miterlimit="10" x1="60.574" y1="111.07" x2="60.787" y2="109.22"/>
		<line fill="none" stroke="#FFFFFF" stroke-miterlimit="10" x1="68.506" y1="109.814" x2="68.621" y2="111.371"/>
	</g>
</g>
<g id="quadrato_blu">

		<polyline id="quadrato_blu_1_3_" fill="#0384B3" stroke="#0283B2" stroke-width="14" stroke-linecap="round" stroke-linejoin="round" stroke-miterlimit="10" points="
		63.454,111.897 159.047,117.415 164.482,157.56 74.297,155.043 63.454,112.61 	"/>

		<polyline id="cornice_1_3_" fill="none" stroke="#050A0C" stroke-width="2" stroke-linecap="round" stroke-linejoin="round" stroke-miterlimit="10" points="
		168.64,158.731 69.32,152.559 63.855,110.814 157.569,113.842 168.64,158.731 	"/>
</g>
<text id="Collect_requirement_3_" transform="matrix(1 0 0 1 95.4709 131.6519)"><tspan x="0" y="0" fill="#FFFFFF" font-family="'Bebas Neue'" font-size="14.3952">Collect</tspan><tspan x="-14.539" y="17.274" fill="#FFFFFF" font-family="'Bebas Neue'" font-size="14.3952">Requirements</tspan></text>
<g id="lavagna_1_3_">
	<circle fill="#514998" cx="153.728" cy="110.814" r="9.695"/>
	<g>
		<path fill="#FFFFFF" d="M148.602,105.871v9.182h7.009c0-0.199,0-0.398,0-0.597h-6.482v-7.989h9.222v4.554c0.171,0,0.349,0,0.527,0
			v-5.151H148.602z"/>

			<line fill="#FFFFFF" stroke="#FFFFFF" stroke-linecap="round" stroke-miterlimit="10" x1="155.494" y1="111.149" x2="159.87" y2="115.526"/>
	</g>
</g>
<g id="quadrato_viola">

		<polyline id="quadrato_viola_3_" fill="#A786BC" stroke="#A685BC" stroke-width="5" stroke-linecap="round" stroke-linejoin="round" stroke-miterlimit="10" points="
		354.139,113.265 260.125,112.988 252.51,164.216 355.143,150.739 354.139,113.265 	"/>

		<polyline id="cornice_2_3_" fill="none" stroke="#050A0C" stroke-width="2" stroke-linecap="round" stroke-linejoin="round" stroke-miterlimit="10" points="
		249.513,161.082 350.926,154.779 356.506,112.155 260.817,115.247 249.513,161.082 	"/>
</g>
<g id="Formalize_requirement_3_">
	<text transform="matrix(1 0 0 1 279.8176 132.4693)"><tspan x="0" y="0" fill="#FFFFFF" font-family="'Bebas Neue'" font-size="14.3952">Formalize</tspan><tspan x="-8.874" y="17.274" fill="#FFFFFF" font-family="'Bebas Neue'" font-size="14.3952">Requirements</tspan></text>
</g>
<g id="freccia_6">
	<g>
		<g>

				<line fill="none" stroke="#000000" stroke-width="2" stroke-linecap="round" stroke-miterlimit="10" x1="916.761" y1="173.092" x2="916.564" y2="314.507"/>
			<g>
				<polygon points="908.789,312.22 916.548,325.701 924.345,312.241 				"/>
			</g>
		</g>
	</g>
</g>
<g id="freccia_8">
	<g>
		<g>

				<line fill="none" stroke="#000000" stroke-width="2" stroke-linecap="round" stroke-miterlimit="10" x1="658.634" y1="374.143" x2="513.339" y2="207.754"/>
			<g>
				<polygon points="520.695,204.352 505.977,199.321 508.978,214.584 				"/>
			</g>
		</g>
	</g>
</g>
<g id="quadrato_giallo">

		<polyline id="quadrato_giallo_3_" fill="#FAB537" stroke="#FAB538" stroke-width="14" stroke-linecap="round" stroke-linejoin="round" stroke-miterlimit="10" points="
		566.872,111.958 467.523,117.693 461.874,159.415 563.428,159.415 566.872,112.7 	"/>

		<polyline id="cornice_3_3_" fill="none" stroke="#050A0C" stroke-width="2" stroke-linecap="round" stroke-linejoin="round" stroke-miterlimit="10" points="
		457.553,163.829 560.776,157.414 566.455,114.029 469.059,117.176 457.553,163.829 	"/>
</g>
<g id="Define_test_cases_3_">
	<text transform="matrix(1 0 0 1 497.0881 133.9361)"><tspan x="0" y="0" fill="#FFFFFF" font-family="'Bebas Neue'" font-size="14.3952">Define</tspan><tspan x="-10.17" y="17.274" fill="#FFFFFF" font-family="'Bebas Neue'" font-size="14.3952">test cases</tspan></text>
</g>
<polyline id="cornice_4_7_" fill="none" points="664.727,114.405 773.02,112.428 778.251,158.014 665.832,157.271 664.727,114.405
	"/>
<g id="Develop_modules_3_">
	<text transform="matrix(1 0 0 1 701.3228 132.3662)"><tspan x="0" y="0" fill="#FFFFFF" font-family="'Bebas Neue'" font-size="14.3952">Develop</tspan><tspan x="-1.194" y="17.274" fill="#FFFFFF" font-family="'Bebas Neue'" font-size="14.3952">modules</tspan></text>
</g>
<g id="quadrato_verde">

		<polyline id="quadrato_verde_3_" fill="#8EBF22" stroke="#8EBF24" stroke-width="14" stroke-linecap="round" stroke-linejoin="round" stroke-miterlimit="10" points="
		863.745,359.41 964.09,363.006 965.95,402.176 872.024,401.597 863.745,360.125 	"/>

		<polyline id="cornice_6_3_" fill="none" stroke="#050A0C" stroke-width="2" stroke-linecap="round" stroke-linejoin="round" stroke-miterlimit="10" points="
		970.078,402.515 870.616,406.266 865.16,360.636 968.452,359.544 970.078,402.515 	"/>
</g>
<g id="Refactor_and_integrate_3_">
	<text transform="matrix(1 0 0 1 896.1802 380.3906)"><tspan x="0" y="0" fill="#FFFFFF" font-family="'Bebas Neue'" font-size="14.3952">Refactor</tspan><tspan x="-11.516" y="17.274" fill="#FFFFFF" font-family="'Bebas Neue'" font-size="14.3952">and integrate</tspan></text>
</g>
<g id="quadrato_viola_1_">

		<polyline id="quadrato_7_3_" fill="#B2116C" stroke="#B2116C" stroke-width="5" stroke-linecap="round" stroke-linejoin="round" stroke-miterlimit="10" points="
		558.351,357.165 456.835,356.866 448.612,412.182 559.435,397.629 558.351,357.165 	"/>
	<polyline id="cornice_7_3_" fill="none" stroke="#050A0C" stroke-width="2" stroke-miterlimit="10" points="445.375,408.797
		554.881,401.992 560.907,355.966 457.582,359.304 445.375,408.797 	"/>
</g>
<g id="Run_Beta_Testing_3_">
	<text transform="matrix(1 0 0 1 483.1772 378.9412)"><tspan x="0" y="0" fill="#FFFFFF" font-family="'Bebas Neue'" font-size="14.3952">Run Beta</tspan><tspan x="3.297" y="17.274" fill="#FFFFFF" font-family="'Bebas Neue'" font-size="14.3952">Testing</tspan></text>
</g>
<g id="quadrato_rosa">

		<polyline id="quadrato_rosa_3_" fill="#D7579B" stroke="#D6579A" stroke-width="5" stroke-linecap="round" stroke-linejoin="round" stroke-miterlimit="10" points="
		970.382,111.053 868.866,110.754 860.644,166.07 971.467,151.517 970.382,111.053 	"/>
	<polyline id="cornice_5_3_" fill="none" stroke="#050A0C" stroke-width="2" stroke-miterlimit="10" points="857.407,162.685
		966.913,155.88 972.938,109.854 869.614,113.193 857.407,162.685 	"/>
</g>
<g id="Run_alpha_Testing_3_">
	<text transform="matrix(1 0 0 1 907.3892 132.8288)"><tspan x="0" y="0" fill="#FFFFFF" font-family="'Bebas Neue'" font-size="14.3952">Run</tspan><tspan x="-24.083" y="17.274" fill="#FFFFFF" font-family="'Bebas Neue'" font-size="14.3952">alpha Testing</tspan></text>
</g>
<g id="lavagna_7_3_">
	<circle fill="#514998" cx="555.093" cy="356.492" r="9.695"/>
	<g>
		<path fill="#FFFFFF" d="M549.967,351.549v9.182h7.009c0-0.199,0-0.398,0-0.597h-6.482v-7.989h9.221v4.554c0.171,0,0.349,0,0.527,0
			v-5.151H549.967z"/>

			<line fill="#FFFFFF" stroke="#FFFFFF" stroke-linecap="round" stroke-miterlimit="10" x1="556.859" y1="356.827" x2="561.235" y2="361.203"/>
	</g>
</g>
<g id="lavagna_2_3_">
	<circle fill="#514998" cx="352.842" cy="110.288" r="9.695"/>
	<g>
		<path fill="#FFFFFF" d="M347.716,105.345v9.182h7.009c0-0.199,0-0.398,0-0.597h-6.482v-7.989h9.222v4.554c0.171,0,0.349,0,0.527,0
			v-5.151H347.716z"/>

			<line fill="#FFFFFF" stroke="#FFFFFF" stroke-linecap="round" stroke-miterlimit="10" x1="354.607" y1="110.623" x2="358.984" y2="115"/>
	</g>
</g>
<g id="lavagna_3_3_">
	<circle fill="#514998" cx="564.492" cy="109.762" r="9.695"/>
	<g>
		<path fill="#FFFFFF" d="M559.367,104.819v9.182h7.009c0-0.199,0-0.398,0-0.597h-6.482v-7.989h9.221v4.554c0.171,0,0.349,0,0.527,0
			v-5.151H559.367z"/>

			<line fill="#FFFFFF" stroke="#FFFFFF" stroke-linecap="round" stroke-miterlimit="10" x1="566.258" y1="110.097" x2="570.634" y2="114.473"/>
	</g>
</g>
<g id="lavagna_4_3_">
	<circle fill="#514998" cx="760.557" cy="112.273" r="9.695"/>
	<g>
		<path fill="#FFFFFF" d="M755.432,107.329v9.182h7.009c0-0.199,0-0.398,0-0.597h-6.482v-7.989h9.222v4.554c0.171,0,0.349,0,0.527,0
			v-5.151H755.432z"/>

			<line fill="#FFFFFF" stroke="#FFFFFF" stroke-linecap="round" stroke-miterlimit="10" x1="762.323" y1="112.608" x2="766.699" y2="116.984"/>
	</g>
</g>
<g id="lavagna_5">
	<circle fill="#514998" cx="971.467" cy="110.273" r="9.695"/>
	<g>
		<path fill="#FFFFFF" d="M966.341,105.329v9.182h7.009c0-0.199,0-0.398,0-0.597h-6.482v-7.989h9.221v4.554c0.171,0,0.349,0,0.527,0
			v-5.151H966.341z"/>

			<line fill="#FFFFFF" stroke="#FFFFFF" stroke-linecap="round" stroke-miterlimit="10" x1="973.232" y1="110.608" x2="977.609" y2="114.984"/>
	</g>
</g>
<g id="lavagna_6">
	<circle fill="#514998" cx="966.467" cy="354.765" r="9.695"/>
	<g>
		<path fill="#FFFFFF" d="M961.341,349.822v9.182h7.009c0-0.199,0-0.398,0-0.597h-6.482v-7.989h9.221v4.554c0.171,0,0.349,0,0.527,0
			v-5.151H961.341z"/>

			<line fill="#FFFFFF" stroke="#FFFFFF" stroke-linecap="round" stroke-miterlimit="10" x1="968.232" y1="355.1" x2="972.609" y2="359.476"/>
	</g>
</g>
<g id="libro_1_3_">
	<path fill="#0384B3" d="M209.71,127.57c0,0.465-0.259,0.841-0.577,0.841H190.21c-0.319,0-0.577-0.377-0.577-0.841v-15.595
		c0-0.465,0.259-0.841,0.577-0.841h18.923c0.319,0,0.577,0.377,0.577,0.841V127.57z"/>
	<g id="XMLID_69_">
		<g id="XMLID_70_">
			<path id="XMLID_79_" fill="none" stroke="#FFFFFF" stroke-miterlimit="10" d="M201.234,124.663
				c1.306,0.112,2.623,0.02,3.929,0.051c0.255,0,0.52,0.051,0.786-0.061c0-2.715,0-5.429,0-8.205c-0.418,0-0.806,0-1.204,0"/>
			<path id="XMLID_78_" fill="none" stroke="#FFFFFF" stroke-miterlimit="10" d="M195.111,116.448c-0.378,0-0.745,0-1.153,0
				c0,2.776,0,5.49,0,8.266c0.755,0,1.49,0.01,2.214,0c0.796-0.01,1.602,0.061,2.398-0.051"/>
			<path id="XMLID_77_" fill="none" stroke="#FFFFFF" stroke-miterlimit="10" d="M199.958,124.663c0-2.531-0.041-5.072,0.02-7.603
				c0.02-0.857-0.337-1.306-0.99-1.684c-0.633-0.357-2.919-0.806-3.735-0.592c0,2.633,0,5.286,0,7.888
				c0.704,0.316,1.398,0.153,2.061,0.296c0.786,0.163,1.551,0.347,2.194,0.878c0.429,0.357,0.561,0.357,0.969,0
				c0.602-0.531,1.337-0.694,2.092-0.878c0.674-0.163,1.388,0.02,2.102-0.296c0-2.602,0-5.256,0-7.97
				c-1.745,0.041-3.388,0.184-4.704,1.408"/>
			<path id="XMLID_76_" fill="none" stroke="#FFFFFF" stroke-miterlimit="10" d="M198.785,119.458
				c-0.776-0.378-1.612-0.459-2.449-0.561"/>
			<path id="XMLID_75_" fill="none" stroke="#FFFFFF" stroke-miterlimit="10" d="M203.581,117.264
				c-0.847,0.061-1.674,0.184-2.449,0.561"/>
			<path id="XMLID_74_" fill="none" stroke="#FFFFFF" stroke-miterlimit="10" d="M203.581,118.897
				c-0.837,0.092-1.674,0.194-2.449,0.561"/>
			<path id="XMLID_73_" fill="none" stroke="#FFFFFF" stroke-miterlimit="10" d="M198.682,117.774
				c-0.745-0.327-1.541-0.449-2.347-0.51"/>
			<path id="XMLID_72_" fill="none" stroke="#FFFFFF" stroke-miterlimit="10" d="M203.377,120.53
				c-0.602,0.163-1.245,0.194-1.837,0.398c-0.143,0.051-0.265,0.112-0.408,0.163"/>
			<path id="XMLID_71_" fill="none" stroke="#FFFFFF" stroke-miterlimit="10" d="M196.437,120.581
				c0.816,0.02,1.592,0.225,2.347,0.51"/>
		</g>
	</g>
</g>
<g id="libro_2_3_">
	<path fill="#A786BC" d="M405.044,127.57c0,0.465-0.259,0.841-0.577,0.841h-18.923c-0.319,0-0.577-0.377-0.577-0.841v-15.595
		c0-0.465,0.259-0.841,0.577-0.841h18.923c0.319,0,0.577,0.377,0.577,0.841V127.57z"/>
	<g>
		<g id="XMLID_58_">
			<g id="XMLID_59_">
				<path id="XMLID_68_" fill="none" stroke="#FFFFFF" stroke-miterlimit="10" d="M395.173,126.057
					c1.306,0.112,2.623,0.02,3.929,0.051c0.255,0,0.52,0.051,0.786-0.061c0-2.715,0-5.429,0-8.205c-0.418,0-0.806,0-1.204,0"/>
				<path id="XMLID_67_" fill="none" stroke="#FFFFFF" stroke-miterlimit="10" d="M389.051,117.842c-0.378,0-0.745,0-1.153,0
					c0,2.776,0,5.49,0,8.266c0.755,0,1.49,0.01,2.214,0c0.796-0.01,1.602,0.061,2.398-0.051"/>
				<path id="XMLID_66_" fill="none" stroke="#FFFFFF" stroke-miterlimit="10" d="M393.898,126.057c0-2.531-0.041-5.072,0.02-7.603
					c0.02-0.857-0.337-1.306-0.99-1.684c-0.633-0.357-2.919-0.806-3.735-0.592c0,2.633,0,5.286,0,7.888
					c0.704,0.316,1.398,0.153,2.061,0.296c0.786,0.163,1.551,0.347,2.194,0.878c0.429,0.357,0.561,0.357,0.969,0
					c0.602-0.531,1.337-0.694,2.092-0.878c0.674-0.163,1.388,0.02,2.102-0.296c0-2.602,0-5.256,0-7.97
					c-1.745,0.041-3.388,0.184-4.704,1.408"/>
				<path id="XMLID_65_" fill="none" stroke="#FFFFFF" stroke-miterlimit="10" d="M392.724,120.852
					c-0.776-0.378-1.612-0.459-2.449-0.561"/>
				<path id="XMLID_64_" fill="none" stroke="#FFFFFF" stroke-miterlimit="10" d="M397.521,118.658
					c-0.847,0.061-1.674,0.184-2.449,0.561"/>
				<path id="XMLID_63_" fill="none" stroke="#FFFFFF" stroke-miterlimit="10" d="M397.521,120.291
					c-0.837,0.092-1.674,0.194-2.449,0.561"/>
				<path id="XMLID_62_" fill="none" stroke="#FFFFFF" stroke-miterlimit="10" d="M392.622,119.168
					c-0.745-0.327-1.541-0.449-2.347-0.51"/>
				<path id="XMLID_61_" fill="none" stroke="#FFFFFF" stroke-miterlimit="10" d="M397.317,121.924
					c-0.602,0.163-1.245,0.194-1.837,0.398c-0.143,0.051-0.265,0.112-0.408,0.163"/>
				<path id="XMLID_60_" fill="none" stroke="#FFFFFF" stroke-miterlimit="10" d="M390.377,121.975
					c0.816,0.02,1.592,0.225,2.347,0.51"/>
			</g>
		</g>
		<text transform="matrix(1 0 0 1 399.2209 121.9292)" fill="#FFFFFF" font-family="'MyriadPro-Regular'" font-size="13.3919">?</text>
	</g>
</g>
<g id="grafo_verde">
	<path fill="#8EBF22" d="M944.134,248.555c0,0.465-0.258,0.841-0.577,0.841h-18.922c-0.319,0-0.577-0.377-0.577-0.841V232.96
		c0-0.465,0.258-0.841,0.577-0.841h18.922c0.319,0,0.577,0.377,0.577,0.841V248.555z"/>
	<g>
		<g>
			<line fill="none" stroke="#FFFFFF" stroke-miterlimit="10" x1="927.583" y1="236.668" x2="927.583" y2="245.308"/>
			<g>
				<polygon fill="#FFFFFF" points="926.336,237.032 927.583,234.874 928.829,237.032 				"/>
			</g>
		</g>
	</g>
	<g>
		<g>
			<line fill="none" stroke="#FFFFFF" stroke-miterlimit="10" x1="925.492" y1="245.308" x2="935.131" y2="245.308"/>
			<g>
				<polygon fill="#FFFFFF" points="934.766,246.554 936.925,245.308 934.766,244.061 				"/>
			</g>
		</g>
	</g>
	<polyline fill="none" stroke="#FFFFFF" stroke-linecap="round" stroke-miterlimit="10" points="927.583,244.916 929.627,241.05
		932.134,241.729 936,238.67 936.934,238.968 939.016,236.249 	"/>
</g>
<g id="documento_3_3_">
	<path fill="#293383" stroke="#28347F" stroke-miterlimit="10" d="M617.073,128.888c0,0.465-0.259,0.841-0.577,0.841h-18.923
		c-0.319,0-0.577-0.377-0.577-0.841v-15.595c0-0.465,0.259-0.841,0.577-0.841h18.923c0.319,0,0.577,0.377,0.577,0.841V128.888z"/>
	<g>
		<path fill="#FFFFFF" d="M611.775,117.53c0.001-0.467-0.117-0.862-0.407-1.192c-0.425-0.485-0.846-0.973-1.271-1.457
			c-0.285-0.324-0.628-0.483-1.035-0.482c-1.779,0.003-3.557,0.001-5.336,0.002c-0.081,0-0.163,0-0.242,0.015
			c-0.718,0.142-1.19,0.777-1.191,1.606c-0.001,1.688,0,3.375,0,5.063c0,1.711,0,3.421,0,5.131c0,0.018,0.001,0.037,0.001,0.055
			c0.017,0.81,0.617,1.504,1.331,1.506c2.268,0.007,4.535,0.003,6.803,0.002c0.18,0,0.353-0.044,0.516-0.132
			c0.572-0.311,0.828-0.839,0.828-1.547C611.771,123.244,611.768,120.387,611.775,117.53z M609.377,115.037
			c0.139,0.06,0.258,0.15,0.362,0.268c0.417,0.473,0.833,0.946,1.25,1.419c0.11,0.125,0.197,0.265,0.247,0.434
			c0.024,0.08,0.006,0.105-0.069,0.105c-0.557-0.002-1.114,0-1.671-0.003c-0.149-0.001-0.218-0.086-0.219-0.259
			c-0.002-0.311-0.001-0.623-0.001-0.934c0-0.316,0.003-0.632-0.002-0.948C609.273,115.017,609.299,115.004,609.377,115.037z
			 M611.287,126.123c0,0.546-0.26,0.945-0.687,1.06c-0.058,0.016-0.12,0.022-0.18,0.022c-2.236,0.001-4.471,0.001-6.707,0
			c-0.435,0-0.767-0.283-0.871-0.735c-0.026-0.116-0.032-0.235-0.032-0.354c0-1.674,0-3.348,0-5.022c0-1.688-0.001-3.376,0-5.063
			c0-0.511,0.251-0.898,0.66-1.028c0.098-0.031,0.198-0.04,0.3-0.04c1.629,0.007,3.258,0.014,4.887,0.016
			c0.1,0,0.118,0.037,0.117,0.14c-0.004,0.61-0.002,1.22-0.002,1.83c0,0.556,0.296,0.893,0.783,0.894
			c0.534,0,1.067,0.003,1.601-0.002c0.095-0.001,0.132,0.018,0.132,0.14C611.286,120.692,611.288,123.407,611.287,126.123z"/>
		<path fill="#FFFFFF" d="M607.767,124.642c0.493,0,0.986,0,1.479,0c0.061,0,0.122,0.002,0.177,0.035
			c0.103,0.061,0.158,0.159,0.146,0.291c-0.012,0.13-0.078,0.221-0.192,0.253c-0.05,0.014-0.104,0.016-0.156,0.017
			c-0.97,0.001-1.939,0.001-2.909,0.001c-0.024,0-0.049,0.001-0.073-0.001c-0.179-0.013-0.284-0.127-0.28-0.304
			c0.004-0.172,0.12-0.289,0.294-0.29C606.757,124.641,607.262,124.642,607.767,124.642z"/>
		<path fill="#FFFFFF" d="M607.766,120.122c-0.484,0-0.969,0-1.453,0c-0.048,0-0.097-0.001-0.144-0.012
			c-0.13-0.031-0.213-0.15-0.21-0.294c0.003-0.141,0.093-0.259,0.221-0.285c0.031-0.006,0.064-0.005,0.097-0.005
			c0.989,0,1.978,0,2.967-0.001c0.12,0,0.224,0.03,0.288,0.158c0.084,0.167,0.017,0.36-0.145,0.42
			c-0.051,0.019-0.103,0.02-0.156,0.02C608.743,120.122,608.254,120.122,607.766,120.122z"/>
		<path fill="#FFFFFF" d="M607.76,122.686c-0.501,0-1.003-0.001-1.504,0c-0.124,0-0.222-0.047-0.275-0.181
			c-0.064-0.162,0.01-0.348,0.161-0.395c0.054-0.017,0.112-0.02,0.168-0.02c0.966-0.001,1.933-0.001,2.899-0.001
			c0.016,0,0.032,0,0.049,0c0.184,0.006,0.312,0.13,0.313,0.305c0.001,0.174-0.126,0.291-0.319,0.291
			C608.754,122.686,608.257,122.686,607.76,122.686z"/>
		<path fill="#FFFFFF" d="M604.933,125.384c-0.057,0-0.113,0.003-0.17-0.001c-0.054-0.004-0.105-0.031-0.138-0.077
			c-0.139-0.194-0.096-0.423-0.057-0.631c0.032-0.173,0.184-0.193,0.326-0.192c0.379,0.002,0.44,0.068,0.439,0.489
			C605.333,125.316,605.265,125.386,604.933,125.384z"/>
		<path fill="#FFFFFF" d="M604.937,120.269c-0.052,0-0.105,0.004-0.158-0.001c-0.128-0.012-0.222-0.11-0.231-0.252
			c-0.008-0.128-0.008-0.257,0-0.385c0.008-0.138,0.097-0.24,0.219-0.25c0.113-0.009,0.227-0.009,0.339,0
			c0.126,0.01,0.214,0.125,0.224,0.279c0.006,0.091,0.003,0.183,0.002,0.275c-0.003,0.229-0.095,0.332-0.298,0.336
			c-0.032,0.001-0.065,0-0.097,0C604.937,120.271,604.937,120.27,604.937,120.269z"/>
		<path fill="#FFFFFF" d="M604.944,121.939c0.085,0.008,0.171-0.017,0.25,0.035c0.101,0.066,0.147,0.168,0.138,0.297
			c-0.012,0.183,0.066,0.412-0.127,0.518c-0.165,0.091-0.361,0.088-0.527,0.004c-0.198-0.101-0.122-0.331-0.134-0.514
			c-0.008-0.133,0.03-0.242,0.14-0.308C604.768,121.921,604.858,121.948,604.944,121.939z"/>
	</g>
</g>
<g id="grafo_giallo_1">
	<path id="grafo_giallo_6_" fill="#FAB537" d="M817.203,127.48c0,0.465-0.258,0.841-0.577,0.841h-18.922
		c-0.319,0-0.577-0.377-0.577-0.841v-15.595c0-0.465,0.258-0.841,0.577-0.841h18.922c0.319,0,0.577,0.377,0.577,0.841V127.48z"/>
	<g>
		<ellipse fill="#FFFFFF" stroke="#FFFFFF" stroke-miterlimit="10" cx="801.317" cy="117.215" rx="2.641" ry="2.415"/>
		<ellipse fill="#FFFFFF" stroke="#FFFFFF" stroke-miterlimit="10" cx="813.389" cy="120.32" rx="2.264" ry="2.07"/>
		<ellipse fill="#FFFFFF" stroke="#FFFFFF" stroke-miterlimit="10" cx="806.316" cy="123.789" rx="2.358" ry="2.156"/>
		<line fill="none" stroke="#FFFFFF" stroke-miterlimit="10" x1="802.429" y1="117.215" x2="812.928" y2="120.32"/>
		<line fill="none" stroke="#FFFFFF" stroke-miterlimit="10" x1="812.928" y1="120.32" x2="806.316" y2="124.163"/>
		<line fill="none" stroke="#FFFFFF" stroke-miterlimit="10" x1="806.316" y1="124.163" x2="802.429" y2="118.25"/>
	</g>
</g>
<g id="grafo_giallo_2">
	<path id="grafo_giallo_4_" fill="#FAB537" d="M908.939,247.918c0,0.465-0.258,0.841-0.577,0.841h-18.922
		c-0.319,0-0.577-0.377-0.577-0.841v-15.595c0-0.465,0.258-0.841,0.577-0.841h18.922c0.319,0,0.577,0.377,0.577,0.841V247.918z"/>
	<g>
		<ellipse fill="#FFFFFF" stroke="#FFFFFF" stroke-miterlimit="10" cx="893.053" cy="237.653" rx="2.641" ry="2.415"/>
		<ellipse fill="#FFFFFF" stroke="#FFFFFF" stroke-miterlimit="10" cx="905.125" cy="240.758" rx="2.264" ry="2.07"/>
		<ellipse fill="#FFFFFF" stroke="#FFFFFF" stroke-miterlimit="10" cx="898.051" cy="244.226" rx="2.358" ry="2.156"/>
		<line fill="none" stroke="#FFFFFF" stroke-miterlimit="10" x1="894.165" y1="237.653" x2="904.664" y2="240.758"/>
		<line fill="none" stroke="#FFFFFF" stroke-miterlimit="10" x1="904.664" y1="240.758" x2="898.051" y2="244.601"/>
		<line fill="none" stroke="#FFFFFF" stroke-miterlimit="10" x1="898.051" y1="244.601" x2="894.165" y2="238.688"/>
	</g>
</g>
<g id="yes_1_3_">
	<path fill="#44AC35" stroke="#41AB34" stroke-miterlimit="10" d="M633.448,315.436c0,0.465-0.258,0.841-0.577,0.841h-18.922
		c-0.319,0-0.577-0.377-0.577-0.841v-15.595c0-0.465,0.258-0.841,0.577-0.841h18.922c0.319,0,0.577,0.377,0.577,0.841V315.436z"/>
	<g>
		<text transform="matrix(1 0 0 1 615.5151 312.8409)" fill="#FFFFFF" font-family="'Bebas Neue'" font-size="14.3952">YES</text>
	</g>
</g>
<g id="freccia_1_9_">
	<g>

			<line fill="none" stroke="#000000" stroke-width="2" stroke-linecap="round" stroke-miterlimit="10" x1="183.536" y1="136.618" x2="216.552" y2="136.618"/>
		<g>
			<polygon points="214.217,144.596 228.033,136.619 214.217,128.641 			"/>
		</g>
	</g>
</g>
<g id="freccia_2_9_">
	<g>

			<line fill="none" stroke="#000000" stroke-width="2" stroke-linecap="round" stroke-miterlimit="10" x1="379.476" y1="135.686" x2="412.492" y2="135.686"/>
		<g>
			<polygon points="410.157,143.665 423.973,135.687 410.157,127.709 			"/>
		</g>
	</g>
</g>
<g id="freccia_3">
	<g>

			<line fill="none" stroke="#000000" stroke-width="2" stroke-linecap="round" stroke-miterlimit="10" x1="592.87" y1="136.618" x2="625.886" y2="136.618"/>
		<g>
			<polygon points="623.551,144.596 637.367,136.619 623.551,128.641 			"/>
		</g>
	</g>
</g>
<g id="freccia_4">
	<g>

			<line fill="none" stroke="#000000" stroke-width="2" stroke-linecap="round" stroke-miterlimit="10" x1="793.916" y1="137.333" x2="826.932" y2="137.333"/>
		<g>
			<polygon points="824.597,145.311 838.413,137.334 824.597,129.356 			"/>
		</g>
	</g>
</g>
<g id="freccia_7">
	<g>

			<line fill="none" stroke="#000000" stroke-width="2" stroke-linecap="round" stroke-miterlimit="10" x1="837.777" y1="383.732" x2="804.762" y2="383.732"/>
		<g>
			<polygon points="807.096,375.754 793.281,383.732 807.096,391.71 			"/>
		</g>
	</g>
</g>
<g id="freccia_9">
	<g>

			<line fill="none" stroke="#000000" stroke-width="2" stroke-linecap="round" stroke-miterlimit="10" x1="634.023" y1="383.732" x2="601.008" y2="383.732"/>
		<g>
			<polygon points="603.342,375.754 589.527,383.732 603.342,391.71 			"/>
		</g>
	</g>
</g>
<g id="freccia_10">
	<g>

			<line fill="none" stroke="#000000" stroke-width="2" stroke-linecap="round" stroke-miterlimit="10" x1="418.442" y1="383.732" x2="385.427" y2="383.732"/>
		<g>
			<polygon points="387.761,375.754 373.946,383.732 387.761,391.71 			"/>
		</g>
	</g>
</g>
<g id="freccia_11">
	<g>

			<line fill="none" stroke="#000000" stroke-width="2" stroke-linecap="round" stroke-miterlimit="10" x1="237.58" y1="383.732" x2="204.564" y2="383.732"/>
		<g>
			<polygon points="206.899,375.754 193.083,383.732 206.899,391.71 			"/>
		</g>
	</g>
</g>
<g id="tools_1_3_">
	<g id="Tools_1_30_">
		<circle fill="#72B62B" cx="109.524" cy="109.762" r="9.695"/>
	</g>
	<g>
		<path fill="none" stroke="#FFFFFF" stroke-linecap="round" stroke-linejoin="round" stroke-miterlimit="10" d="M105.678,108.017
			c0.036,0.003,0.072,0.011,0.105,0.028c0.05,0.028,0.11,0.019,0.152-0.022l1.355-1.355c0.061-0.061,0.061-0.16,0-0.221
			c-0.075-0.075-0.075-0.196,0-0.271l0.37-0.37c0.075-0.075,0.196-0.075,0.271,0l0.11,0.11l0.883-0.883
			c0.213-0.213,0.213-0.555,0-0.765l-1.176-1.176c-0.213-0.213-0.555-0.213-0.765,0l-0.883,0.883l0.091,0.091
			c0.097,0.097,0.097,0.257,0,0.353l-0.284,0.284c-0.097,0.097-0.257,0.097-0.353,0c-0.05-0.05-0.13-0.05-0.179,0L104,106.079
			c-0.05,0.05-0.05,0.132,0,0.182c0.05,0.05,0.058,0.13,0.017,0.19c-1.775,2.622-0.516,3.906-0.516,3.906
			c0.157-1.148,1.126-2.214,2.076-2.341C105.606,108.014,105.645,108.014,105.678,108.017z"/>
		<path fill="none" stroke="#FFFFFF" stroke-linecap="round" stroke-linejoin="round" stroke-miterlimit="10" d="M114.884,113.717
			l-7.119-6.581l-1.292,1.292l6.578,7.119c0.362,0.386,0.972,0.397,1.347,0.022l0.508-0.508
			C115.281,114.689,115.27,114.079,114.884,113.717z"/>
		<path fill="none" stroke="#FFFFFF" stroke-linecap="round" stroke-linejoin="round" stroke-miterlimit="10" d="M105.402,114.126
			c-0.395,0.395-0.395,1.032,0,1.427l0,0c0.395,0.395,1.032,0.395,1.427,0l2.832-2.832l-1.372-1.482L105.402,114.126z"/>
		<path fill="none" stroke="#FFFFFF" stroke-linecap="round" stroke-linejoin="round" stroke-miterlimit="10" d="M116.244,106.505
			l-1.543,1.543c-0.119,0.119-0.298,0.157-0.455,0.099l-0.864-0.323c-0.116-0.044-0.21-0.135-0.251-0.251l-0.323-0.864
			c-0.058-0.157-0.019-0.337,0.099-0.455l1.543-1.543c-0.812-0.199-1.703,0.019-2.332,0.657c-0.693,0.701-0.875,1.722-0.549,2.592
			l-0.996,0.996l1.482,1.372l0.939-0.939c0.875,0.331,1.902,0.144,2.606-0.56C116.228,108.197,116.443,107.311,116.244,106.505z"/>
	</g>
</g>
<g id="tools_2_3_">
	<g id="Tools_1_29_">
		<circle fill="#72B62B" cx="307.236" cy="110.288" r="9.695"/>
	</g>
	<g>
		<path fill="none" stroke="#FFFFFF" stroke-linecap="round" stroke-linejoin="round" stroke-miterlimit="10" d="M303.39,108.543
			c0.036,0.003,0.072,0.011,0.105,0.028c0.05,0.028,0.11,0.019,0.152-0.022l1.355-1.355c0.061-0.061,0.061-0.16,0-0.221
			c-0.075-0.075-0.075-0.196,0-0.271l0.37-0.37c0.075-0.075,0.196-0.075,0.271,0l0.11,0.11l0.883-0.883
			c0.213-0.213,0.213-0.555,0-0.765l-1.176-1.176c-0.213-0.213-0.555-0.213-0.765,0l-0.883,0.883l0.091,0.091
			c0.097,0.097,0.097,0.257,0,0.353l-0.284,0.284c-0.097,0.097-0.257,0.097-0.353,0c-0.05-0.05-0.13-0.05-0.179,0l-1.375,1.375
			c-0.05,0.05-0.05,0.132,0,0.182c0.05,0.05,0.058,0.13,0.017,0.19c-1.775,2.622-0.516,3.906-0.516,3.906
			c0.157-1.148,1.126-2.214,2.076-2.341C303.319,108.54,303.357,108.54,303.39,108.543z"/>
		<path fill="none" stroke="#FFFFFF" stroke-linecap="round" stroke-linejoin="round" stroke-miterlimit="10" d="M312.596,114.243
			l-7.119-6.581l-1.292,1.292l6.578,7.119c0.362,0.386,0.972,0.397,1.347,0.022l0.508-0.508
			C312.994,115.215,312.982,114.605,312.596,114.243z"/>
		<path fill="none" stroke="#FFFFFF" stroke-linecap="round" stroke-linejoin="round" stroke-miterlimit="10" d="M303.114,114.652
			c-0.395,0.395-0.395,1.032,0,1.427l0,0c0.395,0.395,1.032,0.395,1.427,0l2.832-2.832l-1.372-1.482L303.114,114.652z"/>
		<path fill="none" stroke="#FFFFFF" stroke-linecap="round" stroke-linejoin="round" stroke-miterlimit="10" d="M313.957,107.031
			l-1.543,1.543c-0.119,0.119-0.298,0.157-0.455,0.099l-0.864-0.323c-0.116-0.044-0.21-0.135-0.251-0.251l-0.323-0.864
			c-0.058-0.157-0.019-0.337,0.099-0.455l1.543-1.543c-0.812-0.199-1.703,0.019-2.332,0.657c-0.693,0.701-0.875,1.722-0.549,2.592
			l-0.996,0.996l1.482,1.372l0.939-0.939c0.875,0.331,1.902,0.144,2.606-0.56C313.94,108.723,314.156,107.837,313.957,107.031z"/>
	</g>
</g>
<g id="tools_3_3_">
	<g id="Tools_1_28_">
		<circle fill="#72B62B" cx="519.153" cy="108.71" r="9.695"/>
	</g>
	<g>
		<path fill="none" stroke="#FFFFFF" stroke-linecap="round" stroke-linejoin="round" stroke-miterlimit="10" d="M515.307,106.965
			c0.036,0.003,0.072,0.011,0.105,0.028c0.05,0.028,0.11,0.019,0.152-0.022l1.355-1.355c0.061-0.061,0.061-0.16,0-0.221
			c-0.075-0.075-0.075-0.196,0-0.271l0.37-0.37c0.075-0.075,0.196-0.075,0.271,0l0.11,0.11l0.883-0.883
			c0.213-0.213,0.213-0.555,0-0.765l-1.176-1.176c-0.213-0.213-0.555-0.213-0.765,0l-0.883,0.883l0.091,0.091
			c0.097,0.097,0.097,0.257,0,0.353l-0.284,0.284c-0.097,0.097-0.257,0.097-0.353,0c-0.05-0.05-0.13-0.05-0.179,0l-1.375,1.375
			c-0.05,0.05-0.05,0.132,0,0.182c0.05,0.05,0.058,0.13,0.017,0.19c-1.775,2.622-0.516,3.906-0.516,3.906
			c0.157-1.148,1.126-2.214,2.076-2.341C515.235,106.962,515.274,106.962,515.307,106.965z"/>
		<path fill="none" stroke="#FFFFFF" stroke-linecap="round" stroke-linejoin="round" stroke-miterlimit="10" d="M524.513,112.665
			l-7.119-6.581l-1.292,1.292l6.578,7.119c0.362,0.386,0.972,0.397,1.347,0.022l0.508-0.508
			C524.91,113.637,524.899,113.027,524.513,112.665z"/>
		<path fill="none" stroke="#FFFFFF" stroke-linecap="round" stroke-linejoin="round" stroke-miterlimit="10" d="M515.031,113.074
			c-0.395,0.395-0.395,1.032,0,1.427l0,0c0.395,0.395,1.032,0.395,1.427,0l2.832-2.832l-1.372-1.482L515.031,113.074z"/>
		<path fill="none" stroke="#FFFFFF" stroke-linecap="round" stroke-linejoin="round" stroke-miterlimit="10" d="M525.874,105.452
			l-1.543,1.543c-0.119,0.119-0.298,0.157-0.455,0.099l-0.864-0.323c-0.116-0.044-0.21-0.135-0.251-0.251l-0.323-0.864
			c-0.058-0.157-0.019-0.337,0.099-0.455l1.543-1.543c-0.812-0.199-1.703,0.019-2.332,0.657c-0.693,0.701-0.875,1.722-0.549,2.592
			l-0.996,0.996l1.482,1.372l0.938-0.939c0.875,0.331,1.902,0.144,2.606-0.56C525.857,107.145,526.072,106.259,525.874,105.452z"/>
	</g>
</g>
<g id="tools_4_3_">
	<g id="Tools_1_27_">
		<circle fill="#72B62B" cx="715.076" cy="110.878" r="9.695"/>
	</g>
	<g>
		<path fill="none" stroke="#FFFFFF" stroke-linecap="round" stroke-linejoin="round" stroke-miterlimit="10" d="M711.23,109.134
			c0.036,0.003,0.072,0.011,0.105,0.028c0.05,0.028,0.11,0.019,0.152-0.022l1.355-1.355c0.061-0.061,0.061-0.16,0-0.221
			c-0.075-0.075-0.075-0.196,0-0.271l0.37-0.37c0.075-0.075,0.196-0.075,0.271,0l0.11,0.11l0.883-0.883
			c0.213-0.213,0.213-0.555,0-0.765l-1.176-1.176c-0.213-0.213-0.555-0.213-0.765,0l-0.883,0.883l0.091,0.091
			c0.097,0.097,0.097,0.257,0,0.353l-0.284,0.284c-0.097,0.097-0.257,0.097-0.353,0c-0.05-0.05-0.13-0.05-0.179,0l-1.375,1.375
			c-0.05,0.05-0.05,0.132,0,0.182c0.05,0.05,0.058,0.13,0.017,0.19c-1.775,2.622-0.516,3.906-0.516,3.906
			c0.157-1.148,1.126-2.214,2.076-2.341C711.158,109.131,711.197,109.131,711.23,109.134z"/>
		<path fill="none" stroke="#FFFFFF" stroke-linecap="round" stroke-linejoin="round" stroke-miterlimit="10" d="M720.435,114.834
			l-7.119-6.581l-1.292,1.292l6.578,7.119c0.362,0.386,0.972,0.397,1.347,0.022l0.508-0.508
			C720.833,115.805,720.822,115.195,720.435,114.834z"/>
		<path fill="none" stroke="#FFFFFF" stroke-linecap="round" stroke-linejoin="round" stroke-miterlimit="10" d="M710.954,115.242
			c-0.395,0.395-0.395,1.032,0,1.427l0,0c0.395,0.395,1.032,0.395,1.427,0l2.832-2.832l-1.372-1.482L710.954,115.242z"/>
		<path fill="none" stroke="#FFFFFF" stroke-linecap="round" stroke-linejoin="round" stroke-miterlimit="10" d="M721.796,107.621
			l-1.543,1.543c-0.119,0.119-0.298,0.157-0.455,0.099l-0.864-0.323c-0.116-0.044-0.21-0.135-0.251-0.251l-0.323-0.864
			c-0.058-0.157-0.019-0.337,0.099-0.455l1.543-1.543c-0.812-0.199-1.703,0.019-2.332,0.657c-0.693,0.701-0.875,1.722-0.549,2.592
			l-0.996,0.996l1.482,1.372l0.939-0.939c0.875,0.331,1.902,0.144,2.606-0.56C721.78,109.313,721.995,108.427,721.796,107.621z"/>
	</g>
</g>
<g id="tools_5_3_">
	<g id="Tools_1_26_">
		<circle fill="#72B62B" cx="919.706" cy="108.564" r="9.695"/>
	</g>
	<g>
		<path fill="none" stroke="#FFFFFF" stroke-linecap="round" stroke-linejoin="round" stroke-miterlimit="10" d="M915.86,106.819
			c0.036,0.003,0.072,0.011,0.105,0.028c0.05,0.028,0.11,0.019,0.152-0.022l1.355-1.355c0.061-0.061,0.061-0.16,0-0.221
			c-0.075-0.075-0.075-0.196,0-0.271l0.37-0.37c0.075-0.075,0.196-0.075,0.271,0l0.11,0.11l0.883-0.883
			c0.213-0.213,0.213-0.555,0-0.765l-1.176-1.176c-0.213-0.213-0.555-0.213-0.765,0l-0.883,0.883l0.091,0.091
			c0.097,0.097,0.097,0.257,0,0.353l-0.284,0.284c-0.097,0.097-0.257,0.097-0.353,0c-0.05-0.05-0.13-0.05-0.179,0l-1.375,1.375
			c-0.05,0.05-0.05,0.132,0,0.182c0.05,0.05,0.058,0.13,0.017,0.19c-1.775,2.622-0.516,3.906-0.516,3.906
			c0.157-1.148,1.126-2.214,2.076-2.341C915.788,106.816,915.827,106.816,915.86,106.819z"/>
		<path fill="none" stroke="#FFFFFF" stroke-linecap="round" stroke-linejoin="round" stroke-miterlimit="10" d="M925.065,112.519
			l-7.119-6.581l-1.292,1.292l6.578,7.119c0.362,0.386,0.972,0.397,1.347,0.022l0.508-0.508
			C925.463,113.491,925.452,112.881,925.065,112.519z"/>
		<path fill="none" stroke="#FFFFFF" stroke-linecap="round" stroke-linejoin="round" stroke-miterlimit="10" d="M915.584,112.928
			c-0.395,0.395-0.395,1.032,0,1.427l0,0c0.395,0.395,1.032,0.395,1.427,0l2.832-2.832l-1.372-1.482L915.584,112.928z"/>
		<path fill="none" stroke="#FFFFFF" stroke-linecap="round" stroke-linejoin="round" stroke-miterlimit="10" d="M926.426,105.306
			l-1.543,1.543c-0.119,0.119-0.298,0.157-0.456,0.099l-0.864-0.323c-0.116-0.044-0.21-0.135-0.251-0.251l-0.323-0.864
			c-0.058-0.157-0.019-0.337,0.099-0.455l1.543-1.543c-0.812-0.199-1.703,0.019-2.332,0.657c-0.693,0.701-0.875,1.722-0.549,2.592
			l-0.996,0.996l1.482,1.372l0.938-0.939c0.875,0.331,1.902,0.144,2.606-0.56C926.41,106.998,926.625,106.112,926.426,105.306z"/>
	</g>
</g>
<g id="tools_6_3_">
	<g id="Tools_1_25_">
		<circle fill="#72B62B" cx="917.494" cy="354.478" r="9.695"/>
	</g>
	<g>
		<path fill="none" stroke="#FFFFFF" stroke-linecap="round" stroke-linejoin="round" stroke-miterlimit="10" d="M913.648,352.734
			c0.036,0.003,0.072,0.011,0.105,0.028c0.05,0.028,0.11,0.019,0.152-0.022l1.355-1.355c0.061-0.061,0.061-0.16,0-0.221
			c-0.075-0.075-0.075-0.196,0-0.271l0.37-0.37c0.075-0.075,0.196-0.075,0.271,0l0.11,0.11l0.883-0.883
			c0.213-0.213,0.213-0.555,0-0.765l-1.176-1.176c-0.213-0.213-0.555-0.213-0.765,0l-0.883,0.883l0.091,0.091
			c0.097,0.097,0.097,0.257,0,0.353l-0.284,0.284c-0.097,0.097-0.257,0.097-0.353,0c-0.05-0.05-0.13-0.05-0.179,0l-1.375,1.375
			c-0.05,0.05-0.05,0.133,0,0.182s0.058,0.13,0.017,0.19c-1.775,2.622-0.516,3.906-0.516,3.906c0.157-1.148,1.126-2.214,2.076-2.341
			C913.576,352.731,913.615,352.731,913.648,352.734z"/>
		<path fill="none" stroke="#FFFFFF" stroke-linecap="round" stroke-linejoin="round" stroke-miterlimit="10" d="M922.854,358.434
			l-7.119-6.581l-1.292,1.292l6.578,7.119c0.362,0.386,0.972,0.397,1.347,0.022l0.508-0.508
			C923.251,359.405,923.24,358.795,922.854,358.434z"/>
		<path fill="none" stroke="#FFFFFF" stroke-linecap="round" stroke-linejoin="round" stroke-miterlimit="10" d="M913.372,358.842
			c-0.395,0.395-0.395,1.032,0,1.427l0,0c0.395,0.395,1.032,0.395,1.427,0l2.832-2.832l-1.372-1.482L913.372,358.842z"/>
		<path fill="none" stroke="#FFFFFF" stroke-linecap="round" stroke-linejoin="round" stroke-miterlimit="10" d="M924.214,351.221
			l-1.543,1.543c-0.119,0.119-0.298,0.157-0.455,0.099l-0.864-0.323c-0.116-0.044-0.21-0.135-0.251-0.251l-0.323-0.864
			c-0.058-0.157-0.019-0.337,0.099-0.455l1.543-1.543c-0.812-0.199-1.703,0.019-2.332,0.657c-0.693,0.701-0.875,1.722-0.549,2.592
			l-0.996,0.996l1.482,1.372l0.938-0.939c0.875,0.331,1.902,0.144,2.606-0.56C924.198,352.913,924.413,352.027,924.214,351.221z"/>
	</g>
</g>
<g id="tools_7_3_">
	<g id="Tools_1_16_">
		<circle fill="#72B62B" cx="508.15" cy="355.44" r="9.695"/>
	</g>
	<g>
		<path fill="none" stroke="#FFFFFF" stroke-linecap="round" stroke-linejoin="round" stroke-miterlimit="10" d="M504.304,353.695
			c0.036,0.003,0.072,0.011,0.105,0.028c0.05,0.028,0.11,0.019,0.152-0.022l1.355-1.355c0.061-0.061,0.061-0.16,0-0.221
			c-0.075-0.075-0.075-0.196,0-0.271l0.37-0.37c0.075-0.075,0.196-0.075,0.271,0l0.11,0.11l0.883-0.883
			c0.213-0.213,0.213-0.555,0-0.765l-1.176-1.176c-0.213-0.213-0.555-0.213-0.765,0l-0.883,0.883l0.091,0.091
			c0.097,0.097,0.097,0.257,0,0.353l-0.284,0.284c-0.097,0.097-0.257,0.097-0.353,0c-0.05-0.05-0.13-0.05-0.179,0l-1.375,1.375
			c-0.05,0.05-0.05,0.133,0,0.182s0.058,0.13,0.017,0.19c-1.775,2.622-0.516,3.906-0.516,3.906c0.157-1.148,1.126-2.214,2.076-2.341
			C504.232,353.692,504.271,353.692,504.304,353.695z"/>
		<path fill="none" stroke="#FFFFFF" stroke-linecap="round" stroke-linejoin="round" stroke-miterlimit="10" d="M513.51,359.395
			l-7.119-6.581l-1.292,1.292l6.578,7.119c0.362,0.386,0.972,0.397,1.347,0.022l0.508-0.508
			C513.907,360.367,513.896,359.757,513.51,359.395z"/>
		<path fill="none" stroke="#FFFFFF" stroke-linecap="round" stroke-linejoin="round" stroke-miterlimit="10" d="M504.028,359.803
			c-0.395,0.395-0.395,1.032,0,1.427l0,0c0.395,0.395,1.032,0.395,1.427,0l2.832-2.832l-1.372-1.482L504.028,359.803z"/>
		<path fill="none" stroke="#FFFFFF" stroke-linecap="round" stroke-linejoin="round" stroke-miterlimit="10" d="M514.871,352.182
			l-1.543,1.543c-0.119,0.119-0.298,0.157-0.455,0.099l-0.864-0.323c-0.116-0.044-0.21-0.135-0.251-0.251l-0.323-0.864
			c-0.058-0.157-0.019-0.337,0.099-0.455l1.543-1.543c-0.812-0.199-1.703,0.019-2.332,0.657c-0.693,0.701-0.875,1.722-0.549,2.592
			l-0.996,0.996l1.482,1.372l0.939-0.939c0.875,0.331,1.902,0.144,2.606-0.56C514.854,353.874,515.069,352.988,514.871,352.182z"/>
	</g>
</g>
<g id="cappello_1">
	<circle fill="#D02517" cx="64.378" cy="109.765" r="9.715"/>
	<g>
		<path fill="none" stroke="#FFFFFF" stroke-miterlimit="10" d="M68.506,109.814c-0.034-0.368-0.069-0.796-0.101-1.263
			c-0.103-1.502-0.875-2.869-1.373-3.131c-0.098-0.052-0.252-0.062-0.436-0.047c-0.748,0.064-2.016,0.566-2.279,0.565
			c-0.201-0.001-1.035-0.204-1.765-0.25c-0.464-0.029-0.886,0.005-1.078,0.196c-0.3,0.298-0.542,2.024-0.686,3.335
			c-1.843,0.304-3.088,0.957-3.15,1.797c-0.099,1.345,2.87,2.66,6.632,2.937c3.762,0.277,6.891-0.588,6.991-1.933
			C71.32,111.197,70.227,110.384,68.506,109.814z"/>
		<g>
			<path fill="#FFFFFF" d="M60.574,111.071l0.078-0.757c0.011,0.007,1.362,0.747,4.028,0.888c2.77,0.147,3.937-0.439,3.937-0.439
				l0.141,0.69c-0.257,0.205-1.058,0.77-4.113,0.608C62.722,111.959,61.118,111.409,60.574,111.071z"/>
		</g>
		<line fill="none" stroke="#FFFFFF" stroke-miterlimit="10" x1="60.574" y1="111.07" x2="60.787" y2="109.22"/>
		<line fill="none" stroke="#FFFFFF" stroke-miterlimit="10" x1="68.506" y1="109.814" x2="68.621" y2="111.371"/>
	</g>
</g>
<g id="cappello_2_3_">
	<circle fill="#D02517" cx="261.152" cy="111.134" r="9.715"/>
	<g>
		<path fill="none" stroke="#FFFFFF" stroke-miterlimit="10" d="M265.279,111.183c-0.034-0.368-0.069-0.796-0.101-1.263
			c-0.103-1.502-0.875-2.869-1.373-3.131c-0.098-0.052-0.252-0.062-0.436-0.047c-0.748,0.064-2.016,0.566-2.279,0.565
			c-0.201-0.001-1.035-0.204-1.765-0.25c-0.464-0.029-0.886,0.005-1.078,0.196c-0.3,0.298-0.542,2.024-0.686,3.335
			c-1.843,0.304-3.088,0.957-3.15,1.797c-0.099,1.345,2.87,2.66,6.632,2.937c3.762,0.277,6.891-0.588,6.991-1.933
			C268.094,112.565,267,111.753,265.279,111.183z"/>
		<g>
			<path fill="#FFFFFF" d="M257.347,112.439l0.078-0.757c0.011,0.007,1.362,0.747,4.028,0.888c2.77,0.147,3.937-0.439,3.937-0.439
				l0.141,0.69c-0.257,0.205-1.058,0.77-4.113,0.608C259.495,113.328,257.891,112.778,257.347,112.439z"/>
		</g>
		<line fill="none" stroke="#FFFFFF" stroke-miterlimit="10" x1="257.348" y1="112.438" x2="257.56" y2="110.588"/>
		<line fill="none" stroke="#FFFFFF" stroke-miterlimit="10" x1="265.279" y1="111.183" x2="265.395" y2="112.739"/>
	</g>
</g>
<g id="cappello_3_3_">
	<circle fill="#D02517" cx="470.238" cy="110.186" r="9.715"/>
	<g>
		<path fill="none" stroke="#FFFFFF" stroke-miterlimit="10" d="M474.365,110.236c-0.034-0.368-0.069-0.796-0.101-1.263
			c-0.103-1.502-0.875-2.869-1.373-3.131c-0.098-0.052-0.252-0.062-0.436-0.047c-0.748,0.064-2.016,0.566-2.279,0.565
			c-0.201-0.001-1.035-0.204-1.765-0.25c-0.464-0.029-0.886,0.005-1.078,0.196c-0.3,0.298-0.542,2.024-0.686,3.335
			c-1.843,0.304-3.088,0.957-3.15,1.797c-0.099,1.345,2.87,2.66,6.632,2.937c3.762,0.277,6.891-0.588,6.991-1.933
			C477.18,111.618,476.086,110.805,474.365,110.236z"/>
		<g>
			<path fill="#FFFFFF" d="M466.434,111.492l0.078-0.757c0.011,0.007,1.362,0.747,4.028,0.888c2.77,0.147,3.937-0.439,3.937-0.439
				l0.141,0.69c-0.257,0.205-1.058,0.77-4.113,0.608C468.581,112.38,466.977,111.831,466.434,111.492z"/>
		</g>
		<line fill="none" stroke="#FFFFFF" stroke-miterlimit="10" x1="466.434" y1="111.491" x2="466.647" y2="109.641"/>
		<line fill="none" stroke="#FFFFFF" stroke-miterlimit="10" x1="474.365" y1="110.236" x2="474.481" y2="111.792"/>
	</g>
</g>
<g id="cappello_4_3_">
	<circle fill="#D02517" cx="666.161" cy="110.878" r="9.715"/>
	<g>
		<path fill="none" stroke="#FFFFFF" stroke-miterlimit="10" d="M670.288,110.928c-0.034-0.368-0.069-0.796-0.101-1.263
			c-0.103-1.502-0.875-2.869-1.373-3.131c-0.098-0.052-0.252-0.062-0.436-0.047c-0.748,0.064-2.016,0.566-2.279,0.565
			c-0.201-0.001-1.035-0.204-1.765-0.25c-0.464-0.029-0.886,0.005-1.078,0.196c-0.3,0.298-0.542,2.024-0.685,3.335
			c-1.843,0.304-3.088,0.957-3.15,1.797c-0.099,1.345,2.87,2.66,6.632,2.937c3.762,0.277,6.891-0.588,6.991-1.933
			C673.102,112.31,672.009,111.497,670.288,110.928z"/>
		<g>
			<path fill="#FFFFFF" d="M662.356,112.184l0.078-0.757c0.011,0.007,1.362,0.747,4.028,0.888c2.77,0.147,3.937-0.439,3.937-0.439
				l0.141,0.69c-0.257,0.205-1.058,0.77-4.113,0.608C664.504,113.072,662.9,112.523,662.356,112.184z"/>
		</g>
		<line fill="none" stroke="#FFFFFF" stroke-miterlimit="10" x1="662.356" y1="112.183" x2="662.569" y2="110.333"/>
		<line fill="none" stroke="#FFFFFF" stroke-miterlimit="10" x1="670.288" y1="110.928" x2="670.404" y2="112.484"/>
	</g>
</g>
<g id="cappello_5_3_">
	<circle fill="#D02517" cx="870.735" cy="111.415" r="9.715"/>
	<g>
		<path fill="none" stroke="#FFFFFF" stroke-miterlimit="10" d="M874.863,111.464c-0.034-0.368-0.069-0.796-0.101-1.263
			c-0.103-1.502-0.875-2.869-1.373-3.131c-0.098-0.052-0.252-0.062-0.436-0.047c-0.748,0.064-2.016,0.566-2.279,0.565
			c-0.201-0.001-1.035-0.204-1.765-0.25c-0.464-0.029-0.886,0.005-1.078,0.196c-0.3,0.298-0.542,2.024-0.686,3.335
			c-1.843,0.304-3.088,0.957-3.15,1.797c-0.099,1.345,2.87,2.66,6.632,2.937c3.762,0.277,6.891-0.588,6.991-1.933
			C877.677,112.847,876.584,112.034,874.863,111.464z"/>
		<g>
			<path fill="#FFFFFF" d="M866.931,112.72l0.078-0.757c0.011,0.007,1.362,0.747,4.028,0.888c2.77,0.147,3.937-0.439,3.937-0.439
				l0.141,0.69c-0.257,0.205-1.058,0.77-4.113,0.608C869.079,113.609,867.475,113.059,866.931,112.72z"/>
		</g>
		<line fill="none" stroke="#FFFFFF" stroke-miterlimit="10" x1="866.931" y1="112.72" x2="867.144" y2="110.869"/>
		<line fill="none" stroke="#FFFFFF" stroke-miterlimit="10" x1="874.863" y1="111.464" x2="874.978" y2="113.021"/>
	</g>
</g>
<g id="cappello_6_3_">
	<circle fill="#D02517" cx="867.477" cy="353.844" r="9.715"/>
	<g>
		<path fill="none" stroke="#FFFFFF" stroke-miterlimit="10" d="M871.604,353.893c-0.034-0.368-0.069-0.796-0.101-1.263
			c-0.103-1.502-0.875-2.869-1.373-3.131c-0.098-0.052-0.252-0.062-0.436-0.047c-0.748,0.064-2.016,0.566-2.279,0.565
			c-0.201-0.001-1.035-0.204-1.765-0.25c-0.464-0.029-0.886,0.005-1.078,0.196c-0.3,0.298-0.542,2.025-0.686,3.335
			c-1.843,0.304-3.088,0.957-3.15,1.797c-0.099,1.345,2.87,2.66,6.632,2.937c3.762,0.277,6.891-0.588,6.991-1.933
			C874.419,355.276,873.325,354.463,871.604,353.893z"/>
		<g>
			<path fill="#FFFFFF" d="M863.672,355.149l0.078-0.757c0.011,0.007,1.362,0.747,4.028,0.888c2.77,0.147,3.937-0.439,3.937-0.439
				l0.141,0.69c-0.257,0.205-1.058,0.77-4.113,0.608C865.82,356.038,864.216,355.488,863.672,355.149z"/>
		</g>
		<line fill="none" stroke="#FFFFFF" stroke-miterlimit="10" x1="863.672" y1="355.149" x2="863.885" y2="353.298"/>
		<line fill="none" stroke="#FFFFFF" stroke-miterlimit="10" x1="871.604" y1="353.893" x2="871.72" y2="355.45"/>
	</g>
</g>
<g id="cappello_7_4_">
	<circle fill="#D02517" cx="459.2" cy="355.966" r="9.715"/>
	<g>
		<path fill="none" stroke="#FFFFFF" stroke-miterlimit="10" d="M463.327,356.015c-0.034-0.368-0.069-0.796-0.101-1.263
			c-0.103-1.502-0.875-2.869-1.373-3.131c-0.098-0.052-0.252-0.062-0.436-0.047c-0.748,0.064-2.016,0.566-2.279,0.565
			c-0.201-0.001-1.035-0.204-1.765-0.25c-0.464-0.029-0.886,0.005-1.078,0.196c-0.3,0.298-0.542,2.024-0.686,3.335
			c-1.843,0.304-3.088,0.957-3.15,1.797c-0.099,1.345,2.87,2.66,6.632,2.937c3.762,0.277,6.891-0.588,6.991-1.933
			C466.142,357.397,465.048,356.585,463.327,356.015z"/>
		<g>
			<path fill="#FFFFFF" d="M455.395,357.271l0.078-0.757c0.011,0.007,1.362,0.747,4.028,0.888c2.77,0.147,3.937-0.439,3.937-0.439
				l0.141,0.69c-0.257,0.205-1.058,0.77-4.113,0.608C457.543,358.16,455.939,357.61,455.395,357.271z"/>
		</g>
		<line fill="none" stroke="#FFFFFF" stroke-miterlimit="10" x1="455.396" y1="357.27" x2="455.609" y2="355.42"/>
		<line fill="none" stroke="#FFFFFF" stroke-miterlimit="10" x1="463.327" y1="356.015" x2="463.443" y2="357.571"/>
	</g>
</g>
<g id="super_freccia">

		<line fill="none" stroke="#000000" stroke-width="2" stroke-linecap="round" stroke-miterlimit="10" x1="297.541" y1="439.588" x2="297.541" y2="476.769"/>
	<g>
		<g>

				<line fill="none" stroke="#000000" stroke-width="2" stroke-linecap="round" stroke-miterlimit="10" x1="917.631" y1="441.61" x2="917.631" y2="476.062"/>
			<g>
				<polygon points="909.852,443.886 917.63,430.416 925.409,443.886 				"/>
			</g>
		</g>
	</g>

		<line fill="none" stroke="#000000" stroke-width="2" stroke-linecap="round" stroke-miterlimit="10" x1="297.541" y1="476.769" x2="917.631" y2="476.769"/>
</g>
</svg>
