<?xml version="1.0" encoding="utf-8"?>
<!-- Generator: Adobe Illustrator 17.0.0, SVG Export Plug-In . SVG Version: 6.00 Build 0)  -->
<!DOCTYPE svg PUBLIC "-//W3C//DTD SVG 1.1//EN" "http://www.w3.org/Graphics/SVG/1.1/DTD/svg11.dtd">
<svg version="1.1" id="Livello_1" xmlns="http://www.w3.org/2000/svg" xmlns:xlink="http://www.w3.org/1999/xlink" x="0px" y="0px"
	 width="872.219px" height="699.839px" viewBox="0 0 872.219 699.839" enable-background="new 0 0 872.219 699.839"
	 xml:space="preserve">
<g id="cappello_1_1_">
	<circle fill="#D02517" cx="80.542" cy="37.344" r="13.937"/>
	<g>
		<path fill="none" stroke="#FFFFFF" stroke-miterlimit="10" d="M86.463,37.415c-0.048-0.528-0.099-1.141-0.145-1.812
			c-0.148-2.154-1.255-4.116-1.969-4.492c-0.141-0.074-0.361-0.09-0.625-0.067c-1.073,0.091-2.891,0.812-3.27,0.811
			c-0.288-0.001-1.484-0.293-2.532-0.359c-0.666-0.042-1.272,0.007-1.547,0.281c-0.43,0.428-0.777,2.904-0.983,4.784
			c-2.644,0.436-4.429,1.373-4.518,2.579c-0.142,1.929,4.117,3.816,9.513,4.213c5.396,0.398,9.886-0.844,10.028-2.773
			C90.5,39.398,88.932,38.232,86.463,37.415z"/>
		<g>
			<path fill="#FFFFFF" d="M75.084,39.217l0.112-1.085c0.016,0.01,1.954,1.071,5.779,1.274c3.973,0.211,5.647-0.63,5.647-0.63
				l0.202,0.99c-0.369,0.294-1.518,1.104-5.9,0.872C78.165,40.491,75.864,39.703,75.084,39.217z"/>
		</g>
		<line fill="none" stroke="#FFFFFF" stroke-miterlimit="10" x1="75.085" y1="39.216" x2="75.39" y2="36.562"/>
		<line fill="none" stroke="#FFFFFF" stroke-miterlimit="10" x1="86.463" y1="37.415" x2="86.629" y2="39.648"/>
	</g>
</g>
<polyline id="quadrato_blu_1" fill="#0384B3" stroke="#0283B2" stroke-width="14" stroke-linecap="round" stroke-linejoin="round" stroke-miterlimit="10" points="
	79.216,40.402 216.347,48.318 224.144,105.906 94.771,102.296 79.216,41.426 "/>
<polyline id="cornice_1" fill="none" stroke="#050A0C" stroke-width="2" stroke-linecap="round" stroke-linejoin="round" stroke-miterlimit="10" points="
	230.108,107.587 87.631,98.733 79.792,38.849 214.226,43.193 230.108,107.587 "/>
<text id="Collect_requirement" transform="matrix(1 0 0 1 125.145 68.7422)"><tspan x="0" y="0" fill="#FFFFFF" font-family="'BebasNeue'" font-size="20.6503">Collect</tspan><tspan x="-16.995" y="24.78" fill="#FFFFFF" font-family="'BebasNeue'" font-size="20.6503">requirements</tspan></text>
<g id="lavagna_1">
	<circle fill="#514998" cx="208.716" cy="38.849" r="13.908"/>
	<g>
		<path fill="#FFFFFF" d="M201.364,31.758v13.172h10.055c0-0.285,0-0.571,0-0.856h-9.299v-11.46h13.229v6.534c0.245,0,0.5,0,0.756,0
			v-7.389H201.364z"/>

			<line fill="#FFFFFF" stroke="#FFFFFF" stroke-linecap="round" stroke-miterlimit="10" x1="211.249" y1="39.33" x2="217.527" y2="45.608"/>
	</g>
</g>
<polyline id="quadrato_viola" fill="#A786BC" stroke="#A685BC" stroke-width="5" stroke-linecap="round" stroke-linejoin="round" stroke-miterlimit="10" points="
	496.211,42.365 361.345,41.968 350.422,115.456 497.652,96.122 496.211,42.365 "/>
<polyline id="cornice_2" fill="none" stroke="#050A0C" stroke-width="2" stroke-linecap="round" stroke-linejoin="round" stroke-miterlimit="10" points="
	346.122,110.959 491.602,101.918 499.607,40.772 362.339,45.207 346.122,110.959 "/>
<g id="Formalize_requirement">
	<text transform="matrix(1 0 0 1 389.5952 69.9146)"><tspan x="0" y="0" fill="#FFFFFF" font-family="'BebasNeue'" font-size="20.6503">Formalize</tspan><tspan x="-8.869" y="24.78" fill="#FFFFFF" font-family="'BebasNeue'" font-size="20.6503">requirements</tspan></text>
</g>
<g id="complete__module">
	<text transform="matrix(1 0 0 1 398.7539 247.0297)"><tspan x="0" y="0" fill="#0E8C99" font-family="'BebasNeue'" font-size="20.6503">Is the module </tspan><tspan x="8.632" y="24.78" fill="#0E8C99" font-family="'BebasNeue'" font-size="20.6503">complete?</tspan></text>
</g>
<g id="freccia_3">
	<g>
		<g>

				<line fill="none" stroke="#000000" stroke-width="2" stroke-linecap="round" stroke-miterlimit="10" x1="732.523" y1="121.398" x2="732.44" y2="180.983"/>
			<g>
				<polygon points="724.665,178.696 732.424,192.177 740.221,178.718 				"/>
			</g>
		</g>
	</g>
</g>
<g id="freccia_4">
	<g>
		<g>

				<line fill="none" stroke="#000000" stroke-width="2" stroke-linecap="round" stroke-miterlimit="10" x1="737.523" y1="302.224" x2="737.44" y2="361.809"/>
			<g>
				<polygon points="729.665,359.522 737.424,373.003 745.221,359.543 				"/>
			</g>
		</g>
	</g>
</g>
<g id="freccia_verso_alto_6">
	<g>
		<g>

				<line fill="none" stroke="#000000" stroke-width="2" stroke-linecap="round" stroke-miterlimit="10" x1="436.416" y1="382.205" x2="436.498" y2="322.621"/>
			<g>
				<polygon points="444.274,324.908 436.515,311.427 428.717,324.886 				"/>
			</g>
		</g>
	</g>
</g>
<g id="freccia_verso_il_basso_9">
	<g>
		<g>

				<line fill="none" stroke="#000000" stroke-width="2" stroke-linecap="round" stroke-miterlimit="10" x1="141.079" y1="297.084" x2="141.162" y2="356.668"/>
			<g>
				<polygon points="133.38,354.403 141.176,367.863 148.936,354.382 				"/>
			</g>
		</g>
	</g>
</g>
<g id="freccia_verso_il_basso_11">
	<g>
		<g>

				<line fill="none" stroke="#000000" stroke-width="2" stroke-linecap="round" stroke-miterlimit="10" x1="141.128" y1="504.906" x2="141.211" y2="564.49"/>
			<g>
				<polygon points="133.429,562.225 141.226,575.685 148.986,562.204 				"/>
			</g>
		</g>
	</g>
</g>
<g id="freccia_verso_alto_8">
	<g>
		<g>

				<line fill="none" stroke="#000000" stroke-width="2" stroke-linecap="round" stroke-miterlimit="10" x1="436.176" y1="189.499" x2="436.259" y2="129.914"/>
			<g>
				<polygon points="444.035,132.201 436.276,118.72 428.478,132.18 				"/>
			</g>
		</g>
	</g>
</g>
<g id="freccia_a_sinistra_7">
	<g>
		<g>

				<line fill="none" stroke="#000000" stroke-width="2" stroke-linecap="round" stroke-miterlimit="10" x1="330.161" y1="248.584" x2="270.577" y2="248.932"/>
			<g>
				<polygon points="272.808,241.14 259.383,248.997 272.899,256.697 				"/>
			</g>
		</g>
	</g>
</g>
<g id="freccia_12">
	<g>
		<g>

				<line fill="none" stroke="#000000" stroke-width="2" stroke-linecap="round" stroke-miterlimit="10" x1="257.004" y1="656.624" x2="316.587" y2="656.202"/>
			<g>
				<polygon points="314.367,663.997 327.781,656.124 314.256,648.441 				"/>
			</g>
		</g>
	</g>
</g>
<g id="freccia_5">
	<g>
		<g>

				<line fill="none" stroke="#000000" stroke-width="2" stroke-linecap="round" stroke-miterlimit="10" x1="604.309" y1="449.973" x2="544.725" y2="450.321"/>
			<g>
				<polygon points="546.956,442.53 533.531,450.386 547.047,458.086 				"/>
			</g>
		</g>
	</g>
</g>
<polyline id="quadrato_giallo" fill="#FAB537" stroke="#FAB538" stroke-width="14" stroke-linecap="round" stroke-linejoin="round" stroke-miterlimit="10" points="
	801.382,40.49 658.863,48.717 650.759,108.568 796.441,108.568 801.382,41.554 "/>
<polyline id="cornice_3" fill="none" stroke="#050A0C" stroke-width="2" stroke-linecap="round" stroke-linejoin="round" stroke-miterlimit="10" points="
	644.561,114.9 792.636,105.698 800.784,43.461 661.067,47.975 644.561,114.9 "/>
<g id="Define_test_cases">
	<text transform="matrix(1 0 0 1 701.2758 72.0181)"><tspan x="0" y="0" fill="#FFFFFF" font-family="'BebasNeue'" font-size="20.6503">Define</tspan><tspan x="-14.589" y="24.78" fill="#FFFFFF" font-family="'BebasNeue'" font-size="20.6503">test cases</tspan></text>
</g>
<polyline id="quadrato_rosso" fill="#E30D15" stroke="#E30F19" stroke-width="14" stroke-linecap="round" stroke-linejoin="round" stroke-miterlimit="10" points="
	818.037,282.378 661.465,275.154 659.535,213.961 806.144,217.199 818.037,282.145 "/>
<polyline id="cornice_4_1_" fill="none" points="660.701,213.9 816.05,211.063 823.554,276.458 662.287,275.393 660.701,213.9 "/>
<g id="Develop_modules">
	<text transform="matrix(1 0 0 1 713.1993 239.6668)"><tspan x="0" y="0" fill="#FFFFFF" font-family="'BebasNeue'" font-size="20.6503">Develop</tspan><tspan x="-1.714" y="24.78" fill="#FFFFFF" font-family="'BebasNeue'" font-size="20.6503">modules</tspan></text>
</g>
<polyline id="quadrato_verde" fill="#8EBF22" stroke="#8EBF24" stroke-width="14" stroke-linecap="round" stroke-linejoin="round" stroke-miterlimit="10" points="
	359.006,411.529 502.953,416.688 505.621,472.878 370.882,472.047 359.006,412.554 "/>
<polyline id="cornice_6" fill="none" stroke="#050A0C" stroke-width="2" stroke-linecap="round" stroke-linejoin="round" stroke-miterlimit="10" points="
	511.543,473.363 368.862,478.745 361.036,413.287 509.21,411.721 511.543,473.363 "/>
<g id="Refactor_and_integrate">
	<text transform="matrix(1 0 0 1 405.535 441.626)"><tspan x="0" y="0" fill="#FFFFFF" font-family="'BebasNeue'" font-size="20.6503">Refactor</tspan><tspan x="-16.52" y="24.78" fill="#FFFFFF" font-family="'BebasNeue'" font-size="20.6503">and integrate</tspan></text>
</g>
<polyline id="quadrato_8" fill="#2EB4AB" stroke="#2CB4AB" stroke-width="14" stroke-linecap="round" stroke-linejoin="round" stroke-miterlimit="10" points="
	227.261,678.196 72.455,671.053 70.547,610.551 215.502,613.752 227.261,677.965 "/>
<polyline id="cornice_8" fill="none" stroke="#050A0C" stroke-width="2" stroke-linecap="round" stroke-linejoin="round" stroke-miterlimit="10" points="
	67.692,611.878 221.287,609.073 228.707,673.729 69.259,672.676 67.692,611.878 "/>
<polyline id="cornice_4" fill="none" stroke="#050A0C" stroke-width="2" stroke-linecap="round" stroke-linejoin="round" stroke-miterlimit="10" points="
	660.255,217.267 813.851,214.462 821.27,279.119 661.823,278.066 660.255,217.267 "/>
<g id="Publish_stable_release">
	<text transform="matrix(1 0 0 1 120.8051 638.2184)"><tspan x="0" y="0" fill="#FFFFFF" font-family="'BebasNeue'" font-size="20.6503">Publish</tspan><tspan x="-26.019" y="24.78" fill="#FFFFFF" font-family="'BebasNeue'" font-size="20.6503">stable release</tspan></text>
</g>
<polyline id="quadrato_7" fill="#B2116C" stroke="#B2116C" stroke-width="5" stroke-linecap="round" stroke-linejoin="round" stroke-miterlimit="10" points="
	217.318,208.428 71.691,208 59.896,287.351 218.874,266.476 217.318,208.428 "/>
<polyline id="cornice_7" fill="none" stroke="#050A0C" stroke-width="2" stroke-miterlimit="10" points="55.252,282.496
	212.341,272.734 220.985,206.708 72.763,211.498 55.252,282.496 "/>
<g id="Run_Beta_Testing">
	<text transform="matrix(1 0 0 1 109.4819 239.6672)"><tspan x="0" y="0" fill="#FFFFFF" font-family="'BebasNeue'" font-size="20.6503">Run Beta</tspan><tspan x="4.729" y="24.78" fill="#FFFFFF" font-family="'BebasNeue'" font-size="20.6503">Testing</tspan></text>
</g>
<polyline id="quadrato_rosa" fill="#D7579B" stroke="#D6579A" stroke-width="5" stroke-linecap="round" stroke-linejoin="round" stroke-miterlimit="10" points="
	811.625,403.024 665.997,402.596 654.202,481.948 813.18,461.072 811.625,403.024 "/>
<polyline id="cornice_5" fill="none" stroke="#050A0C" stroke-width="2" stroke-miterlimit="10" points="649.559,477.093
	806.648,467.33 815.291,401.304 667.07,406.094 649.559,477.093 "/>
<g id="Run_alpha_Testing">
	<text transform="matrix(1 0 0 1 721.2585 434.2635)"><tspan x="0" y="0" fill="#FFFFFF" font-family="'BebasNeue'" font-size="20.6503">Run</tspan><tspan x="-34.547" y="24.78" fill="#FFFFFF" font-family="'BebasNeue'" font-size="20.6503">alpha Testing</tspan></text>
</g>
<g id="lavagna_7">
	<circle fill="#514998" cx="212.645" cy="207.463" r="13.908"/>
	<g>
		<path fill="#FFFFFF" d="M205.292,200.372v13.172h10.055c0-0.285,0-0.571,0-0.856h-9.299v-11.46h13.229v6.534
			c0.245,0,0.5,0,0.756,0v-7.389H205.292z"/>

			<line fill="#FFFFFF" stroke="#FFFFFF" stroke-linecap="round" stroke-miterlimit="10" x1="215.178" y1="207.944" x2="221.455" y2="214.222"/>
	</g>
</g>
<g id="lavagna_2">
	<circle fill="#514998" cx="494.35" cy="38.094" r="13.908"/>
	<g>
		<path fill="#FFFFFF" d="M486.997,31.003v13.172h10.055c0-0.285,0-0.571,0-0.856h-9.299v-11.46h13.229v6.534c0.245,0,0.5,0,0.756,0
			v-7.389H486.997z"/>

			<line fill="#FFFFFF" stroke="#FFFFFF" stroke-linecap="round" stroke-miterlimit="10" x1="496.883" y1="38.575" x2="503.161" y2="44.853"/>
	</g>
</g>
<g id="lavagna_3">
	<circle fill="#514998" cx="797.968" cy="37.34" r="13.908"/>
	<g>
		<path fill="#FFFFFF" d="M790.615,30.249V43.42h10.055c0-0.285,0-0.571,0-0.856h-9.299v-11.46H804.6v6.534c0.245,0,0.5,0,0.756,0
			v-7.389H790.615z"/>

			<line fill="#FFFFFF" stroke="#FFFFFF" stroke-linecap="round" stroke-miterlimit="10" x1="800.501" y1="37.821" x2="806.779" y2="44.098"/>
	</g>
</g>
<g id="lavagna_4">
	<circle fill="#514998" cx="798.173" cy="210.841" r="13.908"/>
	<g>
		<path fill="#FFFFFF" d="M790.82,203.75v13.172h10.055c0-0.285,0-0.571,0-0.856h-9.299v-11.46h13.229v6.534c0.245,0,0.5,0,0.756,0
			v-7.389H790.82z"/>

			<line fill="#FFFFFF" stroke="#FFFFFF" stroke-linecap="round" stroke-miterlimit="10" x1="800.706" y1="211.322" x2="806.983" y2="217.6"/>
	</g>
</g>
<g id="lavagna_5">
	<circle fill="#514998" cx="805.173" cy="399.924" r="13.908"/>
	<g>
		<path fill="#FFFFFF" d="M797.82,392.833v13.172h10.055c0-0.285,0-0.571,0-0.856h-9.299v-11.46h13.229v6.534c0.245,0,0.5,0,0.756,0
			v-7.389H797.82z"/>

			<line fill="#FFFFFF" stroke="#FFFFFF" stroke-linecap="round" stroke-miterlimit="10" x1="807.706" y1="400.405" x2="813.983" y2="406.683"/>
	</g>
</g>
<g id="lavagna_6">
	<circle fill="#514998" cx="501.735" cy="405.284" r="13.908"/>
	<g>
		<path fill="#FFFFFF" d="M494.383,398.193v13.172h10.055c0-0.285,0-0.571,0-0.856h-9.299v-11.46h13.229v6.534
			c0.245,0,0.5,0,0.756,0v-7.389H494.383z"/>

			<line fill="#FFFFFF" stroke="#FFFFFF" stroke-linecap="round" stroke-miterlimit="10" x1="504.268" y1="405.765" x2="510.546" y2="412.043"/>
	</g>
</g>
<g id="lavagna_8">
	<circle fill="#514998" cx="214.349" cy="609.322" r="13.908"/>
	<g>
		<path fill="#FFFFFF" d="M206.997,602.231v13.172h10.055c0-0.285,0-0.571,0-0.856h-9.299v-11.46h13.229v6.534
			c0.245,0,0.5,0,0.756,0v-7.389H206.997z"/>

			<line fill="#FFFFFF" stroke="#FFFFFF" stroke-linecap="round" stroke-miterlimit="10" x1="216.882" y1="609.803" x2="223.16" y2="616.081"/>
	</g>
</g>
<g id="libro_1">
	<path fill="#0384B3" d="M299.066,62.886c0,0.667-0.371,1.207-0.828,1.207h-27.145c-0.457,0-0.828-0.54-0.828-1.207V40.515
		c0-0.667,0.371-1.207,0.828-1.207h27.145c0.457,0,0.828,0.54,0.828,1.207V62.886z"/>
	<g id="XMLID_1_">
		<g id="XMLID_4_">
			<path id="XMLID_13_" fill="none" stroke="#FFFFFF" stroke-miterlimit="10" d="M286.906,58.715
				c1.874,0.161,3.762,0.029,5.636,0.073c0.366,0,0.747,0.073,1.127-0.088c0-3.894,0-7.788,0-11.77c-0.6,0-1.156,0-1.727,0"/>
			<path id="XMLID_12_" fill="none" stroke="#FFFFFF" stroke-miterlimit="10" d="M278.123,46.93c-0.542,0-1.069,0-1.654,0
				c0,3.982,0,7.876,0,11.858c1.083,0,2.137,0.015,3.177,0c1.142-0.015,2.298,0.088,3.44-0.073"/>
			<path id="XMLID_11_" fill="none" stroke="#FFFFFF" stroke-miterlimit="10" d="M285.076,58.715c0-3.631-0.059-7.276,0.029-10.906
				c0.029-1.23-0.483-1.874-1.42-2.415c-0.908-0.512-4.187-1.156-5.358-0.849c0,3.777,0,7.583,0,11.316
				c1.01,0.454,2.006,0.22,2.957,0.425c1.127,0.234,2.225,0.498,3.147,1.259c0.615,0.512,0.805,0.512,1.391,0
				c0.864-0.761,1.918-0.995,3.001-1.259c0.966-0.234,1.991,0.029,3.016-0.425c0-3.733,0-7.539,0-11.433
				c-2.503,0.059-4.86,0.264-6.749,2.02"/>
			<path id="XMLID_10_" fill="none" stroke="#FFFFFF" stroke-miterlimit="10" d="M283.393,51.249
				c-1.113-0.542-2.313-0.659-3.513-0.805"/>
			<path id="XMLID_9_" fill="none" stroke="#FFFFFF" stroke-miterlimit="10" d="M290.273,48.101
				c-1.215,0.088-2.401,0.264-3.513,0.805"/>
			<path id="XMLID_8_" fill="none" stroke="#FFFFFF" stroke-miterlimit="10" d="M290.273,50.444c-1.2,0.132-2.401,0.278-3.513,0.805
				"/>
			<path id="XMLID_7_" fill="none" stroke="#FFFFFF" stroke-miterlimit="10" d="M283.246,48.833
				c-1.069-0.468-2.211-0.644-3.367-0.732"/>
			<path id="XMLID_6_" fill="none" stroke="#FFFFFF" stroke-miterlimit="10" d="M289.98,52.786
				c-0.864,0.234-1.786,0.278-2.635,0.571c-0.205,0.073-0.381,0.161-0.586,0.234"/>
			<path id="XMLID_5_" fill="none" stroke="#FFFFFF" stroke-miterlimit="10" d="M280.026,52.859
				c1.171,0.029,2.284,0.322,3.367,0.732"/>
		</g>
	</g>
</g>
<g id="libro_2">
	<path fill="#A786BC" d="M582.146,62.886c0,0.667-0.371,1.207-0.828,1.207h-27.145c-0.457,0-0.828-0.54-0.828-1.207V40.515
		c0-0.667,0.371-1.207,0.828-1.207h27.145c0.457,0,0.828,0.54,0.828,1.207V62.886z"/>
	<g>
		<g id="XMLID_3_">
			<g id="XMLID_2_">
				<path id="XMLID_712_" fill="none" stroke="#FFFFFF" stroke-miterlimit="10" d="M567.987,60.715
					c1.874,0.161,3.762,0.029,5.636,0.073c0.366,0,0.747,0.073,1.127-0.088c0-3.894,0-7.788,0-11.77c-0.6,0-1.157,0-1.727,0"/>
				<path id="XMLID_711_" fill="none" stroke="#FFFFFF" stroke-miterlimit="10" d="M559.203,48.93c-0.542,0-1.069,0-1.654,0
					c0,3.982,0,7.876,0,11.858c1.083,0,2.137,0.015,3.177,0c1.142-0.015,2.298,0.088,3.44-0.073"/>
				<path id="XMLID_705_" fill="none" stroke="#FFFFFF" stroke-miterlimit="10" d="M566.157,60.715
					c0-3.631-0.059-7.276,0.029-10.906c0.029-1.23-0.483-1.874-1.42-2.415c-0.908-0.512-4.187-1.156-5.358-0.849
					c0,3.777,0,7.583,0,11.316c1.01,0.454,2.006,0.22,2.957,0.425c1.127,0.234,2.225,0.498,3.147,1.259
					c0.615,0.512,0.805,0.512,1.391,0c0.864-0.761,1.918-0.995,3.001-1.259c0.966-0.234,1.991,0.029,3.016-0.425
					c0-3.733,0-7.539,0-11.433c-2.503,0.059-4.86,0.264-6.749,2.02"/>
				<path id="XMLID_597_" fill="none" stroke="#FFFFFF" stroke-miterlimit="10" d="M564.473,53.249
					c-1.113-0.542-2.313-0.659-3.513-0.805"/>
				<path id="XMLID_595_" fill="none" stroke="#FFFFFF" stroke-miterlimit="10" d="M571.354,50.101
					c-1.215,0.088-2.401,0.264-3.513,0.805"/>
				<path id="XMLID_589_" fill="none" stroke="#FFFFFF" stroke-miterlimit="10" d="M571.354,52.444
					c-1.2,0.132-2.401,0.278-3.513,0.805"/>
				<path id="XMLID_586_" fill="none" stroke="#FFFFFF" stroke-miterlimit="10" d="M564.327,50.833
					c-1.069-0.468-2.211-0.644-3.367-0.732"/>
				<path id="XMLID_581_" fill="none" stroke="#FFFFFF" stroke-miterlimit="10" d="M571.061,54.786
					c-0.864,0.234-1.786,0.278-2.635,0.571c-0.205,0.073-0.381,0.161-0.586,0.234"/>
				<path id="XMLID_579_" fill="none" stroke="#FFFFFF" stroke-miterlimit="10" d="M561.106,54.859
					c1.171,0.029,2.284,0.322,3.367,0.732"/>
			</g>
		</g>
		<text transform="matrix(1 0 0 1 573.7915 54.7948)" fill="#FFFFFF" font-family="'MyriadPro-Regular'" font-size="19.211">?</text>
	</g>
</g>
<g id="grafo_arancione">
	<path fill="#EF7928" stroke="#EE7828" stroke-miterlimit="10" d="M473.282,357.644c0,0.667-0.371,1.207-0.828,1.207h-27.145
		c-0.457,0-0.828-0.54-0.828-1.207v-22.371c0-0.667,0.371-1.207,0.828-1.207h27.145c0.457,0,0.828,0.54,0.828,1.207V357.644z"/>
	<circle fill="#FFFFFF" stroke="#FFFFFF" stroke-miterlimit="10" cx="451.149" cy="341.604" r="3.788"/>
	<circle fill="#FFFFFF" stroke="#FFFFFF" stroke-miterlimit="10" cx="468.467" cy="346.475" r="3.247"/>
	<circle fill="#FFFFFF" stroke="#FFFFFF" stroke-miterlimit="10" cx="458.32" cy="351.917" r="3.382"/>
	<line fill="none" stroke="#FFFFFF" stroke-miterlimit="10" x1="452.745" y1="341.604" x2="467.807" y2="346.475"/>
	<line fill="none" stroke="#FFFFFF" stroke-miterlimit="10" x1="467.807" y1="346.475" x2="458.32" y2="352.503"/>
	<line fill="none" stroke="#FFFFFF" stroke-miterlimit="10" x1="458.32" y1="352.503" x2="452.745" y2="343.228"/>
</g>
<g id="grafo_verde">
	<path fill="#079038" stroke="#068F39" stroke-miterlimit="10" d="M383.231,667.308c0,0.667-0.371,1.207-0.828,1.207h-27.145
		c-0.457,0-0.828-0.54-0.828-1.207v-22.371c0-0.667,0.371-1.207,0.828-1.207h27.145c0.457,0,0.828,0.54,0.828,1.207V667.308z"/>
	<circle fill="#FFFFFF" stroke="#FFFFFF" stroke-miterlimit="10" cx="361.098" cy="651.269" r="3.788"/>
	<circle fill="#FFFFFF" stroke="#FFFFFF" stroke-miterlimit="10" cx="378.416" cy="656.14" r="3.247"/>
	<circle fill="#FFFFFF" stroke="#FFFFFF" stroke-miterlimit="10" cx="368.269" cy="661.581" r="3.382"/>
	<line fill="none" stroke="#FFFFFF" stroke-miterlimit="10" x1="362.694" y1="651.269" x2="377.756" y2="656.14"/>
	<line fill="none" stroke="#FFFFFF" stroke-miterlimit="10" x1="377.756" y1="656.14" x2="368.269" y2="662.168"/>
	<line fill="none" stroke="#FFFFFF" stroke-miterlimit="10" x1="368.269" y1="662.168" x2="362.694" y2="652.893"/>
</g>
<g id="grafico_verde">
	<path fill="#8EBF22" d="M590.979,481.538c0,0.667-0.371,1.207-0.828,1.207h-27.145c-0.457,0-0.828-0.54-0.828-1.207v-22.371
		c0-0.667,0.371-1.207,0.828-1.207h27.145c0.457,0,0.828,0.54,0.828,1.207V481.538z"/>
	<g>
		<g>
			<line fill="none" stroke="#FFFFFF" stroke-miterlimit="10" x1="567.235" y1="463.706" x2="567.235" y2="476.88"/>
			<g>
				<polygon fill="#FFFFFF" points="565.988,464.071 567.235,461.912 568.482,464.071 				"/>
			</g>
		</g>
	</g>
	<g>
		<g>
			<line fill="none" stroke="#FFFFFF" stroke-miterlimit="10" x1="564.235" y1="476.88" x2="578.843" y2="476.88"/>
			<g>
				<polygon fill="#FFFFFF" points="578.478,478.126 580.636,476.88 578.478,475.633 				"/>
			</g>
		</g>
	</g>
	<polyline fill="none" stroke="#FFFFFF" stroke-linecap="round" stroke-miterlimit="10" points="567.235,476.318 570.167,470.772
		573.763,471.747 579.309,467.359 580.65,467.785 583.636,463.885 	"/>
</g>
<g id="grafico_blu_1_">
	<g>
		<g>
			<line fill="none" stroke="#FFFFFF" stroke-miterlimit="10" x1="160.008" y1="320.026" x2="160.008" y2="333.2"/>
			<g>
				<polygon fill="#FFFFFF" points="158.761,320.391 160.008,318.232 161.254,320.391 				"/>
			</g>
		</g>
	</g>
	<g id="grafico_blu">
		<path fill="#283273" d="M183.751,337.859c0,0.667-0.371,1.207-0.828,1.207h-27.145c-0.457,0-0.828-0.54-0.828-1.207v-22.371
			c0-0.667,0.371-1.207,0.828-1.207h27.145c0.457,0,0.828,0.54,0.828,1.207V337.859z"/>
		<g>
			<g>
				<line fill="none" stroke="#FFFFFF" stroke-miterlimit="10" x1="159.008" y1="333.2" x2="173.615" y2="333.2"/>
				<g>
					<polygon fill="#FFFFFF" points="173.25,334.447 175.409,333.2 173.25,331.954 					"/>
				</g>
			</g>
		</g>
		<polyline fill="none" stroke="#FFFFFF" stroke-linecap="round" stroke-miterlimit="10" points="160.008,332.638 162.94,327.092
			166.536,328.067 172.082,323.679 173.423,324.106 176.409,320.205 		"/>
	</g>
</g>
<g id="documento_3">
	<path fill="#293383" stroke="#28347F" stroke-miterlimit="10" d="M723.302,163.434c0,0.667-0.371,1.207-0.828,1.207h-27.145
		c-0.457,0-0.828-0.54-0.828-1.207v-22.371c0-0.667,0.371-1.207,0.828-1.207h27.145c0.457,0,0.828,0.54,0.828,1.207V163.434z"/>
	<g>
		<path fill="#FFFFFF" d="M715.702,147.141c0.002-0.67-0.168-1.236-0.584-1.71c-0.609-0.695-1.213-1.396-1.824-2.09
			c-0.408-0.464-0.901-0.693-1.484-0.691c-2.551,0.005-5.103,0.002-7.654,0.003c-0.116,0-0.233,0-0.346,0.022
			c-1.03,0.204-1.707,1.115-1.708,2.304c-0.002,2.421-0.001,4.842,0,7.263c0,2.454,0,4.907,0,7.361c0,0.026,0.001,0.053,0.002,0.079
			c0.025,1.162,0.886,2.158,1.909,2.161c3.253,0.01,6.506,0.004,9.759,0.003c0.258,0,0.507-0.063,0.74-0.19
			c0.82-0.446,1.188-1.204,1.188-2.219C715.697,155.338,715.693,151.239,715.702,147.141z M712.263,143.564
			c0.199,0.085,0.37,0.215,0.519,0.385c0.598,0.679,1.195,1.357,1.794,2.035c0.158,0.179,0.282,0.381,0.354,0.623
			c0.034,0.115,0.008,0.151-0.098,0.15c-0.799-0.003-1.599,0.001-2.398-0.004c-0.214-0.001-0.313-0.124-0.315-0.372
			c-0.003-0.447-0.001-0.894-0.001-1.34c0-0.453,0.004-0.907-0.003-1.36C712.113,143.535,712.151,143.516,712.263,143.564z
			 M715.002,159.467c0,0.783-0.373,1.356-0.985,1.52c-0.084,0.022-0.172,0.031-0.258,0.031c-3.207,0.001-6.414,0.001-9.622,0
			c-0.625,0-1.1-0.405-1.249-1.055c-0.038-0.166-0.046-0.337-0.046-0.508c0.001-2.401,0-4.803,0-7.204c0-2.421-0.001-4.842,0-7.264
			c0-0.733,0.36-1.288,0.947-1.475c0.141-0.045,0.284-0.057,0.43-0.057c2.337,0.01,4.674,0.02,7.011,0.023
			c0.144,0,0.169,0.053,0.168,0.201c-0.006,0.875-0.003,1.75-0.003,2.625c0,0.797,0.425,1.282,1.123,1.282
			c0.766,0,1.531,0.004,2.297-0.003c0.136-0.001,0.189,0.027,0.189,0.201C715.002,151.677,715.003,155.572,715.002,159.467z"/>
		<path fill="#FFFFFF" d="M709.953,157.343c0.707,0,1.414,0,2.121-0.001c0.088,0,0.175,0.003,0.254,0.05
			c0.148,0.088,0.227,0.229,0.209,0.417c-0.018,0.186-0.112,0.316-0.276,0.362c-0.072,0.02-0.149,0.024-0.224,0.024
			c-1.391,0.001-2.782,0.001-4.173,0.001c-0.035,0-0.07,0.001-0.104-0.001c-0.257-0.019-0.408-0.182-0.402-0.436
			c0.006-0.246,0.172-0.415,0.421-0.415C708.504,157.342,709.228,157.343,709.953,157.343z"/>
		<path fill="#FFFFFF" d="M709.951,150.859c-0.695,0-1.39,0-2.085-0.001c-0.069,0-0.14-0.001-0.207-0.017
			c-0.187-0.045-0.305-0.215-0.301-0.421c0.004-0.203,0.133-0.371,0.317-0.409c0.045-0.009,0.092-0.007,0.138-0.007
			c1.419,0,2.838,0,4.257-0.001c0.173,0,0.322,0.043,0.414,0.227c0.12,0.24,0.025,0.516-0.208,0.602
			c-0.073,0.027-0.148,0.028-0.223,0.028C711.353,150.859,710.652,150.859,709.951,150.859z"/>
		<path fill="#FFFFFF" d="M709.943,154.536c-0.719,0-1.438-0.001-2.158,0.001c-0.177,0-0.318-0.068-0.394-0.26
			c-0.092-0.232,0.015-0.499,0.231-0.566c0.077-0.024,0.16-0.028,0.241-0.028c1.386-0.002,2.772-0.001,4.158-0.001
			c0.023,0,0.046-0.001,0.07,0c0.265,0.009,0.448,0.187,0.45,0.437c0.002,0.249-0.181,0.417-0.458,0.417
			C711.37,154.537,710.656,154.536,709.943,154.536z"/>
		<path fill="#FFFFFF" d="M705.887,158.407c-0.081,0-0.163,0.005-0.243-0.001c-0.078-0.006-0.151-0.044-0.199-0.111
			c-0.2-0.278-0.137-0.606-0.082-0.904c0.046-0.249,0.264-0.276,0.467-0.275c0.543,0.003,0.631,0.097,0.63,0.702
			C706.461,158.31,706.363,158.411,705.887,158.407z"/>
		<path fill="#FFFFFF" d="M705.894,151.07c-0.075,0-0.151,0.006-0.226-0.001c-0.183-0.017-0.319-0.157-0.332-0.362
			c-0.011-0.183-0.011-0.369,0-0.552c0.012-0.198,0.139-0.344,0.314-0.358c0.161-0.013,0.325-0.013,0.486,0
			c0.18,0.015,0.307,0.179,0.321,0.4c0.008,0.131,0.005,0.263,0.003,0.395c-0.004,0.328-0.136,0.477-0.428,0.483
			c-0.046,0.001-0.093,0-0.139,0C705.894,151.072,705.894,151.071,705.894,151.07z"/>
		<path fill="#FFFFFF" d="M705.903,153.465c0.122,0.011,0.246-0.024,0.359,0.05c0.145,0.095,0.21,0.241,0.198,0.426
			c-0.017,0.263,0.095,0.59-0.182,0.744c-0.237,0.131-0.518,0.126-0.756,0.005c-0.283-0.144-0.175-0.474-0.192-0.737
			c-0.012-0.191,0.043-0.348,0.201-0.442C705.651,153.439,705.78,153.479,705.903,153.465z"/>
	</g>
</g>
<g id="gafo_giallo_1">
	<path id="grafo_giallo" fill="#FAB537" d="M725.466,350.884c0,0.667-0.371,1.207-0.828,1.207h-27.145
		c-0.457,0-0.828-0.54-0.828-1.207v-22.371c0-0.667,0.371-1.207,0.828-1.207h27.145c0.457,0,0.828,0.54,0.828,1.207V350.884z"/>
	<g>
		<ellipse fill="#FFFFFF" stroke="#FFFFFF" stroke-miterlimit="10" cx="702.676" cy="336.158" rx="3.788" ry="3.464"/>
		<ellipse fill="#FFFFFF" stroke="#FFFFFF" stroke-miterlimit="10" cx="719.995" cy="340.613" rx="3.247" ry="2.969"/>
		<ellipse fill="#FFFFFF" stroke="#FFFFFF" stroke-miterlimit="10" cx="709.847" cy="345.589" rx="3.382" ry="3.093"/>
		<line fill="none" stroke="#FFFFFF" stroke-miterlimit="10" x1="704.272" y1="336.158" x2="719.334" y2="340.613"/>
		<line fill="none" stroke="#FFFFFF" stroke-miterlimit="10" x1="719.334" y1="340.613" x2="709.847" y2="346.125"/>
		<line fill="none" stroke="#FFFFFF" stroke-miterlimit="10" x1="709.847" y1="346.125" x2="704.272" y2="337.643"/>
	</g>
</g>
<g id="grafo_giallo_2_1_">
	<path fill="#FAB537" d="M590.608,437.41c0,0.667-0.371,1.207-0.828,1.207h-27.145c-0.457,0-0.828-0.54-0.828-1.207v-22.371
		c0-0.667,0.371-1.207,0.828-1.207h27.145c0.457,0,0.828,0.54,0.828,1.207V437.41z"/>
	<g id="grafo_giallo_2">
		<ellipse fill="#FFFFFF" stroke="#FFFFFF" stroke-miterlimit="10" cx="567.818" cy="422.685" rx="3.788" ry="3.464"/>
		<ellipse fill="#FFFFFF" stroke="#FFFFFF" stroke-miterlimit="10" cx="585.137" cy="427.139" rx="3.247" ry="2.969"/>
		<ellipse fill="#FFFFFF" stroke="#FFFFFF" stroke-miterlimit="10" cx="574.989" cy="432.115" rx="3.382" ry="3.093"/>
		<line fill="none" stroke="#FFFFFF" stroke-miterlimit="10" x1="569.414" y1="422.685" x2="584.476" y2="427.139"/>
		<line fill="none" stroke="#FFFFFF" stroke-miterlimit="10" x1="584.476" y1="427.139" x2="574.989" y2="432.652"/>
		<line fill="none" stroke="#FFFFFF" stroke-miterlimit="10" x1="574.989" y1="432.652" x2="569.414" y2="424.169"/>
	</g>
</g>
<ellipse id="cerchio_centrale" fill="none" stroke="#0E8C99" stroke-width="2" stroke-linecap="round" stroke-linejoin="round" stroke-miterlimit="10" cx="432.682" cy="251.387" rx="63.851" ry="49.481"/>
<g id="successful_test">
	<text transform="matrix(1 0 0 1 106.6787 430.6407)"><tspan x="0" y="0" fill="#0E8C99" font-family="'BebasNeue'" font-size="20.6503">Is the test</tspan><tspan x="23.613" y="24.78" fill="#0E8C99" font-family="'BebasNeue'" font-size="20.6503">successful?</tspan></text>
</g>
<ellipse id="cerchio_sinistra" fill="none" stroke="#0E8C99" stroke-width="2" stroke-linecap="round" stroke-linejoin="round" stroke-miterlimit="10" cx="145.304" cy="434.998" rx="63.851" ry="49.481"/>
<g id="no_1">
	<path fill="#E30F19" stroke="#E30F19" stroke-miterlimit="10" d="M472.338,169.594c0,0.667-0.371,1.207-0.828,1.207h-27.145
		c-0.457,0-0.828-0.54-0.828-1.207v-22.371c0-0.667,0.371-1.207,0.828-1.207h27.145c0.457,0,0.828,0.54,0.828,1.207V169.594z"/>
	<g>
		<text transform="matrix(1 0 0 1 449.8642 165.8706)" font-family="'BebasNeue'" font-size="20.6503">NO</text>
	</g>
</g>
<g id="no_2">
	<path fill="#E30F19" stroke="#E30F19" stroke-miterlimit="10" d="M297.665,439.596c0,0.667-0.371,1.207-0.828,1.207h-27.145
		c-0.457,0-0.828-0.54-0.828-1.207v-22.371c0-0.667,0.371-1.207,0.828-1.207h27.145c0.457,0,0.828,0.54,0.828,1.207V439.596z"/>
	<g>
		<text transform="matrix(1 0 0 1 275.191 435.8725)" font-family="'BebasNeue'" font-size="20.6503">NO</text>
	</g>
</g>
<g id="yes_1">
	<path fill="#44AC35" stroke="#41AB34" stroke-miterlimit="10" d="M320.471,237.632c0,0.667-0.371,1.207-0.828,1.207h-27.145
		c-0.457,0-0.828-0.54-0.828-1.207v-22.371c0-0.667,0.371-1.207,0.828-1.207h27.145c0.457,0,0.828,0.54,0.828,1.207V237.632z"/>
	<g>
		<text transform="matrix(1 0 0 1 294.7443 233.909)" font-family="'BebasNeue'" font-size="20.6503">YES</text>
	</g>
</g>
<g id="yes_2">
	<path fill="#44AC35" stroke="#41AB34" stroke-miterlimit="10" d="M181.609,544.194c0,0.667-0.371,1.207-0.828,1.207h-27.145
		c-0.457,0-0.828-0.54-0.828-1.207v-22.371c0-0.667,0.371-1.207,0.828-1.207h27.145c0.457,0,0.828,0.54,0.828,1.207V544.194z"/>
	<g>
		<text transform="matrix(1 0 0 1 155.8825 540.4705)" font-family="'BebasNeue'" font-size="20.6503">YES</text>
	</g>
</g>
<g id="freccia_1">
	<g>

			<line fill="none" stroke="#000000" stroke-width="2" stroke-linecap="round" stroke-miterlimit="10" x1="251.477" y1="75.866" x2="303.827" y2="75.866"/>
		<g>
			<polygon points="301.493,83.844 315.309,75.866 301.493,67.888 			"/>
		</g>
	</g>
</g>
<g id="freccia_2">
	<g>

			<line fill="none" stroke="#000000" stroke-width="2" stroke-linecap="round" stroke-miterlimit="10" x1="532.557" y1="74.529" x2="584.908" y2="74.529"/>
		<g>
			<polygon points="582.573,82.507 596.389,74.53 582.573,66.552 			"/>
		</g>
	</g>
</g>
<g id="freccia_verso_destra_10">
	<g>

			<line fill="none" stroke="#000000" stroke-width="2" stroke-linecap="round" stroke-miterlimit="10" x1="248.347" y1="450.621" x2="300.697" y2="450.621"/>
		<g>
			<polygon points="298.363,458.6 312.179,450.622 298.363,442.644 			"/>
		</g>
	</g>
</g>
<g id="tools_1">
	<g id="Tools_1">
		<circle fill="#72B62B" cx="145.304" cy="37.34" r="13.908"/>
	</g>
	<g>
		<path fill="none" stroke="#FFFFFF" stroke-linecap="round" stroke-linejoin="round" stroke-miterlimit="10" d="M139.787,34.837
			c0.051,0.004,0.103,0.016,0.15,0.04c0.071,0.04,0.158,0.028,0.218-0.032L142.1,32.9c0.087-0.087,0.087-0.23,0-0.317
			c-0.107-0.107-0.107-0.281,0-0.388l0.531-0.531c0.107-0.107,0.281-0.107,0.388,0l0.158,0.158l1.267-1.267
			c0.305-0.305,0.305-0.796,0-1.097l-1.687-1.687c-0.305-0.305-0.796-0.305-1.097,0l-1.267,1.267l0.131,0.131
			c0.139,0.139,0.139,0.368,0,0.507l-0.408,0.408c-0.139,0.139-0.368,0.139-0.507,0c-0.071-0.071-0.186-0.071-0.257,0l-1.972,1.972
			c-0.071,0.071-0.071,0.19,0,0.261c0.071,0.071,0.083,0.186,0.024,0.273c-2.546,3.762-0.74,5.603-0.74,5.603
			c0.226-1.647,1.616-3.176,2.978-3.358C139.684,34.833,139.74,34.833,139.787,34.837z"/>
		<path fill="none" stroke="#FFFFFF" stroke-linecap="round" stroke-linejoin="round" stroke-miterlimit="10" d="M152.993,43.014
			l-10.212-9.44l-1.853,1.853l9.436,10.212c0.519,0.554,1.394,0.57,1.932,0.032l0.729-0.729
			C153.563,44.407,153.547,43.532,152.993,43.014z"/>
		<path fill="none" stroke="#FFFFFF" stroke-linecap="round" stroke-linejoin="round" stroke-miterlimit="10" d="M139.391,43.6
			c-0.566,0.566-0.566,1.481,0,2.047l0,0c0.566,0.566,1.481,0.566,2.047,0l4.063-4.063l-1.968-2.126L139.391,43.6z"/>
		<path fill="none" stroke="#FFFFFF" stroke-linecap="round" stroke-linejoin="round" stroke-miterlimit="10" d="M154.945,32.667
			l-2.214,2.213c-0.17,0.17-0.428,0.226-0.653,0.143l-1.239-0.463c-0.166-0.063-0.301-0.194-0.36-0.36l-0.463-1.239
			c-0.083-0.226-0.028-0.483,0.143-0.653l2.214-2.213c-1.164-0.285-2.443,0.028-3.346,0.942c-0.994,1.006-1.255,2.471-0.788,3.718
			l-1.429,1.429l2.126,1.968l1.346-1.346c1.255,0.475,2.728,0.206,3.738-0.804C154.921,35.094,155.23,33.823,154.945,32.667z"/>
	</g>
</g>
<g id="tools_2">
	<g id="Tools_1_1_">
		<circle fill="#72B62B" cx="428.928" cy="38.094" r="13.908"/>
	</g>
	<g>
		<path fill="none" stroke="#FFFFFF" stroke-linecap="round" stroke-linejoin="round" stroke-miterlimit="10" d="M423.411,35.591
			c0.051,0.004,0.103,0.016,0.15,0.04c0.071,0.04,0.158,0.028,0.218-0.032l1.944-1.944c0.087-0.087,0.087-0.23,0-0.317
			c-0.107-0.107-0.107-0.281,0-0.388l0.531-0.531c0.107-0.107,0.281-0.107,0.388,0l0.158,0.158l1.267-1.267
			c0.305-0.305,0.305-0.796,0-1.097l-1.687-1.687c-0.305-0.305-0.796-0.305-1.097,0l-1.267,1.267l0.131,0.131
			c0.139,0.139,0.139,0.368,0,0.507l-0.408,0.408c-0.139,0.139-0.368,0.139-0.507,0c-0.071-0.071-0.186-0.071-0.257,0l-1.972,1.972
			c-0.071,0.071-0.071,0.19,0,0.261c0.071,0.071,0.083,0.186,0.024,0.273c-2.546,3.762-0.74,5.603-0.74,5.603
			c0.226-1.647,1.616-3.176,2.978-3.358C423.308,35.587,423.363,35.587,423.411,35.591z"/>
		<path fill="none" stroke="#FFFFFF" stroke-linecap="round" stroke-linejoin="round" stroke-miterlimit="10" d="M436.617,43.768
			l-10.212-9.44l-1.853,1.853l9.436,10.212c0.519,0.554,1.394,0.57,1.932,0.032l0.729-0.729
			C437.187,45.162,437.171,44.287,436.617,43.768z"/>
		<path fill="none" stroke="#FFFFFF" stroke-linecap="round" stroke-linejoin="round" stroke-miterlimit="10" d="M423.015,44.354
			c-0.566,0.566-0.566,1.481,0,2.047l0,0c0.566,0.566,1.481,0.566,2.047,0l4.063-4.063l-1.968-2.126L423.015,44.354z"/>
		<path fill="none" stroke="#FFFFFF" stroke-linecap="round" stroke-linejoin="round" stroke-miterlimit="10" d="M438.569,33.421
			l-2.214,2.213c-0.17,0.17-0.428,0.226-0.653,0.143l-1.239-0.463c-0.166-0.063-0.301-0.194-0.36-0.36l-0.463-1.239
			c-0.083-0.226-0.028-0.483,0.143-0.653l2.214-2.213c-1.164-0.285-2.443,0.028-3.346,0.942c-0.994,1.006-1.255,2.471-0.788,3.718
			l-1.429,1.429l2.126,1.968l1.346-1.346c1.255,0.475,2.728,0.206,3.738-0.804C438.545,35.849,438.854,34.578,438.569,33.421z"/>
	</g>
</g>
<g id="tools_3">
	<g id="Tools_1_2_">
		<circle fill="#72B62B" cx="732.928" cy="35.83" r="13.908"/>
	</g>
	<g>
		<path fill="none" stroke="#FFFFFF" stroke-linecap="round" stroke-linejoin="round" stroke-miterlimit="10" d="M727.411,33.327
			c0.051,0.004,0.103,0.016,0.15,0.04c0.071,0.04,0.158,0.028,0.218-0.032l1.944-1.944c0.087-0.087,0.087-0.23,0-0.317
			c-0.107-0.107-0.107-0.281,0-0.388l0.531-0.531c0.107-0.107,0.281-0.107,0.388,0l0.158,0.158l1.267-1.267
			c0.305-0.305,0.305-0.796,0-1.097l-1.687-1.687c-0.305-0.305-0.796-0.305-1.097,0l-1.267,1.267l0.131,0.131
			c0.139,0.139,0.139,0.368,0,0.507l-0.408,0.408c-0.139,0.139-0.368,0.139-0.507,0c-0.071-0.071-0.186-0.071-0.257,0l-1.972,1.972
			c-0.071,0.071-0.071,0.19,0,0.261s0.083,0.186,0.024,0.273c-2.546,3.762-0.74,5.603-0.74,5.603
			c0.226-1.647,1.616-3.176,2.978-3.358C727.308,33.324,727.363,33.324,727.411,33.327z"/>
		<path fill="none" stroke="#FFFFFF" stroke-linecap="round" stroke-linejoin="round" stroke-miterlimit="10" d="M740.617,41.504
			l-10.212-9.44l-1.853,1.853l9.436,10.212c0.519,0.554,1.394,0.57,1.932,0.032l0.729-0.729
			C741.187,42.898,741.171,42.023,740.617,41.504z"/>
		<path fill="none" stroke="#FFFFFF" stroke-linecap="round" stroke-linejoin="round" stroke-miterlimit="10" d="M727.015,42.09
			c-0.566,0.566-0.566,1.481,0,2.047l0,0c0.566,0.566,1.481,0.566,2.047,0l4.063-4.063l-1.968-2.126L727.015,42.09z"/>
		<path fill="none" stroke="#FFFFFF" stroke-linecap="round" stroke-linejoin="round" stroke-miterlimit="10" d="M742.569,31.158
			l-2.214,2.214c-0.17,0.17-0.428,0.226-0.653,0.143l-1.239-0.463c-0.166-0.063-0.301-0.194-0.36-0.36l-0.463-1.239
			c-0.083-0.226-0.028-0.483,0.143-0.653l2.214-2.214c-1.164-0.285-2.443,0.028-3.346,0.942c-0.994,1.006-1.255,2.471-0.788,3.718
			l-1.43,1.429l2.126,1.968l1.346-1.346c1.255,0.475,2.728,0.206,3.738-0.804C742.545,33.585,742.854,32.314,742.569,31.158z"/>
	</g>
</g>
<g id="tools_4">
	<g id="Tools_1_3_">
		<circle fill="#72B62B" cx="732.928" cy="208.841" r="13.908"/>
	</g>
	<g>
		<path fill="none" stroke="#FFFFFF" stroke-linecap="round" stroke-linejoin="round" stroke-miterlimit="10" d="M727.411,206.338
			c0.051,0.004,0.103,0.016,0.15,0.04c0.071,0.04,0.158,0.028,0.218-0.032l1.944-1.944c0.087-0.087,0.087-0.23,0-0.317
			c-0.107-0.107-0.107-0.281,0-0.388l0.531-0.531c0.107-0.107,0.281-0.107,0.388,0l0.158,0.158l1.267-1.267
			c0.305-0.305,0.305-0.796,0-1.097l-1.687-1.687c-0.305-0.305-0.796-0.305-1.097,0l-1.267,1.267l0.131,0.131
			c0.139,0.139,0.139,0.368,0,0.507l-0.408,0.408c-0.139,0.139-0.368,0.139-0.507,0c-0.071-0.071-0.186-0.071-0.257,0l-1.972,1.972
			c-0.071,0.071-0.071,0.19,0,0.261s0.083,0.186,0.024,0.273c-2.546,3.762-0.74,5.603-0.74,5.603
			c0.226-1.647,1.616-3.176,2.978-3.358C727.308,206.334,727.363,206.334,727.411,206.338z"/>
		<path fill="none" stroke="#FFFFFF" stroke-linecap="round" stroke-linejoin="round" stroke-miterlimit="10" d="M740.617,214.515
			l-10.212-9.44l-1.853,1.853l9.436,10.212c0.519,0.554,1.394,0.57,1.932,0.032l0.729-0.729
			C741.187,215.909,741.171,215.034,740.617,214.515z"/>
		<path fill="none" stroke="#FFFFFF" stroke-linecap="round" stroke-linejoin="round" stroke-miterlimit="10" d="M727.015,215.101
			c-0.566,0.566-0.566,1.481,0,2.047l0,0c0.566,0.566,1.481,0.566,2.047,0l4.063-4.063l-1.968-2.126L727.015,215.101z"/>
		<path fill="none" stroke="#FFFFFF" stroke-linecap="round" stroke-linejoin="round" stroke-miterlimit="10" d="M742.569,204.168
			l-2.214,2.214c-0.17,0.17-0.428,0.226-0.653,0.143l-1.239-0.463c-0.166-0.063-0.301-0.194-0.36-0.36l-0.463-1.239
			c-0.083-0.226-0.028-0.483,0.143-0.653l2.214-2.214c-1.164-0.285-2.443,0.028-3.346,0.942c-0.994,1.006-1.255,2.471-0.788,3.718
			l-1.43,1.429l2.126,1.968l1.346-1.346c1.255,0.475,2.728,0.206,3.738-0.804C742.545,206.596,742.854,205.325,742.569,204.168z"/>
	</g>
</g>
<g id="tools_5">
	<g id="Tools_1_4_">
		<circle fill="#72B62B" cx="738.928" cy="399.454" r="13.908"/>
	</g>
	<g>
		<path fill="none" stroke="#FFFFFF" stroke-linecap="round" stroke-linejoin="round" stroke-miterlimit="10" d="M733.411,396.951
			c0.051,0.004,0.103,0.016,0.15,0.04c0.071,0.04,0.158,0.028,0.218-0.032l1.944-1.944c0.087-0.087,0.087-0.23,0-0.317
			c-0.107-0.107-0.107-0.281,0-0.388l0.531-0.531c0.107-0.107,0.281-0.107,0.388,0l0.158,0.158l1.267-1.267
			c0.305-0.305,0.305-0.796,0-1.097l-1.687-1.687c-0.305-0.305-0.796-0.305-1.097,0l-1.267,1.267l0.131,0.131
			c0.139,0.139,0.139,0.368,0,0.507l-0.408,0.408c-0.139,0.139-0.368,0.139-0.507,0c-0.071-0.071-0.186-0.071-0.257,0l-1.972,1.972
			c-0.071,0.071-0.071,0.19,0,0.261c0.071,0.071,0.083,0.186,0.024,0.273c-2.546,3.762-0.74,5.603-0.74,5.603
			c0.226-1.647,1.616-3.176,2.978-3.358C733.308,396.947,733.363,396.947,733.411,396.951z"/>
		<path fill="none" stroke="#FFFFFF" stroke-linecap="round" stroke-linejoin="round" stroke-miterlimit="10" d="M746.617,405.128
			l-10.212-9.44l-1.853,1.853l9.436,10.212c0.519,0.554,1.394,0.57,1.932,0.032l0.729-0.729
			C747.187,406.522,747.171,405.647,746.617,405.128z"/>
		<path fill="none" stroke="#FFFFFF" stroke-linecap="round" stroke-linejoin="round" stroke-miterlimit="10" d="M733.015,405.714
			c-0.566,0.566-0.566,1.481,0,2.047l0,0c0.566,0.566,1.481,0.566,2.047,0l4.063-4.063l-1.968-2.126L733.015,405.714z"/>
		<path fill="none" stroke="#FFFFFF" stroke-linecap="round" stroke-linejoin="round" stroke-miterlimit="10" d="M748.569,394.781
			l-2.214,2.214c-0.17,0.17-0.428,0.226-0.653,0.143l-1.239-0.463c-0.166-0.063-0.301-0.194-0.36-0.36l-0.463-1.239
			c-0.083-0.226-0.028-0.483,0.143-0.653l2.214-2.214c-1.164-0.285-2.443,0.028-3.346,0.942c-0.994,1.006-1.255,2.471-0.788,3.718
			l-1.43,1.429l2.126,1.968l1.346-1.346c1.255,0.475,2.728,0.206,3.738-0.804C748.545,397.208,748.854,395.937,748.569,394.781z"/>
	</g>
</g>
<g id="tools_6">
	<g id="Tools_1_5_">
		<circle fill="#72B62B" cx="436.109" cy="404.454" r="13.908"/>
	</g>
	<g>
		<path fill="none" stroke="#FFFFFF" stroke-linecap="round" stroke-linejoin="round" stroke-miterlimit="10" d="M430.592,401.951
			c0.051,0.004,0.103,0.016,0.15,0.04c0.071,0.04,0.158,0.028,0.218-0.032l1.944-1.944c0.087-0.087,0.087-0.23,0-0.317
			c-0.107-0.107-0.107-0.281,0-0.388l0.531-0.531c0.107-0.107,0.281-0.107,0.388,0l0.158,0.158l1.267-1.267
			c0.305-0.305,0.305-0.796,0-1.097l-1.687-1.687c-0.305-0.305-0.796-0.305-1.097,0l-1.267,1.267l0.131,0.131
			c0.139,0.139,0.139,0.368,0,0.507l-0.408,0.408c-0.139,0.139-0.368,0.139-0.507,0c-0.071-0.071-0.186-0.071-0.257,0l-1.972,1.972
			c-0.071,0.071-0.071,0.19,0,0.261c0.071,0.071,0.083,0.186,0.024,0.273c-2.546,3.762-0.74,5.603-0.74,5.603
			c0.226-1.647,1.616-3.176,2.978-3.358C430.489,401.947,430.545,401.947,430.592,401.951z"/>
		<path fill="none" stroke="#FFFFFF" stroke-linecap="round" stroke-linejoin="round" stroke-miterlimit="10" d="M443.798,410.128
			l-10.212-9.44l-1.853,1.853l9.436,10.212c0.519,0.554,1.394,0.57,1.932,0.032l0.729-0.729
			C444.368,411.522,444.352,410.647,443.798,410.128z"/>
		<path fill="none" stroke="#FFFFFF" stroke-linecap="round" stroke-linejoin="round" stroke-miterlimit="10" d="M430.196,410.714
			c-0.566,0.566-0.566,1.481,0,2.047l0,0c0.566,0.566,1.481,0.566,2.047,0l4.063-4.063l-1.968-2.126L430.196,410.714z"/>
		<path fill="none" stroke="#FFFFFF" stroke-linecap="round" stroke-linejoin="round" stroke-miterlimit="10" d="M445.75,399.781
			l-2.214,2.214c-0.17,0.17-0.428,0.226-0.653,0.143l-1.239-0.463c-0.166-0.063-0.301-0.194-0.36-0.36l-0.463-1.239
			c-0.083-0.226-0.028-0.483,0.143-0.653l2.214-2.214c-1.164-0.285-2.443,0.028-3.346,0.942c-0.994,1.006-1.255,2.471-0.788,3.718
			l-1.429,1.429l2.126,1.968l1.346-1.346c1.255,0.475,2.728,0.206,3.738-0.804C445.726,402.208,446.035,400.937,445.75,399.781z"/>
	</g>
</g>
<g id="tools_7">
	<g id="Tools_1_6_">
		<circle fill="#72B62B" cx="145.304" cy="205.954" r="13.908"/>
	</g>
	<g>
		<path fill="none" stroke="#FFFFFF" stroke-linecap="round" stroke-linejoin="round" stroke-miterlimit="10" d="M139.787,203.451
			c0.051,0.004,0.103,0.016,0.15,0.04c0.071,0.04,0.158,0.028,0.218-0.032l1.944-1.944c0.087-0.087,0.087-0.23,0-0.317
			c-0.107-0.107-0.107-0.281,0-0.388l0.531-0.531c0.107-0.107,0.281-0.107,0.388,0l0.158,0.158l1.267-1.267
			c0.305-0.305,0.305-0.796,0-1.097l-1.687-1.687c-0.305-0.305-0.796-0.305-1.097,0l-1.267,1.267l0.131,0.131
			c0.139,0.139,0.139,0.368,0,0.507l-0.408,0.408c-0.139,0.139-0.368,0.139-0.507,0c-0.071-0.071-0.186-0.071-0.257,0l-1.972,1.972
			c-0.071,0.071-0.071,0.19,0,0.261s0.083,0.186,0.024,0.273c-2.546,3.762-0.74,5.603-0.74,5.603
			c0.226-1.647,1.616-3.176,2.978-3.358C139.684,203.447,139.74,203.447,139.787,203.451z"/>
		<path fill="none" stroke="#FFFFFF" stroke-linecap="round" stroke-linejoin="round" stroke-miterlimit="10" d="M152.993,211.627
			l-10.212-9.44l-1.853,1.853l9.436,10.212c0.519,0.554,1.394,0.57,1.932,0.032l0.729-0.729
			C153.563,213.021,153.547,212.146,152.993,211.627z"/>
		<path fill="none" stroke="#FFFFFF" stroke-linecap="round" stroke-linejoin="round" stroke-miterlimit="10" d="M139.391,212.214
			c-0.566,0.566-0.566,1.481,0,2.047l0,0c0.566,0.566,1.481,0.566,2.047,0l4.063-4.063l-1.968-2.126L139.391,212.214z"/>
		<path fill="none" stroke="#FFFFFF" stroke-linecap="round" stroke-linejoin="round" stroke-miterlimit="10" d="M154.945,201.281
			l-2.214,2.213c-0.17,0.17-0.428,0.226-0.653,0.143l-1.239-0.463c-0.166-0.063-0.301-0.194-0.36-0.36l-0.463-1.239
			c-0.083-0.226-0.028-0.483,0.143-0.653l2.214-2.213c-1.164-0.285-2.443,0.028-3.346,0.942c-0.994,1.006-1.255,2.471-0.788,3.718
			l-1.429,1.429l2.126,1.968l1.346-1.346c1.255,0.475,2.728,0.206,3.738-0.804C154.921,203.708,155.23,202.437,154.945,201.281z"/>
	</g>
</g>
<g id="cappello_1">
	<circle fill="#D02517" cx="80.542" cy="37.344" r="13.937"/>
	<g>
		<path fill="none" stroke="#FFFFFF" stroke-miterlimit="10" d="M86.463,37.415c-0.048-0.528-0.099-1.141-0.145-1.812
			c-0.148-2.154-1.255-4.116-1.969-4.492c-0.141-0.074-0.361-0.09-0.625-0.067c-1.073,0.091-2.891,0.812-3.27,0.811
			c-0.288-0.001-1.484-0.293-2.532-0.359c-0.666-0.042-1.272,0.007-1.547,0.281c-0.43,0.428-0.777,2.904-0.983,4.784
			c-2.644,0.436-4.429,1.373-4.518,2.579c-0.142,1.929,4.117,3.816,9.513,4.213c5.396,0.398,9.886-0.844,10.028-2.773
			C90.5,39.398,88.932,38.232,86.463,37.415z"/>
		<g>
			<path fill="#FFFFFF" d="M75.084,39.217l0.112-1.085c0.016,0.01,1.954,1.071,5.779,1.274c3.973,0.211,5.647-0.63,5.647-0.63
				l0.202,0.99c-0.369,0.294-1.518,1.104-5.9,0.872C78.165,40.491,75.864,39.703,75.084,39.217z"/>
		</g>
		<line fill="none" stroke="#FFFFFF" stroke-miterlimit="10" x1="75.085" y1="39.216" x2="75.39" y2="36.562"/>
		<line fill="none" stroke="#FFFFFF" stroke-miterlimit="10" x1="86.463" y1="37.415" x2="86.629" y2="39.648"/>
	</g>
</g>
<g id="cappello_2">
	<circle fill="#D02517" cx="362.819" cy="39.307" r="13.937"/>
	<g>
		<path fill="none" stroke="#FFFFFF" stroke-miterlimit="10" d="M368.739,39.378c-0.048-0.528-0.099-1.141-0.145-1.812
			c-0.148-2.154-1.255-4.116-1.969-4.492c-0.141-0.074-0.361-0.09-0.625-0.067c-1.073,0.091-2.891,0.812-3.27,0.811
			c-0.288-0.001-1.484-0.293-2.532-0.359c-0.666-0.042-1.272,0.007-1.547,0.281c-0.43,0.428-0.777,2.904-0.983,4.784
			c-2.644,0.436-4.429,1.373-4.518,2.579c-0.142,1.929,4.117,3.816,9.513,4.213c5.396,0.398,9.886-0.844,10.028-2.773
			C372.777,41.361,371.208,40.195,368.739,39.378z"/>
		<g>
			<path fill="#FFFFFF" d="M357.361,41.18l0.112-1.085c0.016,0.01,1.954,1.071,5.779,1.274c3.973,0.211,5.647-0.63,5.647-0.63
				l0.202,0.99c-0.368,0.294-1.518,1.104-5.9,0.872C360.442,42.455,358.141,41.666,357.361,41.18z"/>
		</g>
		<line fill="none" stroke="#FFFFFF" stroke-miterlimit="10" x1="357.361" y1="41.179" x2="357.667" y2="38.525"/>
		<line fill="none" stroke="#FFFFFF" stroke-miterlimit="10" x1="368.739" y1="39.378" x2="368.905" y2="41.611"/>
	</g>
</g>
<g id="cappello_3">
	<circle fill="#D02517" cx="662.758" cy="37.949" r="13.937"/>
	<g>
		<path fill="none" stroke="#FFFFFF" stroke-miterlimit="10" d="M668.679,38.019c-0.048-0.528-0.099-1.141-0.145-1.812
			c-0.148-2.154-1.255-4.116-1.969-4.492c-0.141-0.074-0.361-0.09-0.625-0.067c-1.073,0.091-2.891,0.812-3.27,0.811
			c-0.288-0.001-1.484-0.293-2.532-0.359c-0.666-0.042-1.272,0.007-1.547,0.281c-0.43,0.428-0.777,2.904-0.983,4.784
			c-2.644,0.436-4.429,1.373-4.518,2.579c-0.142,1.929,4.117,3.816,9.513,4.213c5.396,0.398,9.886-0.844,10.028-2.773
			C672.716,40.002,671.148,38.836,668.679,38.019z"/>
		<g>
			<path fill="#FFFFFF" d="M657.3,39.821l0.112-1.085c0.016,0.01,1.954,1.071,5.779,1.274c3.973,0.211,5.647-0.63,5.647-0.63
				l0.202,0.99c-0.369,0.294-1.518,1.104-5.9,0.872C660.381,41.096,658.08,40.307,657.3,39.821z"/>
		</g>
		<line fill="none" stroke="#FFFFFF" stroke-miterlimit="10" x1="657.301" y1="39.82" x2="657.606" y2="37.166"/>
		<line fill="none" stroke="#FFFFFF" stroke-miterlimit="10" x1="668.679" y1="38.019" x2="668.845" y2="40.252"/>
	</g>
</g>
<g id="cappello_4">
	<circle fill="#D02517" cx="662.758" cy="208.841" r="13.937"/>
	<g>
		<path fill="none" stroke="#FFFFFF" stroke-miterlimit="10" d="M668.679,208.912c-0.048-0.528-0.099-1.141-0.145-1.812
			c-0.148-2.154-1.255-4.116-1.969-4.492c-0.141-0.074-0.361-0.09-0.625-0.067c-1.073,0.091-2.891,0.812-3.27,0.811
			c-0.288-0.001-1.484-0.293-2.532-0.359c-0.666-0.042-1.272,0.007-1.547,0.281c-0.43,0.428-0.777,2.904-0.983,4.784
			c-2.644,0.436-4.429,1.373-4.518,2.579c-0.142,1.929,4.117,3.816,9.513,4.213c5.396,0.398,9.886-0.844,10.028-2.773
			C672.716,210.895,671.148,209.729,668.679,208.912z"/>
		<g>
			<path fill="#FFFFFF" d="M657.3,210.714l0.112-1.085c0.016,0.01,1.954,1.071,5.779,1.274c3.973,0.211,5.647-0.63,5.647-0.63
				l0.202,0.99c-0.369,0.294-1.518,1.104-5.9,0.872C660.381,211.988,658.08,211.2,657.3,210.714z"/>
		</g>
		<line fill="none" stroke="#FFFFFF" stroke-miterlimit="10" x1="657.301" y1="210.713" x2="657.606" y2="208.059"/>
		<line fill="none" stroke="#FFFFFF" stroke-miterlimit="10" x1="668.679" y1="208.912" x2="668.845" y2="211.145"/>
	</g>
</g>
<g id="cappello_5">
	<circle fill="#D02517" cx="668.679" cy="403.544" r="13.937"/>
	<g>
		<path fill="none" stroke="#FFFFFF" stroke-miterlimit="10" d="M674.599,403.614c-0.048-0.528-0.099-1.141-0.145-1.812
			c-0.148-2.154-1.255-4.116-1.969-4.492c-0.141-0.074-0.361-0.09-0.625-0.067c-1.073,0.091-2.891,0.812-3.27,0.811
			c-0.288-0.001-1.484-0.293-2.532-0.359c-0.666-0.042-1.272,0.007-1.547,0.281c-0.43,0.428-0.777,2.904-0.983,4.784
			c-2.644,0.436-4.429,1.373-4.518,2.579c-0.142,1.929,4.117,3.816,9.513,4.213s9.886-0.844,10.028-2.773
			C678.637,405.598,677.068,404.432,674.599,403.614z"/>
		<g>
			<path fill="#FFFFFF" d="M663.221,405.416l0.112-1.085c0.016,0.01,1.954,1.071,5.779,1.274c3.973,0.211,5.647-0.63,5.647-0.63
				l0.202,0.99c-0.369,0.294-1.518,1.104-5.9,0.872C666.302,406.691,664.001,405.902,663.221,405.416z"/>
		</g>
		<line fill="none" stroke="#FFFFFF" stroke-miterlimit="10" x1="663.221" y1="405.415" x2="663.527" y2="402.761"/>
		<line fill="none" stroke="#FFFFFF" stroke-miterlimit="10" x1="674.599" y1="403.614" x2="674.765" y2="405.847"/>
	</g>
</g>
<g id="cappello_6">
	<circle fill="#D02517" cx="364.359" cy="403.544" r="13.937"/>
	<g>
		<path fill="none" stroke="#FFFFFF" stroke-miterlimit="10" d="M370.279,403.614c-0.048-0.528-0.099-1.141-0.145-1.812
			c-0.148-2.154-1.255-4.116-1.969-4.492c-0.141-0.074-0.361-0.09-0.625-0.067c-1.073,0.091-2.891,0.812-3.27,0.811
			c-0.288-0.001-1.484-0.293-2.532-0.359c-0.666-0.042-1.272,0.007-1.547,0.281c-0.43,0.428-0.777,2.904-0.983,4.784
			c-2.644,0.436-4.429,1.373-4.518,2.579c-0.142,1.929,4.117,3.816,9.513,4.213c5.396,0.398,9.886-0.844,10.028-2.773
			C374.317,405.598,372.748,404.432,370.279,403.614z"/>
		<g>
			<path fill="#FFFFFF" d="M358.901,405.416l0.112-1.085c0.016,0.01,1.954,1.071,5.779,1.274c3.973,0.211,5.647-0.63,5.647-0.63
				l0.202,0.99c-0.369,0.294-1.518,1.104-5.9,0.872C361.982,406.691,359.681,405.902,358.901,405.416z"/>
		</g>
		<line fill="none" stroke="#FFFFFF" stroke-miterlimit="10" x1="358.901" y1="405.415" x2="359.207" y2="402.761"/>
		<line fill="none" stroke="#FFFFFF" stroke-miterlimit="10" x1="370.279" y1="403.614" x2="370.445" y2="405.847"/>
	</g>
</g>
<g id="cappello_8">
	<circle fill="#D02517" cx="70.252" cy="608.071" r="13.937"/>
	<g>
		<path fill="none" stroke="#FFFFFF" stroke-miterlimit="10" d="M76.173,608.141c-0.048-0.528-0.099-1.141-0.145-1.812
			c-0.148-2.154-1.255-4.116-1.969-4.492c-0.141-0.074-0.361-0.09-0.625-0.067c-1.073,0.091-2.891,0.812-3.27,0.811
			c-0.288-0.001-1.484-0.293-2.532-0.359c-0.666-0.042-1.272,0.007-1.547,0.281c-0.43,0.428-0.777,2.904-0.983,4.784
			c-2.644,0.436-4.429,1.373-4.518,2.579c-0.142,1.929,4.117,3.816,9.513,4.213c5.396,0.398,9.886-0.844,10.028-2.773
			C80.21,610.124,78.642,608.958,76.173,608.141z"/>
		<g>
			<path fill="#FFFFFF" d="M64.795,609.943l0.112-1.085c0.016,0.01,1.954,1.071,5.779,1.274c3.973,0.211,5.647-0.63,5.647-0.63
				l0.202,0.99c-0.369,0.294-1.518,1.104-5.9,0.872C67.876,611.218,65.575,610.429,64.795,609.943z"/>
		</g>
		<line fill="none" stroke="#FFFFFF" stroke-miterlimit="10" x1="64.795" y1="609.942" x2="65.1" y2="607.288"/>
		<line fill="none" stroke="#FFFFFF" stroke-miterlimit="10" x1="76.173" y1="608.141" x2="76.339" y2="610.374"/>
	</g>
</g>
<g id="cappello_7_1_">
	<circle fill="#D02517" cx="75.084" cy="206.708" r="13.937"/>
	<g>
		<path fill="none" stroke="#FFFFFF" stroke-miterlimit="10" d="M81.005,206.779c-0.048-0.528-0.099-1.141-0.145-1.812
			c-0.148-2.154-1.255-4.116-1.969-4.492c-0.141-0.074-0.361-0.09-0.625-0.067c-1.073,0.091-2.891,0.812-3.27,0.811
			c-0.288-0.001-1.484-0.293-2.532-0.359c-0.666-0.042-1.272,0.007-1.547,0.281c-0.43,0.428-0.777,2.904-0.983,4.784
			c-2.644,0.436-4.429,1.373-4.518,2.579c-0.142,1.929,4.117,3.816,9.513,4.213c5.396,0.398,9.886-0.844,10.028-2.773
			C85.042,208.762,83.474,207.596,81.005,206.779z"/>
		<g>
			<path fill="#FFFFFF" d="M69.626,208.581l0.112-1.085c0.016,0.01,1.954,1.071,5.779,1.274c3.973,0.211,5.647-0.63,5.647-0.63
				l0.202,0.99c-0.369,0.294-1.518,1.104-5.9,0.872C72.708,209.855,70.407,209.067,69.626,208.581z"/>
		</g>
		<line fill="none" stroke="#FFFFFF" stroke-miterlimit="10" x1="69.627" y1="208.58" x2="69.932" y2="205.926"/>
		<line fill="none" stroke="#FFFFFF" stroke-miterlimit="10" x1="81.005" y1="206.779" x2="81.171" y2="209.012"/>
	</g>
</g>
<g id="tools_8">
	<g id="Tools_1_7_">
		<circle fill="#72B62B" cx="139.621" cy="604.252" r="13.908"/>
	</g>
	<g>
		<path fill="none" stroke="#FFFFFF" stroke-linecap="round" stroke-linejoin="round" stroke-miterlimit="10" d="M134.103,601.749
			c0.051,0.004,0.103,0.016,0.15,0.04c0.071,0.04,0.158,0.028,0.218-0.032l1.944-1.944c0.087-0.087,0.087-0.23,0-0.317
			c-0.107-0.107-0.107-0.281,0-0.388l0.531-0.531c0.107-0.107,0.281-0.107,0.388,0l0.158,0.158l1.267-1.267
			c0.305-0.305,0.305-0.796,0-1.097l-1.687-1.687c-0.305-0.305-0.796-0.305-1.097,0l-1.267,1.267l0.131,0.131
			c0.139,0.139,0.139,0.368,0,0.507l-0.408,0.408c-0.139,0.139-0.368,0.139-0.507,0c-0.071-0.071-0.186-0.071-0.257,0l-1.972,1.972
			c-0.071,0.071-0.071,0.19,0,0.261c0.071,0.071,0.083,0.186,0.024,0.273c-2.546,3.762-0.74,5.603-0.74,5.603
			c0.226-1.647,1.616-3.176,2.978-3.358C134.001,601.745,134.056,601.745,134.103,601.749z"/>
		<path fill="none" stroke="#FFFFFF" stroke-linecap="round" stroke-linejoin="round" stroke-miterlimit="10" d="M147.309,609.925
			l-10.212-9.44l-1.853,1.853l9.436,10.212c0.519,0.554,1.394,0.57,1.932,0.032l0.729-0.729
			C147.879,611.319,147.864,610.444,147.309,609.925z"/>
		<path fill="none" stroke="#FFFFFF" stroke-linecap="round" stroke-linejoin="round" stroke-miterlimit="10" d="M133.708,610.512
			c-0.566,0.566-0.566,1.481,0,2.047l0,0c0.566,0.566,1.481,0.566,2.047,0l4.063-4.063l-1.968-2.126L133.708,610.512z"/>
		<path fill="none" stroke="#FFFFFF" stroke-linecap="round" stroke-linejoin="round" stroke-miterlimit="10" d="M149.261,599.579
			l-2.214,2.214c-0.17,0.17-0.428,0.226-0.653,0.143l-1.239-0.463c-0.166-0.063-0.301-0.194-0.36-0.36l-0.463-1.239
			c-0.083-0.226-0.028-0.483,0.143-0.653l2.214-2.214c-1.164-0.285-2.443,0.028-3.346,0.942c-0.994,1.006-1.255,2.471-0.788,3.718
			l-1.429,1.43l2.126,1.968l1.346-1.346c1.255,0.475,2.728,0.206,3.738-0.804C149.238,602.006,149.547,600.735,149.261,599.579z"/>
	</g>
</g>
</svg>
