<?xml version="1.0" encoding="utf-8"?>
<!-- Generator: Adobe Illustrator 17.0.0, SVG Export Plug-In . SVG Version: 6.00 Build 0)  -->
<!DOCTYPE svg PUBLIC "-//W3C//DTD SVG 1.1//EN" "http://www.w3.org/Graphics/SVG/1.1/DTD/svg11.dtd">
<svg version="1.1" id="Livello_1" xmlns="http://www.w3.org/2000/svg" xmlns:xlink="http://www.w3.org/1999/xlink" x="0px" y="0px"
	 width="864.093px" height="202.89px" viewBox="0 0 864.093 202.89" enable-background="new 0 0 864.093 202.89"
	 xml:space="preserve">
<g id="libro_1">
	<path fill="#0384B3" d="M133.572,157.711c0,2.373-1.32,4.296-2.948,4.296H34.02c-1.628,0-2.948-1.923-2.948-4.296V78.096
		c0-2.373,1.32-4.296,2.948-4.296h96.604c1.628,0,2.948,1.923,2.948,4.296V157.711z"/>
	<path fill="none" stroke="#000000" stroke-width="2" stroke-miterlimit="10" d="M131.674,160.317c0,2.373-1.32,4.296-2.948,4.296
		H32.123c-1.628,0-2.948-1.923-2.948-4.296V80.702c0-2.373,1.32-4.296,2.948-4.296h96.604c1.628,0,2.948,1.923,2.948,4.296V160.317z
		"/>
	<g id="XMLID_1_">
		<g id="XMLID_4_">
			<path id="XMLID_13_" fill="none" stroke="#FFFFFF" stroke-width="3" stroke-miterlimit="10" d="M89.497,148.214
				c6.669,0.573,13.389,0.104,20.058,0.26c1.302,0,2.657,0.26,4.012-0.313c0-13.858,0-27.716,0-41.887c-2.136,0-4.116,0-6.148,0"/>
			<path id="XMLID_12_" fill="none" stroke="#FFFFFF" stroke-width="3" stroke-miterlimit="10" d="M58.238,106.275
				c-1.928,0-3.803,0-5.887,0c0,14.171,0,28.029,0,42.2c3.855,0,7.606,0.052,11.305,0c4.064-0.052,8.179,0.313,12.243-0.26"/>
			<path id="XMLID_11_" fill="none" stroke="#FFFFFF" stroke-width="3" stroke-miterlimit="10" d="M82.984,148.214
				c0-12.92-0.208-25.893,0.104-38.813c0.104-4.376-1.719-6.669-5.054-8.596c-3.23-1.823-14.9-4.116-19.068-3.022
				c0,13.441,0,26.987,0,40.272c3.595,1.615,7.137,0.781,10.524,1.511c4.012,0.834,7.919,1.771,11.201,4.48
				c2.188,1.823,2.865,1.823,4.949,0c3.074-2.709,6.825-3.543,10.68-4.48c3.438-0.834,7.085,0.104,10.732-1.511
				c0-13.285,0-26.831,0-40.689c-8.909,0.208-17.297,0.938-24.017,7.19"/>
			<path id="XMLID_10_" fill="none" stroke="#FFFFFF" stroke-width="3" stroke-miterlimit="10" d="M76.993,121.644
				c-3.959-1.928-8.232-2.344-12.504-2.865"/>
			<path id="XMLID_9_" fill="none" stroke="#FFFFFF" stroke-width="3" stroke-miterlimit="10" d="M101.479,110.443
				c-4.324,0.313-8.544,0.938-12.504,2.865"/>
			<path id="XMLID_8_" fill="none" stroke="#FFFFFF" stroke-width="3" stroke-miterlimit="10" d="M101.479,118.779
				c-4.272,0.469-8.544,0.99-12.504,2.865"/>
			<path id="XMLID_7_" fill="none" stroke="#FFFFFF" stroke-width="3" stroke-miterlimit="10" d="M76.472,113.048
				c-3.803-1.667-7.867-2.292-11.983-2.605"/>
			<path id="XMLID_6_" fill="none" stroke="#FFFFFF" stroke-width="3" stroke-miterlimit="10" d="M100.437,127.114
				c-3.074,0.834-6.356,0.99-9.378,2.032c-0.729,0.26-1.355,0.573-2.084,0.834"/>
			<path id="XMLID_5_" fill="none" stroke="#FFFFFF" stroke-width="3" stroke-miterlimit="10" d="M65.01,127.375
				c4.168,0.104,8.127,1.146,11.983,2.605"/>
		</g>
	</g>
</g>
<g id="freccia_1">
	<g>

			<line fill="none" stroke="#000000" stroke-width="2" stroke-linecap="round" stroke-miterlimit="10" x1="154.841" y1="119.511" x2="207.191" y2="119.511"/>
		<g>
			<polygon points="204.857,127.489 218.673,119.512 204.857,111.534 			"/>
		</g>
	</g>
</g>
<g id="freccia_2">
	<g>

			<line fill="none" stroke="#000000" stroke-width="2" stroke-linecap="round" stroke-miterlimit="10" x1="395.923" y1="119.511" x2="448.273" y2="119.511"/>
		<g>
			<polygon points="445.939,127.489 459.754,119.512 445.939,111.534 			"/>
		</g>
	</g>
</g>
<g id="freccia_3">
	<g>

			<line fill="none" stroke="#000000" stroke-width="2" stroke-linecap="round" stroke-miterlimit="10" x1="639.517" y1="119.511" x2="691.867" y2="119.511"/>
		<g>
			<polygon points="689.533,127.489 703.348,119.512 689.533,111.534 			"/>
		</g>
	</g>
</g>
<g id="cerchio_1">

		<ellipse fill="#A786BC" stroke="#A685BC" stroke-width="5" stroke-linecap="round" stroke-linejoin="round" stroke-miterlimit="10" cx="303.843" cy="117.882" rx="68.914" ry="54.296"/>

		<ellipse fill="none" stroke="#050A0C" stroke-width="2" stroke-linecap="round" stroke-linejoin="round" stroke-miterlimit="10" cx="308.019" cy="122.059" rx="68.914" ry="54.296"/>
</g>
<g id="Create_smaller_stories">
	<text transform="matrix(1 0 0 1 284.6388 109.5297)"><tspan x="0" y="0" fill="#FFFFFF" font-family="'BebasNeue'" font-size="18.6213">Create</tspan><tspan x="-28.844" y="22.346" fill="#FFFFFF" font-family="'BebasNeue'" font-size="18.6213">smaller stories</tspan></text>
</g>
<g id="cerchio_2">

		<ellipse fill="#A786BC" stroke="#A685BC" stroke-width="5" stroke-linecap="round" stroke-linejoin="round" stroke-miterlimit="10" cx="552.391" cy="117.45" rx="68.914" ry="54.296"/>

		<ellipse fill="none" stroke="#050A0C" stroke-width="2" stroke-linecap="round" stroke-linejoin="round" stroke-miterlimit="10" cx="547.782" cy="118.314" rx="68.914" ry="54.296"/>
</g>
<g id="establish_general_constraints_and_competency_questions">
	<text transform="matrix(1 0 0 1 495.2531 98.1044)"><tspan x="0" y="0" fill="#FFFFFF" font-family="'BebasNeue'" font-size="17.5889">establish general</tspan><tspan x="5.321" y="21.107" fill="#FFFFFF" font-family="'BebasNeue'" font-size="17.5889">constraints and</tspan><tspan x="18.434" y="42.213" fill="#FFFFFF" font-family="'BebasNeue'" font-size="17.5889">competency</tspan><tspan x="24.782" y="63.32" fill="#FFFFFF" font-family="'BebasNeue'" font-size="17.5889">questions</tspan></text>
</g>
<g id="create_smaller_stories_lavagna_1">
	<circle fill="#514998" cx="326.228" cy="39.325" r="18.64"/>
	<g>
		<path fill="#FFFFFF" d="M316.374,29.821v17.653h13.476c0-0.382,0-0.765,0-1.147h-12.463V30.968h17.73v8.757
			c0.328,0,0.67,0,1.013,0v-9.904H316.374z"/>

			<line fill="#FFFFFF" stroke="#FFFFFF" stroke-linecap="round" stroke-miterlimit="10" x1="329.623" y1="39.97" x2="338.037" y2="48.383"/>
	</g>
</g>
<g id="libro_2">
	<path fill="#A786BC" d="M832.106,157.097c0,2.366-1.316,4.284-2.94,4.284h-96.339c-1.624,0-2.94-1.918-2.94-4.284V77.7
		c0-2.366,1.316-4.284,2.94-4.284h96.339c1.624,0,2.94,1.918,2.94,4.284V157.097z"/>
	<g id="XMLID_3_">
		<g id="XMLID_2_">
			<path id="XMLID_712_" fill="none" stroke="#FFFFFF" stroke-width="3" stroke-miterlimit="10" d="M781.852,149.393
				c6.65,0.572,13.353,0.104,20.003,0.26c1.299,0,2.65,0.26,4.001-0.312c0-13.82,0-27.64,0-41.772c-2.13,0-4.104,0-6.131,0"/>
			<path id="XMLID_711_" fill="none" stroke="#FFFFFF" stroke-width="3" stroke-miterlimit="10" d="M750.678,107.568
				c-1.922,0-3.793,0-5.871,0c0,14.132,0,27.952,0,42.084c3.845,0,7.586,0.052,11.274,0c4.053-0.052,8.157,0.312,12.21-0.26"/>
			<path id="XMLID_705_" fill="none" stroke="#FFFFFF" stroke-width="3" stroke-miterlimit="10" d="M775.357,149.393
				c0-12.885-0.208-25.822,0.104-38.707c0.104-4.364-1.715-6.65-5.04-8.573c-3.221-1.818-14.859-4.104-19.016-3.013
				c0,13.405,0,26.913,0,40.162c3.585,1.611,7.118,0.779,10.495,1.507c4.001,0.831,7.897,1.766,11.17,4.468
				c2.182,1.818,2.858,1.818,4.936,0c3.065-2.702,6.806-3.533,10.651-4.468c3.429-0.831,7.066,0.104,10.703-1.507
				c0-13.249,0-26.757,0-40.577c-8.884,0.208-17.249,0.935-23.952,7.17"/>
			<path id="XMLID_597_" fill="none" stroke="#FFFFFF" stroke-width="3" stroke-miterlimit="10" d="M769.382,122.895
				c-3.949-1.922-8.209-2.338-12.469-2.858"/>
			<path id="XMLID_595_" fill="none" stroke="#FFFFFF" stroke-width="3" stroke-miterlimit="10" d="M793.802,111.725
				c-4.312,0.312-8.521,0.935-12.469,2.858"/>
			<path id="XMLID_589_" fill="none" stroke="#FFFFFF" stroke-width="3" stroke-miterlimit="10" d="M793.802,120.038
				c-4.26,0.468-8.521,0.987-12.469,2.858"/>
			<path id="XMLID_586_" fill="none" stroke="#FFFFFF" stroke-width="3" stroke-miterlimit="10" d="M768.863,114.323
				c-3.793-1.663-7.845-2.286-11.95-2.598"/>
			<path id="XMLID_581_" fill="none" stroke="#FFFFFF" stroke-width="3" stroke-miterlimit="10" d="M792.762,128.351
				c-3.065,0.831-6.339,0.987-9.352,2.026c-0.727,0.26-1.351,0.572-2.078,0.831"/>
			<path id="XMLID_579_" fill="none" stroke="#FFFFFF" stroke-width="3" stroke-miterlimit="10" d="M757.433,128.61
				c4.156,0.104,8.105,1.143,11.95,2.598"/>
		</g>
	</g>
	<text transform="matrix(1 0 0 1 802.4535 128.3827)" fill="#FFFFFF" font-family="'MyriadPro-Regular'" font-size="68.1812">?</text>
	<path fill="none" stroke="#000000" stroke-width="2" stroke-miterlimit="10" d="M830.489,159.845c0,2.373-1.32,4.296-2.948,4.296
		h-96.604c-1.628,0-2.948-1.923-2.948-4.296V80.23c0-2.373,1.32-4.296,2.948-4.296h96.604c1.628,0,2.948,1.923,2.948,4.296V159.845z
		"/>
</g>
<g id="create_smaller_stories_cappello_1">
	<circle fill="#D02517" cx="279.656" cy="39.204" r="18.757"/>
	<g>
		<path fill="none" stroke="#FFFFFF" stroke-miterlimit="10" d="M287.624,39.299c-0.065-0.71-0.134-1.536-0.196-2.439
			c-0.199-2.899-1.69-5.54-2.651-6.046c-0.19-0.1-0.486-0.12-0.842-0.09c-1.444,0.123-3.891,1.093-4.4,1.092
			c-0.388-0.001-1.998-0.394-3.408-0.483c-0.896-0.056-1.711,0.01-2.082,0.379c-0.579,0.576-1.046,3.909-1.324,6.439
			c-3.558,0.587-5.961,1.848-6.081,3.47c-0.191,2.596,5.541,5.135,12.803,5.671c7.262,0.535,13.305-1.136,13.496-3.732
			C293.058,41.968,290.947,40.399,287.624,39.299z"/>
		<g>
			<path fill="#FFFFFF" d="M272.31,41.724l0.15-1.461c0.022,0.013,2.63,1.442,7.777,1.715c5.347,0.284,7.6-0.848,7.6-0.848
				l0.272,1.333c-0.496,0.396-2.043,1.486-7.941,1.173C276.457,43.44,273.36,42.379,272.31,41.724z"/>
		</g>
		<line fill="none" stroke="#FFFFFF" stroke-miterlimit="10" x1="272.311" y1="41.723" x2="272.722" y2="38.151"/>
		<line fill="none" stroke="#FFFFFF" stroke-miterlimit="10" x1="287.624" y1="39.299" x2="287.847" y2="42.304"/>
	</g>
</g>
<g id="establish_general_constraints_and_competency_questions_lavagna_2">
	<circle fill="#514998" cx="571.127" cy="39.325" r="18.64"/>
	<g>
		<path fill="#FFFFFF" d="M561.273,29.821v17.653h13.476c0-0.382,0-0.765,0-1.147h-12.463V30.968h17.73v8.757
			c0.329,0,0.67,0,1.013,0v-9.904H561.273z"/>

			<line fill="#FFFFFF" stroke="#FFFFFF" stroke-linecap="round" stroke-miterlimit="10" x1="574.522" y1="39.97" x2="582.936" y2="48.383"/>
	</g>
</g>
<g id="establish_general_constraints_and_competency_questions_cappello_1">
	<circle fill="#D02517" cx="524.554" cy="39.204" r="18.757"/>
	<g>
		<path fill="none" stroke="#FFFFFF" stroke-miterlimit="10" d="M532.522,39.299c-0.065-0.71-0.134-1.536-0.196-2.439
			c-0.199-2.899-1.69-5.54-2.651-6.046c-0.19-0.1-0.486-0.12-0.842-0.09c-1.444,0.123-3.891,1.093-4.4,1.092
			c-0.388-0.001-1.998-0.394-3.408-0.483c-0.896-0.056-1.711,0.01-2.082,0.379c-0.579,0.576-1.046,3.909-1.323,6.439
			c-3.558,0.587-5.961,1.848-6.081,3.47c-0.191,2.596,5.541,5.135,12.803,5.671c7.262,0.535,13.305-1.136,13.496-3.732
			C537.956,41.968,535.845,40.399,532.522,39.299z"/>
		<g>
			<path fill="#FFFFFF" d="M517.209,41.724l0.15-1.461c0.022,0.013,2.63,1.442,7.777,1.715c5.347,0.284,7.6-0.848,7.6-0.848
				l0.272,1.333c-0.496,0.396-2.043,1.486-7.941,1.173C521.356,43.44,518.259,42.379,517.209,41.724z"/>
		</g>
		<line fill="none" stroke="#FFFFFF" stroke-miterlimit="10" x1="517.209" y1="41.723" x2="517.62" y2="38.151"/>
		<line fill="none" stroke="#FFFFFF" stroke-miterlimit="10" x1="532.522" y1="39.299" x2="532.746" y2="42.304"/>
	</g>
</g>
</svg>
