<?xml version="1.0" encoding="utf-8"?>
<!-- Generator: Adobe Illustrator 17.0.0, SVG Export Plug-In . SVG Version: 6.00 Build 0)  -->
<!DOCTYPE svg PUBLIC "-//W3C//DTD SVG 1.1//EN" "http://www.w3.org/Graphics/SVG/1.1/DTD/svg11.dtd">
<svg version="1.1" id="Livello_1" xmlns="http://www.w3.org/2000/svg" xmlns:xlink="http://www.w3.org/1999/xlink" x="0px" y="0px"
	 width="1249.352px" height="595.28px" viewBox="0 0 1249.352 595.28" enable-background="new 0 0 1249.352 595.28"
	 xml:space="preserve">
<g id="grafo_1">
	<path fill="#FAB537" d="M364.704,191.757c0,2.86-1.591,5.178-3.553,5.178H244.701c-1.962,0-3.553-2.318-3.553-5.178v-95.97
		c0-2.86,1.591-5.178,3.553-5.178H361.15c1.962,0,3.553,2.318,3.553,5.178V191.757z"/>
	<path fill="none" stroke="#000000" stroke-width="2" stroke-miterlimit="10" d="M362.417,194.898c0,2.86-1.591,5.178-3.553,5.178
		H242.414c-1.962,0-3.553-2.318-3.553-5.178v-95.97c0-2.86,1.591-5.178,3.553-5.178h116.449c1.962,0,3.553,2.318,3.553,5.178
		V194.898z"/>
	<g>
		<ellipse fill="#FFFFFF" stroke="#FFFFFF" stroke-miterlimit="10" cx="269.97" cy="129.495" rx="13.436" ry="12.287"/>
		<ellipse fill="#FFFFFF" stroke="#FFFFFF" stroke-miterlimit="10" cx="331.392" cy="145.293" rx="11.517" ry="10.532"/>
		<ellipse fill="#FFFFFF" stroke="#FFFFFF" stroke-miterlimit="10" cx="295.403" cy="162.942" rx="11.997" ry="10.971"/>
		<line fill="none" stroke="#FFFFFF" stroke-miterlimit="10" x1="275.629" y1="129.495" x2="329.048" y2="145.293"/>
		<line fill="none" stroke="#FFFFFF" stroke-miterlimit="10" x1="329.048" y1="145.293" x2="295.403" y2="164.845"/>
		<line fill="none" stroke="#FFFFFF" stroke-miterlimit="10" x1="295.403" y1="164.845" x2="275.629" y2="134.761"/>
	</g>
</g>
<g id="grafo_2">
	<path fill="#8EBF22" d="M662.04,517.672c0,2.86-1.591,5.178-3.553,5.178H542.037c-1.962,0-3.553-2.318-3.553-5.178v-95.97
		c0-2.86,1.591-5.178,3.553-5.178h116.449c1.962,0,3.553,2.318,3.553,5.178V517.672z"/>
	<path fill="none" stroke="#000000" stroke-width="2" stroke-miterlimit="10" d="M659.753,520.813c0,2.86-1.591,5.178-3.553,5.178
		H539.75c-1.962,0-3.553-2.318-3.553-5.178v-95.97c0-2.86,1.591-5.178,3.553-5.178h116.449c1.962,0,3.553,2.318,3.553,5.178V520.813
		z"/>
	<g>
		<ellipse fill="#FFFFFF" stroke="#FFFFFF" stroke-miterlimit="10" cx="567.306" cy="455.41" rx="13.436" ry="12.287"/>
		<ellipse fill="#FFFFFF" stroke="#FFFFFF" stroke-miterlimit="10" cx="628.728" cy="471.208" rx="11.517" ry="10.532"/>
		<ellipse fill="#FFFFFF" stroke="#FFFFFF" stroke-miterlimit="10" cx="592.739" cy="488.857" rx="11.997" ry="10.971"/>
		<line fill="none" stroke="#FFFFFF" stroke-miterlimit="10" x1="572.965" y1="455.41" x2="626.384" y2="471.208"/>
		<line fill="none" stroke="#FFFFFF" stroke-miterlimit="10" x1="626.384" y1="471.208" x2="592.739" y2="490.76"/>
		<line fill="none" stroke="#FFFFFF" stroke-miterlimit="10" x1="592.739" y1="490.76" x2="572.965" y2="460.676"/>
	</g>
</g>
<g>
	<g>
		
			<line fill="none" stroke="#000000" stroke-width="2" stroke-linecap="round" stroke-miterlimit="10" x1="388.822" y1="146.913" x2="454.285" y2="146.913"/>
		<g>
			<polygon points="451.951,154.891 465.766,146.914 451.951,138.936 			"/>
		</g>
	</g>
</g>
<g id="cerchio_1">
	
		<ellipse fill="#2EB4AB" stroke="#2CB4AB" stroke-width="14" stroke-linecap="round" stroke-linejoin="round" stroke-miterlimit="10" cx="580.066" cy="146.936" rx="83.071" ry="65.45"/>
	
		<ellipse fill="none" stroke="#050A0C" stroke-width="2" stroke-linecap="round" stroke-linejoin="round" stroke-miterlimit="10" cx="585.1" cy="151.971" rx="83.071" ry="65.45"/>
</g>
<g id="Add_annotations">
	<text transform="matrix(1 0 0 1 567.8409 140.4121)"><tspan x="0" y="0" fill="#FFFFFF" font-family="'BebasNeue'" font-size="24.1086">Add</tspan><tspan x="-35.438" y="28.93" fill="#FFFFFF" font-family="'BebasNeue'" font-size="24.1086">annotations</tspan></text>
</g>
<g id="freccia_2">
	<g>
		
			<line fill="none" stroke="#000000" stroke-width="2" stroke-linecap="round" stroke-miterlimit="10" x1="697.613" y1="146.913" x2="763.076" y2="146.913"/>
		<g>
			<polygon points="760.742,154.891 774.558,146.914 760.742,138.936 			"/>
		</g>
	</g>
</g>
<g id="cerchio_2">
	
		<ellipse fill="#2EB4AB" stroke="#2CB4AB" stroke-width="14" stroke-linecap="round" stroke-linejoin="round" stroke-miterlimit="10" cx="888.857" cy="149.454" rx="83.071" ry="65.45"/>
	
		<ellipse fill="none" stroke="#050A0C" stroke-width="2" stroke-linecap="round" stroke-linejoin="round" stroke-miterlimit="10" cx="893.891" cy="154.488" rx="83.071" ry="65.45"/>
</g>
<g id="Add_examples">
	<text transform="matrix(1 0 0 1 876.6321 140.4121)"><tspan x="0" y="0" fill="#FFFFFF" font-family="'BebasNeue'" font-size="24.1086">Add</tspan><tspan x="-23.879" y="28.93" fill="#FFFFFF" font-family="'BebasNeue'" font-size="24.1086">examples</tspan></text>
</g>
<g id="cerchio_3_1_">
	<g>
		
			<ellipse fill="#2EB4AB" stroke="#2CB4AB" stroke-width="14" stroke-linecap="round" stroke-linejoin="round" stroke-miterlimit="10" cx="892.595" cy="471.257" rx="83.071" ry="65.45"/>
	</g>
	
		<ellipse id="cerchio_3" fill="none" stroke="#050A0C" stroke-width="2" stroke-linecap="round" stroke-linejoin="round" stroke-miterlimit="10" cx="897.63" cy="476.292" rx="83.071" ry="65.45"/>
</g>
<g id="Publish_the_ontology">
	<text transform="matrix(1 0 0 1 864.845 462.2159)"><tspan x="0" y="0" fill="#FFFFFF" font-family="'BebasNeue'" font-size="24.1086">Publish</tspan><tspan x="-22.794" y="28.93" fill="#FFFFFF" font-family="'BebasNeue'" font-size="24.1086">the ontology</tspan></text>
</g>
<g id="freccia_3">
	<g>
		
			<line fill="none" stroke="#000000" stroke-width="2" stroke-linecap="round" stroke-miterlimit="10" x1="893.891" y1="247.363" x2="893.891" y2="312.826"/>
		<g>
			<polygon points="885.913,310.492 893.891,324.308 901.869,310.492 			"/>
		</g>
	</g>
</g>
<g id="freccia_4">
	<g>
		
			<line fill="none" stroke="#000000" stroke-width="2" stroke-linecap="round" stroke-miterlimit="10" x1="775.558" y1="476.292" x2="710.094" y2="476.292"/>
		<g>
			<polygon points="712.429,468.314 698.613,476.291 712.429,484.269 			"/>
		</g>
	</g>
</g>
<g id="lavagna_1">
	<circle fill="#514998" cx="648.169" cy="42.91" r="23.692"/>
	<g>
		<path fill="#FFFFFF" d="M635.644,30.83v22.438h17.128c0-0.486,0-0.972,0-1.458h-15.84V32.288h22.535v11.13
			c0.418,0,0.852,0,1.288,0V30.83H635.644z"/>
		
			<line fill="#FFFFFF" stroke="#FFFFFF" stroke-linecap="round" stroke-miterlimit="10" x1="652.484" y1="43.729" x2="663.179" y2="54.424"/>
	</g>
</g>
<g id="tools_1">
	<g id="Tools_1_3_">
		<circle fill="#72B62B" cx="584.881" cy="43.083" r="23.176"/>
	</g>
	<g>
		<path fill="none" stroke="#FFFFFF" stroke-linecap="round" stroke-linejoin="round" stroke-miterlimit="10" d="M575.687,38.912
			c0.086,0.007,0.172,0.026,0.251,0.066c0.119,0.066,0.264,0.046,0.363-0.053l3.24-3.24c0.145-0.145,0.145-0.383,0-0.528
			c-0.178-0.178-0.178-0.469,0-0.647l0.884-0.884c0.178-0.178,0.469-0.178,0.647,0l0.264,0.264l2.112-2.112
			c0.508-0.508,0.508-1.326,0-1.828l-2.811-2.811c-0.508-0.508-1.326-0.508-1.828,0l-2.112,2.112l0.218,0.218
			c0.231,0.231,0.231,0.614,0,0.845l-0.68,0.68c-0.231,0.231-0.614,0.231-0.845,0c-0.119-0.119-0.31-0.119-0.429,0l-3.286,3.286
			c-0.119,0.119-0.119,0.317,0,0.436c0.119,0.119,0.139,0.31,0.04,0.455c-4.243,6.269-1.234,9.337-1.234,9.337
			c0.376-2.745,2.692-5.292,4.962-5.596C575.516,38.905,575.608,38.905,575.687,38.912z"/>
		<path fill="none" stroke="#FFFFFF" stroke-linecap="round" stroke-linejoin="round" stroke-miterlimit="10" d="M597.694,52.538
			l-17.018-15.731l-3.088,3.088l15.725,17.018c0.864,0.924,2.323,0.95,3.22,0.053l1.214-1.214
			C598.644,54.86,598.617,53.402,597.694,52.538z"/>
		<path fill="none" stroke="#FFFFFF" stroke-linecap="round" stroke-linejoin="round" stroke-miterlimit="10" d="M575.027,53.514
			c-0.944,0.944-0.944,2.468,0,3.412l0,0c0.944,0.944,2.468,0.944,3.411,0l6.77-6.77l-3.28-3.543L575.027,53.514z"/>
		<path fill="none" stroke="#FFFFFF" stroke-linecap="round" stroke-linejoin="round" stroke-miterlimit="10" d="M600.947,35.295
			l-3.689,3.689c-0.284,0.284-0.713,0.376-1.089,0.238l-2.065-0.772c-0.277-0.106-0.502-0.323-0.601-0.6l-0.772-2.065
			c-0.139-0.376-0.046-0.805,0.238-1.089l3.689-3.689c-1.94-0.475-4.071,0.046-5.576,1.57c-1.656,1.676-2.092,4.118-1.313,6.196
			l-2.382,2.382l3.543,3.28l2.244-2.244c2.092,0.792,4.546,0.343,6.229-1.34C600.907,39.34,601.422,37.222,600.947,35.295z"/>
	</g>
</g>
<g id="cappello_1">
	<circle fill="#D02517" cx="521.564" cy="42.77" r="23.225"/>
	<g>
		<path fill="none" stroke="#FFFFFF" stroke-miterlimit="10" d="M531.43,42.888c-0.081-0.879-0.165-1.902-0.242-3.02
			c-0.246-3.59-2.092-6.859-3.282-7.486c-0.235-0.124-0.602-0.149-1.042-0.112c-1.788,0.152-4.818,1.354-5.449,1.352
			c-0.48-0.001-2.474-0.488-4.22-0.598c-1.109-0.07-2.119,0.012-2.578,0.469c-0.717,0.713-1.295,4.84-1.639,7.973
			c-4.405,0.727-7.381,2.288-7.529,4.297c-0.237,3.215,6.861,6.358,15.853,7.021c8.992,0.663,16.474-1.406,16.711-4.621
			C538.158,46.193,535.544,44.25,531.43,42.888z"/>
		<g>
			<path fill="#FFFFFF" d="M512.468,45.891l0.186-1.808c0.027,0.016,3.256,1.785,9.63,2.123c6.621,0.351,9.411-1.05,9.411-1.05
				l0.336,1.65c-0.614,0.49-2.53,1.84-9.833,1.453C517.603,48.015,513.769,46.701,512.468,45.891z"/>
		</g>
		<line fill="none" stroke="#FFFFFF" stroke-miterlimit="10" x1="512.469" y1="45.889" x2="512.978" y2="41.467"/>
		<line fill="none" stroke="#FFFFFF" stroke-miterlimit="10" x1="531.43" y1="42.888" x2="531.706" y2="46.609"/>
	</g>
</g>
<g id="lavagna_2">
	<circle fill="#514998" cx="955.616" cy="42.91" r="23.692"/>
	<g>
		<path fill="#FFFFFF" d="M943.091,30.83v22.438h17.128c0-0.486,0-0.972,0-1.458h-15.84V32.288h22.535v11.13
			c0.418,0,0.852,0,1.288,0V30.83H943.091z"/>
		
			<line fill="#FFFFFF" stroke="#FFFFFF" stroke-linecap="round" stroke-miterlimit="10" x1="959.931" y1="43.729" x2="970.625" y2="54.424"/>
	</g>
</g>
<g id="tools_2">
	<g id="Tools_1_1_">
		<circle fill="#72B62B" cx="892.328" cy="43.083" r="23.176"/>
	</g>
	<g>
		<path fill="none" stroke="#FFFFFF" stroke-linecap="round" stroke-linejoin="round" stroke-miterlimit="10" d="M883.134,38.912
			c0.086,0.007,0.172,0.026,0.251,0.066c0.119,0.066,0.264,0.046,0.363-0.053l3.24-3.24c0.145-0.145,0.145-0.383,0-0.528
			c-0.178-0.178-0.178-0.469,0-0.647l0.884-0.884c0.178-0.178,0.469-0.178,0.647,0l0.264,0.264l2.112-2.112
			c0.508-0.508,0.508-1.326,0-1.828l-2.811-2.811c-0.508-0.508-1.326-0.508-1.828,0l-2.112,2.112l0.218,0.218
			c0.231,0.231,0.231,0.614,0,0.845l-0.68,0.68c-0.231,0.231-0.614,0.231-0.845,0c-0.119-0.119-0.31-0.119-0.429,0l-3.286,3.286
			c-0.119,0.119-0.119,0.317,0,0.436c0.119,0.119,0.139,0.31,0.04,0.455c-4.243,6.269-1.234,9.337-1.234,9.337
			c0.376-2.745,2.692-5.292,4.962-5.596C882.962,38.905,883.055,38.905,883.134,38.912z"/>
		<path fill="none" stroke="#FFFFFF" stroke-linecap="round" stroke-linejoin="round" stroke-miterlimit="10" d="M905.14,52.538
			l-17.018-15.731l-3.088,3.088l15.725,17.018c0.864,0.924,2.323,0.95,3.22,0.053l1.214-1.214
			C906.09,54.86,906.064,53.402,905.14,52.538z"/>
		<path fill="none" stroke="#FFFFFF" stroke-linecap="round" stroke-linejoin="round" stroke-miterlimit="10" d="M882.474,53.514
			c-0.944,0.944-0.944,2.468,0,3.412l0,0c0.944,0.944,2.468,0.944,3.411,0l6.77-6.77l-3.279-3.543L882.474,53.514z"/>
		<path fill="none" stroke="#FFFFFF" stroke-linecap="round" stroke-linejoin="round" stroke-miterlimit="10" d="M908.393,35.295
			l-3.689,3.689c-0.284,0.284-0.713,0.376-1.089,0.238l-2.065-0.772c-0.277-0.106-0.501-0.323-0.6-0.6l-0.772-2.065
			c-0.139-0.376-0.046-0.805,0.238-1.089l3.689-3.689c-1.94-0.475-4.071,0.046-5.576,1.57c-1.656,1.676-2.092,4.118-1.313,6.196
			l-2.382,2.382l3.543,3.28l2.244-2.244c2.092,0.792,4.547,0.343,6.229-1.34C908.354,39.34,908.869,37.222,908.393,35.295z"/>
	</g>
</g>
<g id="cappello_2">
	<circle fill="#D02517" cx="829.01" cy="42.77" r="23.225"/>
	<g>
		<path fill="none" stroke="#FFFFFF" stroke-miterlimit="10" d="M838.876,42.888c-0.081-0.879-0.165-1.902-0.242-3.02
			c-0.247-3.59-2.092-6.859-3.282-7.486c-0.235-0.124-0.602-0.149-1.042-0.112c-1.788,0.152-4.818,1.354-5.449,1.352
			c-0.48-0.001-2.474-0.488-4.22-0.598c-1.109-0.07-2.119,0.012-2.578,0.469c-0.717,0.713-1.295,4.84-1.639,7.973
			c-4.405,0.727-7.381,2.288-7.529,4.297c-0.237,3.215,6.861,6.358,15.853,7.021c8.992,0.663,16.474-1.406,16.711-4.621
			C845.605,46.193,842.991,44.25,838.876,42.888z"/>
		<g>
			<path fill="#FFFFFF" d="M819.915,45.891l0.186-1.808c0.027,0.016,3.256,1.785,9.63,2.123c6.621,0.351,9.411-1.05,9.411-1.05
				l0.336,1.65c-0.614,0.49-2.53,1.84-9.833,1.453C825.05,48.015,821.215,46.701,819.915,45.891z"/>
		</g>
		<line fill="none" stroke="#FFFFFF" stroke-miterlimit="10" x1="819.916" y1="45.889" x2="820.425" y2="41.467"/>
		<line fill="none" stroke="#FFFFFF" stroke-miterlimit="10" x1="838.876" y1="42.888" x2="839.153" y2="46.609"/>
	</g>
</g>
<g id="lavagna_3">
	<circle fill="#514998" cx="955.616" cy="362.187" r="23.692"/>
	<g>
		<path fill="#FFFFFF" d="M943.091,350.107v22.438h17.128c0-0.486,0-0.972,0-1.458h-15.84v-19.522h22.535v11.13
			c0.418,0,0.852,0,1.288,0v-12.588H943.091z"/>
		
			<line fill="#FFFFFF" stroke="#FFFFFF" stroke-linecap="round" stroke-miterlimit="10" x1="959.931" y1="363.006" x2="970.625" y2="373.701"/>
	</g>
</g>
<g id="tools_3">
	<g id="Tools_1_2_">
		<circle fill="#72B62B" cx="892.328" cy="362.36" r="23.176"/>
	</g>
	<g>
		<path fill="none" stroke="#FFFFFF" stroke-linecap="round" stroke-linejoin="round" stroke-miterlimit="10" d="M883.134,358.189
			c0.086,0.007,0.172,0.026,0.251,0.066c0.119,0.066,0.264,0.046,0.363-0.053l3.24-3.24c0.145-0.145,0.145-0.383,0-0.528
			c-0.178-0.178-0.178-0.469,0-0.647l0.884-0.884c0.178-0.178,0.469-0.178,0.647,0l0.264,0.264l2.112-2.112
			c0.508-0.508,0.508-1.326,0-1.828l-2.811-2.811c-0.508-0.508-1.326-0.508-1.828,0l-2.112,2.112l0.218,0.218
			c0.231,0.231,0.231,0.614,0,0.845l-0.68,0.68c-0.231,0.231-0.614,0.231-0.845,0c-0.119-0.119-0.31-0.119-0.429,0l-3.286,3.286
			c-0.119,0.119-0.119,0.317,0,0.436s0.139,0.31,0.04,0.455c-4.243,6.269-1.234,9.337-1.234,9.337
			c0.376-2.745,2.692-5.292,4.962-5.596C882.962,358.182,883.055,358.182,883.134,358.189z"/>
		<path fill="none" stroke="#FFFFFF" stroke-linecap="round" stroke-linejoin="round" stroke-miterlimit="10" d="M905.14,371.815
			l-17.018-15.731l-3.088,3.088l15.725,17.018c0.864,0.924,2.323,0.95,3.22,0.053l1.214-1.214
			C906.09,374.138,906.064,372.679,905.14,371.815z"/>
		<path fill="none" stroke="#FFFFFF" stroke-linecap="round" stroke-linejoin="round" stroke-miterlimit="10" d="M882.474,372.792
			c-0.944,0.944-0.944,2.468,0,3.411l0,0c0.944,0.944,2.468,0.944,3.411,0l6.77-6.77l-3.279-3.543L882.474,372.792z"/>
		<path fill="none" stroke="#FFFFFF" stroke-linecap="round" stroke-linejoin="round" stroke-miterlimit="10" d="M908.393,354.573
			l-3.689,3.689c-0.284,0.284-0.713,0.376-1.089,0.238l-2.065-0.772c-0.277-0.106-0.501-0.323-0.6-0.6l-0.772-2.065
			c-0.139-0.376-0.046-0.805,0.238-1.089l3.689-3.689c-1.94-0.475-4.071,0.046-5.576,1.57c-1.656,1.676-2.092,4.118-1.313,6.196
			l-2.382,2.382l3.543,3.28l2.244-2.244c2.092,0.792,4.547,0.343,6.229-1.34C908.354,358.618,908.869,356.499,908.393,354.573z"/>
	</g>
</g>
<g id="cappello_3">
	<circle fill="#D02517" cx="829.01" cy="362.048" r="23.225"/>
	<g>
		<path fill="none" stroke="#FFFFFF" stroke-miterlimit="10" d="M838.876,362.165c-0.081-0.879-0.165-1.902-0.242-3.02
			c-0.247-3.59-2.092-6.859-3.282-7.486c-0.235-0.124-0.602-0.149-1.042-0.112c-1.788,0.152-4.818,1.354-5.449,1.352
			c-0.48-0.001-2.474-0.488-4.22-0.598c-1.109-0.07-2.119,0.012-2.578,0.469c-0.717,0.713-1.295,4.84-1.639,7.973
			c-4.405,0.727-7.381,2.288-7.529,4.297c-0.237,3.215,6.861,6.358,15.853,7.021c8.992,0.663,16.474-1.406,16.711-4.621
			C845.605,365.47,842.991,363.527,838.876,362.165z"/>
		<g>
			<path fill="#FFFFFF" d="M819.915,365.168l0.186-1.808c0.027,0.016,3.256,1.785,9.63,2.123c6.621,0.351,9.411-1.05,9.411-1.05
				l0.336,1.65c-0.614,0.49-2.53,1.84-9.833,1.453C825.05,367.292,821.215,365.978,819.915,365.168z"/>
		</g>
		<line fill="none" stroke="#FFFFFF" stroke-miterlimit="10" x1="819.916" y1="365.166" x2="820.425" y2="360.744"/>
		<line fill="none" stroke="#FFFFFF" stroke-miterlimit="10" x1="838.876" y1="362.165" x2="839.153" y2="365.886"/>
	</g>
</g>
</svg>
