<?xml version="1.0" encoding="utf-8"?>
<!-- Generator: Adobe Illustrator 17.0.0, SVG Export Plug-In . SVG Version: 6.00 Build 0) -->
<!DOCTYPE svg PUBLIC "-//W3C//DTD SVG 1.1//EN" "http://www.w3.org/Graphics/SVG/1.1/DTD/svg11.dtd">
<svg
	version="1.1"
	id="Livello_1"
	xmlns="http://www.w3.org/2000/svg"
	xmlns:xlink="http://www.w3.org/1999/xlink"
	x="0px"
	y="0px"
	width="1602.76px"
	height="855.227px"
	viewBox="0 0 1602.76 855.227"
	enable-background="new 0 0 1602.76 855.227"
	xml:space="preserve">

	<g>
		<g>
			<g>

				<line fill="none" stroke="#000000" stroke-width="3" stroke-linecap="round" stroke-miterlimit="10" x1="516.146" y1="441.505" x2="663.142" y2="441.505"/>
				<g>
					<polygon points="659.728,453.173 679.933,441.506 659.728,429.838 			"/>
				</g>
			</g>
		</g>
		<g>
			<g>

				<line fill="none" stroke="#000000" stroke-width="3" stroke-linecap="round" stroke-miterlimit="10" x1="1042.084" y1="441.505" x2="1189.08" y2="441.505"/>
				<g>
					<polygon points="1185.666,453.173 1205.871,441.506 1185.666,429.838 			"/>
				</g>
			</g>
		</g>
		<ellipse fill="#A786BC" stroke="#A685BC" stroke-width="5" stroke-linecap="round" stroke-linejoin="round" stroke-miterlimit="10" cx="346.519" cy="441.189" rx="151.289" ry="119.197"/>
		<ellipse fill="none" stroke="#050A0C" stroke-width="3" stroke-linecap="round" stroke-linejoin="round" stroke-miterlimit="10" cx="337.35" cy="441.189" rx="151.289" ry="119.197"/>
		<g>
			<text transform="matrix(1 0 0 1 300.3488 422.8522)">
				<tspan x="0" y="0" fill="#FFFFFF" font-family="'BebasNeue'" font-size="38.6134">List of</tspan>
				<tspan x="-47.03" y="46.336" fill="#FFFFFF" font-family="'BebasNeue'" font-size="38.6134">requirements</tspan>
			</text>
		</g>
		<ellipse fill="#2EB4AB" cx="859.983" cy="432.02" rx="151.289" ry="119.197"/>
		<ellipse fill="none" stroke="#050A0C" stroke-width="3" stroke-linecap="round" stroke-linejoin="round" stroke-miterlimit="10" cx="869.152" cy="441.189" rx="151.289" ry="119.197"/>
		<g>
			<text transform="matrix(1 0 0 1 820.4156 413.6823)">
				<tspan x="0" y="0" fill="#FFFFFF" font-family="'BebasNeue'" font-size="38.6134">Create</tspan>
				<tspan x="-59.811" y="46.336" fill="#FFFFFF" font-family="'BebasNeue'" font-size="38.6134">smaller stories</tspan>
			</text>
		</g>
		<ellipse fill="#B2116C" stroke="#B2116C" stroke-width="5" stroke-linecap="round" stroke-linejoin="round" stroke-miterlimit="10" cx="1390.664" cy="439.292" rx="151.289" ry="119.197"/>
		<ellipse fill="none" stroke="#050A0C" stroke-width="3" stroke-linecap="round" stroke-linejoin="round" stroke-miterlimit="10" cx="1380.547" cy="441.189" rx="151.289" ry="119.197"/>
		<g>
			<text transform="matrix(1 0 0 1 1265.2263 396.8215)">
				<tspan x="0" y="0" fill="#FFFFFF" font-family="'BebasNeue'" font-size="38.6134">establish general</tspan>
				<tspan x="11.682" y="46.336" fill="#FFFFFF" font-family="'BebasNeue'" font-size="38.6134">constraints and</tspan>
				<tspan x="40.467" y="92.672" fill="#FFFFFF" font-family="'BebasNeue'" font-size="38.6134">competency</tspan>
				<tspan x="54.405" y="139.008" fill="#FFFFFF" font-family="'BebasNeue'" font-size="38.6134">questions</tspan>
			</text>
		</g>
		<g>
			<circle fill="#E15E10" cx="911.492" cy="269.969" r="39.786"/>
			<g>
				<path
					fill="#FFFFFF"
					d="M899.382,246.054c-1.053,0.08-1.695,1.037-1.263,1.925c0.429,0.881,0.909,1.738,1.387,2.595
			c0.362,0.649,1.085,0.857,1.735,0.53c0.597-0.3,0.836-1.026,0.502-1.683c-0.453-0.89-0.91-1.783-1.44-2.627
			C900.105,246.479,899.695,246.297,899.382,246.054z M891.944,259.017c0.755,0.043,1.224-0.251,1.436-0.797
			c0.21-0.541,0.071-1.096-0.433-1.446c-0.79-0.55-1.6-1.072-2.413-1.589c-0.709-0.451-1.402-0.334-1.818,0.281
			c-0.433,0.641-0.269,1.351,0.442,1.827c0.755,0.506,1.516,1.003,2.283,1.49C891.634,258.906,891.86,258.979,891.944,259.017z
			 M925.549,248.65c0.033-0.684-0.296-1.173-0.821-1.378c-0.53-0.207-1.105-0.056-1.451,0.447c-0.568,0.826-1.117,1.666-1.644,2.518
			c-0.384,0.621-0.229,1.322,0.323,1.687c0.626,0.414,1.388,0.267,1.819-0.374c0.519-0.771,1.026-1.551,1.522-2.337
			C925.431,249.003,925.503,248.755,925.549,248.65z M934.395,258.115c-0.072-1.093-1.038-1.723-1.963-1.265
			c-0.849,0.421-1.677,0.884-2.504,1.345c-0.72,0.401-0.937,1.081-0.585,1.751c0.316,0.601,1.055,0.821,1.755,0.469
			c0.862-0.434,1.724-0.878,2.54-1.391C933.956,258.824,934.147,258.424,934.395,258.115z M934.328,271.723
			c0.455,0.019,0.91,0.037,1.366,0.056c0.018,0.001,0.036,0.002,0.055,0.002c0.757-0.002,1.284-0.464,1.326-1.162
			c0.044-0.727-0.44-1.272-1.22-1.322c-0.927-0.059-1.857-0.094-2.786-0.116c-0.777-0.018-1.342,0.487-1.372,1.186
			c-0.03,0.702,0.493,1.245,1.266,1.298C933.417,271.695,933.873,271.704,934.328,271.723z M887.421,267.307
			c-0.473-0.019-0.947-0.054-1.42-0.055c-0.756-0.002-1.279,0.476-1.315,1.174c-0.037,0.724,0.456,1.263,1.235,1.309
			c0.928,0.054,1.857,0.092,2.786,0.114c0.772,0.018,1.337-0.495,1.36-1.198c0.021-0.676-0.488-1.222-1.226-1.282
			C888.369,267.33,887.894,267.327,887.421,267.307z M913.054,246.161c0.002,0,0.004,0,0.006,0c0.019-0.456,0.044-0.911,0.055-1.368
			c0.019-0.846-0.433-1.375-1.184-1.398c-0.722-0.022-1.212,0.462-1.257,1.279c-0.053,0.947-0.09,1.896-0.117,2.844
			c-0.022,0.751,0.408,1.204,1.145,1.24c0.705,0.034,1.227-0.409,1.287-1.122C913.03,247.146,913.034,246.653,913.054,246.161z"/>
				<path
					fill="#FFFFFF"
					d="M904.863,301.27c-0.347-0.152-0.709-0.276-1.039-0.459c-1.739-0.966-2.608-2.504-2.571-4.547
			c0.037-2.038,0.117-4.077,0.253-6.11c0.098-1.464-0.159-2.838-0.683-4.171c-0.84-2.135-1.962-4.089-3.256-5.971
			c-2.559-3.723-3.579-7.912-2.842-12.473c1.205-7.458,6.532-12.996,13.722-14.122c8.888-1.392,16.64,4.839,18.216,13.486
			c0.749,4.109,0.073,7.995-1.95,11.597c-0.649,1.156-1.501,2.196-2.31,3.247c-1.655,2.152-3.173,4.385-3.886,7.083
			c-0.175,0.661-0.148,1.384-0.18,2.081c-0.096,2.075-0.152,4.151-0.268,6.225c-0.114,2.02-1.521,3.769-3.396,4.309
			c-0.206,0.059-0.407,0.135-0.611,0.203C910.996,301.522,907.93,301.396,904.863,301.27z M910.046,287.124
			c1.825,0.075,3.65,0.143,5.474,0.23c0.346,0.016,0.494-0.064,0.593-0.438c0.785-2.973,2.356-5.564,4.366-7.807
			c3.298-3.68,4.629-7.86,3.598-12.665c-1.525-7.108-8.119-11.584-15.364-10.583c-6.106,0.843-11.081,6.055-11.586,12.171
			c-0.306,3.704,0.711,7.026,2.965,9.979c0.419,0.549,0.823,1.117,1.173,1.712c1.261,2.143,2.4,4.337,2.811,6.835
			c0.023,0.137,0.32,0.318,0.497,0.328C906.396,286.983,908.221,287.049,910.046,287.124z M915.695,292.145
			c0.031-0.752,0.06-1.466,0.089-2.17c-3.92-0.161-7.792-0.319-11.671-0.478c-0.031,0.748-0.06,1.451-0.089,2.17
			C907.935,291.826,911.809,291.985,915.695,292.145z M915.607,294.788c-3.915-0.16-7.792-0.319-11.665-0.478
			c-0.232,1.213,0.638,2.314,1.891,2.373c2.535,0.12,5.071,0.222,7.608,0.314C914.698,297.043,915.603,296.126,915.607,294.788z"/>
				<path
					fill="#FFFFFF"
					d="M899.382,246.054c0.313,0.243,0.723,0.425,0.921,0.741c0.53,0.844,0.988,1.737,1.44,2.627
			c0.334,0.657,0.095,1.383-0.502,1.683c-0.651,0.327-1.374,0.119-1.735-0.53c-0.478-0.857-0.958-1.714-1.387-2.595
			C897.688,247.091,898.33,246.134,899.382,246.054z"/>
				<path
					fill="#FFFFFF"
					d="M891.944,259.017c-0.084-0.038-0.31-0.111-0.504-0.234c-0.767-0.487-1.528-0.984-2.283-1.49
			c-0.711-0.477-0.875-1.186-0.442-1.827c0.416-0.616,1.109-0.733,1.818-0.281c0.812,0.517,1.623,1.039,2.413,1.589
			c0.504,0.351,0.643,0.905,0.433,1.446C893.168,258.766,892.699,259.06,891.944,259.017z"/>
				<path
					fill="#FFFFFF"
					d="M925.549,248.65c-0.045,0.105-0.118,0.352-0.251,0.563c-0.496,0.786-1.003,1.566-1.522,2.337
			c-0.431,0.641-1.193,0.788-1.819,0.374c-0.552-0.365-0.707-1.065-0.323-1.687c0.527-0.853,1.076-1.692,1.644-2.518
			c0.346-0.503,0.921-0.654,1.451-0.447C925.253,247.477,925.581,247.966,925.549,248.65z"/>
				<path
					fill="#FFFFFF"
					d="M934.395,258.115c-0.248,0.309-0.439,0.71-0.757,0.909c-0.816,0.513-1.677,0.957-2.54,1.391
			c-0.7,0.353-1.439,0.132-1.755-0.469c-0.352-0.67-0.135-1.35,0.585-1.751c0.828-0.461,1.656-0.925,2.504-1.345
			C933.357,256.391,934.323,257.021,934.395,258.115z"/>
				<path
					fill="#FFFFFF"
					d="M934.328,271.723c-0.455-0.019-0.911-0.027-1.366-0.058c-0.773-0.053-1.295-0.595-1.266-1.298
			c0.03-0.699,0.595-1.204,1.372-1.186c0.929,0.022,1.858,0.057,2.786,0.116c0.781,0.049,1.264,0.595,1.22,1.322
			c-0.042,0.698-0.569,1.16-1.326,1.162c-0.018,0-0.036-0.001-0.055-0.002C935.239,271.76,934.784,271.741,934.328,271.723z"/>
				<path
					fill="#FFFFFF"
					d="M887.421,267.307c0.473,0.02,0.948,0.023,1.42,0.062c0.738,0.061,1.247,0.606,1.226,1.282
			c-0.022,0.702-0.588,1.216-1.36,1.198c-0.929-0.022-1.858-0.06-2.786-0.114c-0.779-0.045-1.272-0.585-1.235-1.309
			c0.036-0.698,0.559-1.176,1.315-1.174C886.474,267.253,886.947,267.288,887.421,267.307z"/>
				<path
					fill="#FFFFFF"
					d="M913.054,246.161c-0.02,0.492-0.023,0.986-0.065,1.476c-0.06,0.713-0.583,1.156-1.287,1.122
			c-0.737-0.036-1.167-0.489-1.145-1.24c0.028-0.948,0.065-1.897,0.117-2.844c0.045-0.817,0.535-1.301,1.257-1.279
			c0.751,0.023,1.203,0.552,1.184,1.398c-0.01,0.456-0.036,0.912-0.055,1.368C913.058,246.161,913.056,246.161,913.054,246.161z"/>
			</g>
		</g>
		<g>
			<circle fill="#D02517" cx="817.602" cy="273.296" r="39.742"/>
			<path
				fill="#FFFFFF"
				d="M843.113,275.486c-0.713-0.633-1.544-1.072-2.42-1.422c-3.023-1.207-6.179-1.875-9.4-2.242
		c-0.732-0.084-1.076-0.281-1.211-1.101c-0.406-2.456-0.987-4.877-1.887-7.212c-1.143-2.963-3.266-4.712-6.39-5.25
		c-0.268-0.046-0.511-0.108-0.736-0.277c-1.312-0.985-2.819-1.497-4.406-1.848c-3.625-0.802-8.819,0.904-10.392,5.453
		c-1.068,3.09-1.758,6.257-2.446,9.432c-0.108,0.497-0.271,0.701-0.794,0.772c-2.611,0.352-5.197,0.843-7.694,1.713
		c-1.251,0.436-2.471,0.944-3.457,1.865c-1.216,1.135-1.259,2.579-0.123,3.774c0.505,0.532,1.117,0.923,1.773,1.243
		c2.52,1.229,5.226,1.816,7.962,2.306c7.596,1.291,15.246,1.528,22.924,1.122c4.807-0.254,9.587-0.753,14.234-2.094
		c1.603-0.463,3.201-0.991,4.482-2.133C844.55,278.321,844.529,276.744,843.113,275.486z M807.38,264.587
		c0.286-0.924,0.584-1.837,0.95-2.733c1.028-2.521,3.119-3.489,5.606-3.868c0.629-0.096,1.281-0.173,2.079,0.107
		c-0.508,0.088-0.821,0.16-1.137,0.193c-0.698,0.073-1.109,0.424-1.068,1.148c0.034,0.595,0.559,0.891,1.34,0.767
		c2.029-0.323,4.055-0.378,6.092-0.06c2.762,0.43,4.455,2.036,5.33,4.647c1.022,3.047,1.606,6.186,2.089,9.35
		c0.273,1.788,0.265,1.811-1.511,1.976c-4.598,0.427-9.205,0.529-13.821,0.358c-2.601-0.097-5.193-0.261-7.781-0.535
		c-0.425-0.045-0.502-0.174-0.432-0.54C805.798,271.779,806.285,268.122,807.38,264.587z M841.047,278.684
		c-2.421,1.259-5.064,1.792-7.721,2.226c-6.227,1.018-12.501,1.249-18.8,1.057c-4.929-0.151-9.826-0.562-14.658-1.577
		c-1.922-0.404-3.823-0.905-5.577-1.825c-0.56-0.294-1.332-0.548-1.32-1.27c0.011-0.721,0.804-0.966,1.358-1.243
		c2.164-1.084,4.516-1.558,6.874-1.996c0.555-0.103,1.114-0.187,1.67-0.284c0.402-0.07,0.544,0.08,0.47,0.486
		c-0.126,0.689-0.254,1.378-0.336,2.073c-0.104,0.88,0.174,1.257,1.06,1.378c3.145,0.429,6.309,0.647,9.479,0.741
		c5.377,0.158,10.743,0.02,16.089-0.633c1.241-0.152,1.473-0.453,1.307-1.679c-0.101-0.746-0.209-1.491-0.309-2.237
		c-0.006-0.046,0.032-0.097,0.063-0.184c3.388,0.427,6.739,1.025,9.887,2.45c0.195,0.088,0.386,0.19,0.569,0.303
		C842.557,277.335,842.541,277.908,841.047,278.684z"/>
		</g>
		<g>
			<circle fill="#E15E10" cx="1436.993" cy="267.348" r="39.786"/>
			<g>
				<path
					fill="#FFFFFF"
					d="M1424.884,243.433c-1.053,0.08-1.695,1.037-1.263,1.925c0.428,0.881,0.909,1.738,1.387,2.595
			c0.362,0.649,1.085,0.857,1.735,0.53c0.597-0.3,0.836-1.026,0.502-1.683c-0.453-0.89-0.91-1.783-1.44-2.627
			C1425.607,243.858,1425.197,243.676,1424.884,243.433z M1417.446,256.396c0.755,0.043,1.224-0.251,1.436-0.797
			c0.21-0.541,0.071-1.096-0.433-1.446c-0.79-0.55-1.6-1.072-2.413-1.589c-0.709-0.451-1.402-0.334-1.818,0.281
			c-0.433,0.641-0.269,1.351,0.442,1.827c0.755,0.506,1.516,1.003,2.283,1.49C1417.136,256.285,1417.362,256.358,1417.446,256.396z
			 M1451.051,246.029c0.032-0.684-0.296-1.173-0.821-1.378c-0.53-0.207-1.105-0.056-1.451,0.447
			c-0.568,0.826-1.117,1.666-1.644,2.518c-0.384,0.621-0.229,1.322,0.323,1.687c0.626,0.414,1.388,0.267,1.819-0.374
			c0.519-0.771,1.026-1.551,1.522-2.337C1450.933,246.381,1451.005,246.133,1451.051,246.029z M1459.897,255.493
			c-0.072-1.093-1.038-1.723-1.963-1.265c-0.849,0.421-1.677,0.884-2.504,1.345c-0.72,0.401-0.937,1.081-0.585,1.751
			c0.316,0.601,1.055,0.821,1.755,0.469c0.862-0.434,1.724-0.878,2.54-1.391C1459.458,256.203,1459.649,255.802,1459.897,255.493z
			 M1459.83,269.102c0.455,0.019,0.91,0.037,1.366,0.056c0.018,0.001,0.036,0.002,0.055,0.002c0.757-0.002,1.284-0.464,1.326-1.162
			c0.044-0.727-0.439-1.272-1.22-1.322c-0.927-0.059-1.857-0.094-2.786-0.116c-0.777-0.018-1.342,0.487-1.372,1.186
			c-0.03,0.702,0.493,1.245,1.266,1.298C1458.919,269.074,1459.375,269.083,1459.83,269.102z M1412.923,264.686
			c-0.473-0.019-0.947-0.054-1.42-0.055c-0.756-0.002-1.279,0.476-1.315,1.174c-0.037,0.724,0.456,1.263,1.235,1.309
			c0.928,0.054,1.857,0.092,2.786,0.114c0.772,0.018,1.337-0.495,1.36-1.198c0.021-0.676-0.488-1.222-1.226-1.282
			C1413.871,264.709,1413.396,264.705,1412.923,264.686z M1438.556,243.539c0.002,0,0.004,0,0.006,0
			c0.019-0.456,0.044-0.911,0.055-1.368c0.019-0.846-0.433-1.375-1.183-1.398c-0.722-0.022-1.212,0.462-1.257,1.279
			c-0.053,0.947-0.09,1.896-0.117,2.844c-0.022,0.751,0.408,1.204,1.145,1.24c0.705,0.034,1.227-0.409,1.287-1.122
			C1438.532,244.525,1438.536,244.032,1438.556,243.539z"/>
				<path
					fill="#FFFFFF"
					d="M1430.365,298.649c-0.347-0.152-0.709-0.276-1.039-0.459c-1.739-0.966-2.608-2.504-2.571-4.547
			c0.037-2.038,0.117-4.077,0.253-6.11c0.098-1.464-0.159-2.838-0.683-4.171c-0.84-2.135-1.962-4.089-3.256-5.971
			c-2.56-3.723-3.579-7.912-2.842-12.473c1.205-7.458,6.532-12.996,13.722-14.122c8.888-1.392,16.64,4.839,18.216,13.486
			c0.749,4.109,0.073,7.995-1.95,11.597c-0.649,1.156-1.501,2.196-2.31,3.247c-1.655,2.152-3.173,4.385-3.886,7.083
			c-0.175,0.661-0.148,1.384-0.18,2.081c-0.096,2.075-0.152,4.151-0.268,6.225c-0.114,2.02-1.521,3.769-3.396,4.309
			c-0.206,0.059-0.407,0.135-0.611,0.203C1436.498,298.901,1433.432,298.775,1430.365,298.649z M1435.548,284.503
			c1.825,0.075,3.65,0.143,5.474,0.23c0.346,0.016,0.494-0.064,0.593-0.438c0.785-2.973,2.356-5.564,4.366-7.807
			c3.298-3.68,4.629-7.86,3.598-12.665c-1.526-7.108-8.119-11.584-15.365-10.583c-6.106,0.843-11.081,6.055-11.586,12.171
			c-0.306,3.704,0.711,7.026,2.965,9.979c0.419,0.549,0.823,1.117,1.173,1.712c1.261,2.143,2.4,4.338,2.811,6.835
			c0.023,0.137,0.319,0.318,0.497,0.328C1431.898,284.362,1433.723,284.428,1435.548,284.503z M1441.197,289.523
			c0.031-0.752,0.06-1.466,0.089-2.17c-3.92-0.161-7.792-0.319-11.671-0.478c-0.031,0.748-0.059,1.451-0.089,2.17
			C1433.437,289.205,1437.311,289.364,1441.197,289.523z M1441.109,292.166c-3.916-0.16-7.792-0.319-11.665-0.478
			c-0.232,1.213,0.638,2.314,1.891,2.373c2.535,0.12,5.071,0.222,7.608,0.314C1440.2,294.421,1441.105,293.505,1441.109,292.166z"/>
				<path
					fill="#FFFFFF"
					d="M1424.884,243.433c0.313,0.243,0.723,0.425,0.921,0.741c0.531,0.844,0.988,1.737,1.44,2.627
			c0.334,0.657,0.095,1.383-0.502,1.683c-0.651,0.327-1.374,0.119-1.735-0.53c-0.478-0.857-0.958-1.713-1.387-2.595
			C1423.189,244.47,1423.832,243.513,1424.884,243.433z"/>
				<path
					fill="#FFFFFF"
					d="M1417.446,256.396c-0.084-0.038-0.31-0.111-0.504-0.234c-0.767-0.487-1.528-0.984-2.283-1.49
			c-0.711-0.477-0.875-1.186-0.442-1.827c0.416-0.616,1.109-0.733,1.818-0.281c0.812,0.517,1.623,1.039,2.413,1.589
			c0.504,0.351,0.643,0.905,0.433,1.446C1418.67,256.145,1418.201,256.439,1417.446,256.396z"/>
				<path
					fill="#FFFFFF"
					d="M1451.051,246.029c-0.045,0.105-0.118,0.353-0.251,0.563c-0.496,0.786-1.003,1.566-1.522,2.337
			c-0.431,0.641-1.193,0.788-1.819,0.374c-0.552-0.365-0.707-1.065-0.323-1.687c0.527-0.853,1.076-1.692,1.644-2.518
			c0.346-0.503,0.921-0.654,1.451-0.447C1450.755,244.856,1451.083,245.344,1451.051,246.029z"/>
				<path
					fill="#FFFFFF"
					d="M1459.897,255.493c-0.248,0.309-0.439,0.71-0.757,0.909c-0.816,0.513-1.677,0.957-2.54,1.391
			c-0.7,0.353-1.439,0.132-1.755-0.469c-0.352-0.67-0.135-1.35,0.585-1.751c0.828-0.461,1.656-0.925,2.504-1.345
			C1458.859,253.77,1459.825,254.4,1459.897,255.493z"/>
				<path
					fill="#FFFFFF"
					d="M1459.83,269.102c-0.455-0.019-0.911-0.027-1.365-0.058c-0.773-0.053-1.296-0.595-1.266-1.298
			c0.03-0.699,0.595-1.204,1.372-1.186c0.929,0.022,1.858,0.057,2.786,0.116c0.781,0.049,1.264,0.595,1.22,1.322
			c-0.042,0.698-0.569,1.16-1.326,1.162c-0.018,0-0.036-0.001-0.055-0.002C1460.741,269.139,1460.285,269.12,1459.83,269.102z"/>
				<path
					fill="#FFFFFF"
					d="M1412.923,264.686c0.473,0.02,0.948,0.023,1.42,0.062c0.738,0.061,1.247,0.606,1.226,1.282
			c-0.022,0.702-0.588,1.216-1.36,1.198c-0.929-0.022-1.858-0.06-2.786-0.114c-0.779-0.045-1.272-0.585-1.235-1.309
			c0.036-0.698,0.559-1.176,1.315-1.174C1411.976,264.632,1412.449,264.666,1412.923,264.686z"/>
				<path
					fill="#FFFFFF"
					d="M1438.556,243.539c-0.02,0.492-0.023,0.986-0.065,1.476c-0.06,0.713-0.583,1.156-1.287,1.122
			c-0.737-0.036-1.167-0.489-1.145-1.24c0.028-0.948,0.065-1.897,0.117-2.844c0.045-0.817,0.535-1.301,1.257-1.279
			c0.751,0.023,1.203,0.552,1.183,1.398c-0.01,0.456-0.036,0.912-0.055,1.368C1438.56,243.539,1438.558,243.539,1438.556,243.539z"/>
			</g>
		</g>
		<g>
			<circle fill="#D02517" cx="1343.104" cy="270.675" r="39.742"/>
			<path
				fill="#FFFFFF"
				d="M1368.615,272.865c-0.713-0.633-1.544-1.072-2.42-1.422c-3.023-1.207-6.179-1.875-9.4-2.242
		c-0.732-0.084-1.076-0.281-1.211-1.101c-0.406-2.456-0.986-4.877-1.887-7.212c-1.143-2.963-3.266-4.712-6.39-5.25
		c-0.268-0.046-0.511-0.108-0.736-0.277c-1.312-0.985-2.819-1.497-4.406-1.848c-3.625-0.802-8.819,0.904-10.392,5.453
		c-1.068,3.09-1.758,6.257-2.446,9.432c-0.108,0.497-0.271,0.701-0.794,0.772c-2.611,0.352-5.197,0.843-7.694,1.713
		c-1.251,0.436-2.471,0.944-3.457,1.865c-1.216,1.135-1.259,2.579-0.123,3.774c0.505,0.532,1.118,0.923,1.773,1.243
		c2.52,1.229,5.226,1.816,7.962,2.306c7.596,1.291,15.246,1.528,22.924,1.121c4.807-0.254,9.587-0.753,14.234-2.094
		c1.604-0.463,3.201-0.991,4.482-2.133C1370.052,275.699,1370.031,274.123,1368.615,272.865z M1332.882,261.966
		c0.286-0.924,0.584-1.837,0.95-2.733c1.028-2.521,3.119-3.489,5.606-3.868c0.629-0.096,1.281-0.173,2.079,0.107
		c-0.509,0.088-0.821,0.16-1.137,0.193c-0.698,0.073-1.109,0.424-1.068,1.148c0.034,0.595,0.559,0.891,1.34,0.767
		c2.029-0.323,4.055-0.378,6.092-0.06c2.762,0.43,4.455,2.036,5.33,4.647c1.022,3.047,1.606,6.186,2.089,9.35
		c0.273,1.788,0.265,1.811-1.511,1.976c-4.599,0.427-9.205,0.529-13.821,0.358c-2.601-0.097-5.193-0.261-7.781-0.535
		c-0.425-0.045-0.502-0.174-0.432-0.54C1331.3,269.158,1331.787,265.5,1332.882,261.966z M1366.549,276.063
		c-2.421,1.259-5.064,1.792-7.721,2.226c-6.227,1.018-12.5,1.249-18.8,1.057c-4.929-0.151-9.826-0.562-14.658-1.577
		c-1.922-0.404-3.823-0.905-5.577-1.825c-0.561-0.294-1.332-0.548-1.32-1.27c0.011-0.721,0.804-0.966,1.358-1.243
		c2.164-1.084,4.516-1.558,6.874-1.996c0.555-0.103,1.114-0.187,1.67-0.284c0.402-0.07,0.544,0.08,0.47,0.486
		c-0.126,0.689-0.254,1.378-0.336,2.073c-0.104,0.88,0.174,1.257,1.06,1.378c3.145,0.429,6.309,0.648,9.479,0.741
		c5.377,0.158,10.743,0.02,16.089-0.633c1.241-0.152,1.473-0.452,1.307-1.679c-0.101-0.746-0.209-1.491-0.309-2.237
		c-0.006-0.046,0.032-0.097,0.063-0.184c3.389,0.427,6.739,1.025,9.887,2.45c0.195,0.088,0.386,0.19,0.568,0.303
		C1368.058,274.714,1368.043,275.286,1366.549,276.063z"/>
		</g>
	</g>
</svg>
