<?xml version="1.0" encoding="utf-8"?>
<!-- Generator: Adobe Illustrator 17.0.0, SVG Export Plug-In . SVG Version: 6.00 Build 0)  -->
<!DOCTYPE svg PUBLIC "-//W3C//DTD SVG 1.1//EN" "http://www.w3.org/Graphics/SVG/1.1/DTD/svg11.dtd">
<svg version="1.1" id="Livello_1" xmlns="http://www.w3.org/2000/svg" xmlns:xlink="http://www.w3.org/1999/xlink" x="0px" y="0px"
	 width="70.442px" height="74.448px" viewBox="0 0 70.442 74.448" enable-background="new 0 0 70.442 74.448" xml:space="preserve">
<g id="tools_1">
	<g id="Tools_1">
		<circle fill="#72B62B" cx="34.236" cy="36.245" r="28.262"/>
	</g>
	<g>
		<path fill="none" stroke="#FFFFFF" stroke-linecap="round" stroke-linejoin="round" stroke-miterlimit="10" d="M23.025,31.159
			c0.105,0.008,0.209,0.032,0.306,0.08c0.145,0.08,0.322,0.056,0.443-0.064l3.951-3.951c0.177-0.177,0.177-0.467,0-0.644
			c-0.217-0.217-0.217-0.571,0-0.789l1.078-1.078c0.217-0.217,0.571-0.217,0.789,0l0.322,0.322l2.575-2.575
			c0.62-0.62,0.62-1.617,0-2.229l-3.428-3.428c-0.62-0.62-1.617-0.62-2.229,0l-2.575,2.575l0.266,0.266
			c0.282,0.282,0.282,0.748,0,1.03l-0.829,0.829c-0.282,0.282-0.748,0.282-1.03,0c-0.145-0.145-0.378-0.145-0.523,0l-4.007,4.007
			c-0.145,0.145-0.145,0.386,0,0.531c0.145,0.145,0.169,0.378,0.048,0.555c-5.174,7.644-1.505,11.386-1.505,11.386
			c0.459-3.347,3.283-6.453,6.051-6.823C22.815,31.151,22.928,31.151,23.025,31.159z"/>
		<path fill="none" stroke="#FFFFFF" stroke-linecap="round" stroke-linejoin="round" stroke-miterlimit="10" d="M49.86,47.775
			L29.108,28.592l-3.766,3.766L44.517,53.11c1.054,1.127,2.832,1.159,3.927,0.064l1.481-1.481
			C51.019,50.607,50.986,48.829,49.86,47.775z"/>
		<path fill="none" stroke="#FFFFFF" stroke-linecap="round" stroke-linejoin="round" stroke-miterlimit="10" d="M22.22,48.966
			c-1.151,1.151-1.151,3.009,0,4.16l0,0c1.151,1.151,3.009,1.151,4.16,0l8.256-8.256l-3.999-4.321L22.22,48.966z"/>
		<path fill="none" stroke="#FFFFFF" stroke-linecap="round" stroke-linejoin="round" stroke-miterlimit="10" d="M53.827,26.749
			l-4.498,4.498c-0.346,0.346-0.869,0.459-1.328,0.29l-2.519-0.941c-0.338-0.129-0.612-0.394-0.732-0.732l-0.941-2.519
			c-0.169-0.459-0.056-0.982,0.29-1.328l4.498-4.498c-2.366-0.579-4.965,0.056-6.799,1.915c-2.02,2.044-2.551,5.021-1.601,7.556
			l-2.905,2.905l4.321,3.999l2.736-2.736c2.551,0.966,5.544,0.418,7.596-1.633C53.779,31.682,54.406,29.099,53.827,26.749z"/>
	</g>
</g>
</svg>
